G04 #@! TF.GenerationSoftware,KiCad,Pcbnew,(5.1.4)-1*
G04 #@! TF.CreationDate,2020-01-26T17:58:18+01:00*
G04 #@! TF.ProjectId,HM-LC-Sw1-Pl-DN-R1_S26,484d2d4c-432d-4537-9731-2d506c2d444e,rev?*
G04 #@! TF.SameCoordinates,Original*
G04 #@! TF.FileFunction,Paste,Bot*
G04 #@! TF.FilePolarity,Positive*
%FSLAX46Y46*%
G04 Gerber Fmt 4.6, Leading zero omitted, Abs format (unit mm)*
G04 Created by KiCad (PCBNEW (5.1.4)-1) date 2020-01-26 17:58:18*
%MOMM*%
%LPD*%
G04 APERTURE LIST*
%ADD10C,0.150000*%
%ADD11C,1.150000*%
%ADD12R,2.000000X1.500000*%
%ADD13C,0.550000*%
G04 APERTURE END LIST*
D10*
G36*
X147224505Y-102476204D02*
G01*
X147248773Y-102479804D01*
X147272572Y-102485765D01*
X147295671Y-102494030D01*
X147317850Y-102504520D01*
X147338893Y-102517132D01*
X147358599Y-102531747D01*
X147376777Y-102548223D01*
X147393253Y-102566401D01*
X147407868Y-102586107D01*
X147420480Y-102607150D01*
X147430970Y-102629329D01*
X147439235Y-102652428D01*
X147445196Y-102676227D01*
X147448796Y-102700495D01*
X147450000Y-102724999D01*
X147450000Y-103375001D01*
X147448796Y-103399505D01*
X147445196Y-103423773D01*
X147439235Y-103447572D01*
X147430970Y-103470671D01*
X147420480Y-103492850D01*
X147407868Y-103513893D01*
X147393253Y-103533599D01*
X147376777Y-103551777D01*
X147358599Y-103568253D01*
X147338893Y-103582868D01*
X147317850Y-103595480D01*
X147295671Y-103605970D01*
X147272572Y-103614235D01*
X147248773Y-103620196D01*
X147224505Y-103623796D01*
X147200001Y-103625000D01*
X146299999Y-103625000D01*
X146275495Y-103623796D01*
X146251227Y-103620196D01*
X146227428Y-103614235D01*
X146204329Y-103605970D01*
X146182150Y-103595480D01*
X146161107Y-103582868D01*
X146141401Y-103568253D01*
X146123223Y-103551777D01*
X146106747Y-103533599D01*
X146092132Y-103513893D01*
X146079520Y-103492850D01*
X146069030Y-103470671D01*
X146060765Y-103447572D01*
X146054804Y-103423773D01*
X146051204Y-103399505D01*
X146050000Y-103375001D01*
X146050000Y-102724999D01*
X146051204Y-102700495D01*
X146054804Y-102676227D01*
X146060765Y-102652428D01*
X146069030Y-102629329D01*
X146079520Y-102607150D01*
X146092132Y-102586107D01*
X146106747Y-102566401D01*
X146123223Y-102548223D01*
X146141401Y-102531747D01*
X146161107Y-102517132D01*
X146182150Y-102504520D01*
X146204329Y-102494030D01*
X146227428Y-102485765D01*
X146251227Y-102479804D01*
X146275495Y-102476204D01*
X146299999Y-102475000D01*
X147200001Y-102475000D01*
X147224505Y-102476204D01*
X147224505Y-102476204D01*
G37*
D11*
X146750000Y-103050000D03*
D10*
G36*
X147224505Y-104526204D02*
G01*
X147248773Y-104529804D01*
X147272572Y-104535765D01*
X147295671Y-104544030D01*
X147317850Y-104554520D01*
X147338893Y-104567132D01*
X147358599Y-104581747D01*
X147376777Y-104598223D01*
X147393253Y-104616401D01*
X147407868Y-104636107D01*
X147420480Y-104657150D01*
X147430970Y-104679329D01*
X147439235Y-104702428D01*
X147445196Y-104726227D01*
X147448796Y-104750495D01*
X147450000Y-104774999D01*
X147450000Y-105425001D01*
X147448796Y-105449505D01*
X147445196Y-105473773D01*
X147439235Y-105497572D01*
X147430970Y-105520671D01*
X147420480Y-105542850D01*
X147407868Y-105563893D01*
X147393253Y-105583599D01*
X147376777Y-105601777D01*
X147358599Y-105618253D01*
X147338893Y-105632868D01*
X147317850Y-105645480D01*
X147295671Y-105655970D01*
X147272572Y-105664235D01*
X147248773Y-105670196D01*
X147224505Y-105673796D01*
X147200001Y-105675000D01*
X146299999Y-105675000D01*
X146275495Y-105673796D01*
X146251227Y-105670196D01*
X146227428Y-105664235D01*
X146204329Y-105655970D01*
X146182150Y-105645480D01*
X146161107Y-105632868D01*
X146141401Y-105618253D01*
X146123223Y-105601777D01*
X146106747Y-105583599D01*
X146092132Y-105563893D01*
X146079520Y-105542850D01*
X146069030Y-105520671D01*
X146060765Y-105497572D01*
X146054804Y-105473773D01*
X146051204Y-105449505D01*
X146050000Y-105425001D01*
X146050000Y-104774999D01*
X146051204Y-104750495D01*
X146054804Y-104726227D01*
X146060765Y-104702428D01*
X146069030Y-104679329D01*
X146079520Y-104657150D01*
X146092132Y-104636107D01*
X146106747Y-104616401D01*
X146123223Y-104598223D01*
X146141401Y-104581747D01*
X146161107Y-104567132D01*
X146182150Y-104554520D01*
X146204329Y-104544030D01*
X146227428Y-104535765D01*
X146251227Y-104529804D01*
X146275495Y-104526204D01*
X146299999Y-104525000D01*
X147200001Y-104525000D01*
X147224505Y-104526204D01*
X147224505Y-104526204D01*
G37*
D11*
X146750000Y-105100000D03*
D10*
G36*
X160224505Y-109151204D02*
G01*
X160248773Y-109154804D01*
X160272572Y-109160765D01*
X160295671Y-109169030D01*
X160317850Y-109179520D01*
X160338893Y-109192132D01*
X160358599Y-109206747D01*
X160376777Y-109223223D01*
X160393253Y-109241401D01*
X160407868Y-109261107D01*
X160420480Y-109282150D01*
X160430970Y-109304329D01*
X160439235Y-109327428D01*
X160445196Y-109351227D01*
X160448796Y-109375495D01*
X160450000Y-109399999D01*
X160450000Y-110050001D01*
X160448796Y-110074505D01*
X160445196Y-110098773D01*
X160439235Y-110122572D01*
X160430970Y-110145671D01*
X160420480Y-110167850D01*
X160407868Y-110188893D01*
X160393253Y-110208599D01*
X160376777Y-110226777D01*
X160358599Y-110243253D01*
X160338893Y-110257868D01*
X160317850Y-110270480D01*
X160295671Y-110280970D01*
X160272572Y-110289235D01*
X160248773Y-110295196D01*
X160224505Y-110298796D01*
X160200001Y-110300000D01*
X159299999Y-110300000D01*
X159275495Y-110298796D01*
X159251227Y-110295196D01*
X159227428Y-110289235D01*
X159204329Y-110280970D01*
X159182150Y-110270480D01*
X159161107Y-110257868D01*
X159141401Y-110243253D01*
X159123223Y-110226777D01*
X159106747Y-110208599D01*
X159092132Y-110188893D01*
X159079520Y-110167850D01*
X159069030Y-110145671D01*
X159060765Y-110122572D01*
X159054804Y-110098773D01*
X159051204Y-110074505D01*
X159050000Y-110050001D01*
X159050000Y-109399999D01*
X159051204Y-109375495D01*
X159054804Y-109351227D01*
X159060765Y-109327428D01*
X159069030Y-109304329D01*
X159079520Y-109282150D01*
X159092132Y-109261107D01*
X159106747Y-109241401D01*
X159123223Y-109223223D01*
X159141401Y-109206747D01*
X159161107Y-109192132D01*
X159182150Y-109179520D01*
X159204329Y-109169030D01*
X159227428Y-109160765D01*
X159251227Y-109154804D01*
X159275495Y-109151204D01*
X159299999Y-109150000D01*
X160200001Y-109150000D01*
X160224505Y-109151204D01*
X160224505Y-109151204D01*
G37*
D11*
X159750000Y-109725000D03*
D10*
G36*
X160224505Y-111201204D02*
G01*
X160248773Y-111204804D01*
X160272572Y-111210765D01*
X160295671Y-111219030D01*
X160317850Y-111229520D01*
X160338893Y-111242132D01*
X160358599Y-111256747D01*
X160376777Y-111273223D01*
X160393253Y-111291401D01*
X160407868Y-111311107D01*
X160420480Y-111332150D01*
X160430970Y-111354329D01*
X160439235Y-111377428D01*
X160445196Y-111401227D01*
X160448796Y-111425495D01*
X160450000Y-111449999D01*
X160450000Y-112100001D01*
X160448796Y-112124505D01*
X160445196Y-112148773D01*
X160439235Y-112172572D01*
X160430970Y-112195671D01*
X160420480Y-112217850D01*
X160407868Y-112238893D01*
X160393253Y-112258599D01*
X160376777Y-112276777D01*
X160358599Y-112293253D01*
X160338893Y-112307868D01*
X160317850Y-112320480D01*
X160295671Y-112330970D01*
X160272572Y-112339235D01*
X160248773Y-112345196D01*
X160224505Y-112348796D01*
X160200001Y-112350000D01*
X159299999Y-112350000D01*
X159275495Y-112348796D01*
X159251227Y-112345196D01*
X159227428Y-112339235D01*
X159204329Y-112330970D01*
X159182150Y-112320480D01*
X159161107Y-112307868D01*
X159141401Y-112293253D01*
X159123223Y-112276777D01*
X159106747Y-112258599D01*
X159092132Y-112238893D01*
X159079520Y-112217850D01*
X159069030Y-112195671D01*
X159060765Y-112172572D01*
X159054804Y-112148773D01*
X159051204Y-112124505D01*
X159050000Y-112100001D01*
X159050000Y-111449999D01*
X159051204Y-111425495D01*
X159054804Y-111401227D01*
X159060765Y-111377428D01*
X159069030Y-111354329D01*
X159079520Y-111332150D01*
X159092132Y-111311107D01*
X159106747Y-111291401D01*
X159123223Y-111273223D01*
X159141401Y-111256747D01*
X159161107Y-111242132D01*
X159182150Y-111229520D01*
X159204329Y-111219030D01*
X159227428Y-111210765D01*
X159251227Y-111204804D01*
X159275495Y-111201204D01*
X159299999Y-111200000D01*
X160200001Y-111200000D01*
X160224505Y-111201204D01*
X160224505Y-111201204D01*
G37*
D11*
X159750000Y-111775000D03*
D10*
G36*
X156338108Y-103428412D02*
G01*
X156362376Y-103432012D01*
X156386175Y-103437973D01*
X156409274Y-103446238D01*
X156431453Y-103456728D01*
X156452496Y-103469340D01*
X156472202Y-103483955D01*
X156490380Y-103500431D01*
X156950001Y-103960052D01*
X156966477Y-103978230D01*
X156981092Y-103997936D01*
X156993704Y-104018979D01*
X157004194Y-104041158D01*
X157012459Y-104064257D01*
X157018420Y-104088056D01*
X157022020Y-104112324D01*
X157023224Y-104136828D01*
X157022020Y-104161332D01*
X157018420Y-104185600D01*
X157012459Y-104209399D01*
X157004194Y-104232498D01*
X156993704Y-104254677D01*
X156981092Y-104275720D01*
X156966477Y-104295426D01*
X156950001Y-104313604D01*
X156313604Y-104950001D01*
X156295426Y-104966477D01*
X156275720Y-104981092D01*
X156254677Y-104993704D01*
X156232498Y-105004194D01*
X156209399Y-105012459D01*
X156185600Y-105018420D01*
X156161332Y-105022020D01*
X156136828Y-105023224D01*
X156112324Y-105022020D01*
X156088056Y-105018420D01*
X156064257Y-105012459D01*
X156041158Y-105004194D01*
X156018979Y-104993704D01*
X155997936Y-104981092D01*
X155978230Y-104966477D01*
X155960052Y-104950001D01*
X155500431Y-104490380D01*
X155483955Y-104472202D01*
X155469340Y-104452496D01*
X155456728Y-104431453D01*
X155446238Y-104409274D01*
X155437973Y-104386175D01*
X155432012Y-104362376D01*
X155428412Y-104338108D01*
X155427208Y-104313604D01*
X155428412Y-104289100D01*
X155432012Y-104264832D01*
X155437973Y-104241033D01*
X155446238Y-104217934D01*
X155456728Y-104195755D01*
X155469340Y-104174712D01*
X155483955Y-104155006D01*
X155500431Y-104136828D01*
X156136828Y-103500431D01*
X156155006Y-103483955D01*
X156174712Y-103469340D01*
X156195755Y-103456728D01*
X156217934Y-103446238D01*
X156241033Y-103437973D01*
X156264832Y-103432012D01*
X156289100Y-103428412D01*
X156313604Y-103427208D01*
X156338108Y-103428412D01*
X156338108Y-103428412D01*
G37*
D11*
X156225216Y-104225216D03*
D10*
G36*
X157787676Y-104877980D02*
G01*
X157811944Y-104881580D01*
X157835743Y-104887541D01*
X157858842Y-104895806D01*
X157881021Y-104906296D01*
X157902064Y-104918908D01*
X157921770Y-104933523D01*
X157939948Y-104949999D01*
X158399569Y-105409620D01*
X158416045Y-105427798D01*
X158430660Y-105447504D01*
X158443272Y-105468547D01*
X158453762Y-105490726D01*
X158462027Y-105513825D01*
X158467988Y-105537624D01*
X158471588Y-105561892D01*
X158472792Y-105586396D01*
X158471588Y-105610900D01*
X158467988Y-105635168D01*
X158462027Y-105658967D01*
X158453762Y-105682066D01*
X158443272Y-105704245D01*
X158430660Y-105725288D01*
X158416045Y-105744994D01*
X158399569Y-105763172D01*
X157763172Y-106399569D01*
X157744994Y-106416045D01*
X157725288Y-106430660D01*
X157704245Y-106443272D01*
X157682066Y-106453762D01*
X157658967Y-106462027D01*
X157635168Y-106467988D01*
X157610900Y-106471588D01*
X157586396Y-106472792D01*
X157561892Y-106471588D01*
X157537624Y-106467988D01*
X157513825Y-106462027D01*
X157490726Y-106453762D01*
X157468547Y-106443272D01*
X157447504Y-106430660D01*
X157427798Y-106416045D01*
X157409620Y-106399569D01*
X156949999Y-105939948D01*
X156933523Y-105921770D01*
X156918908Y-105902064D01*
X156906296Y-105881021D01*
X156895806Y-105858842D01*
X156887541Y-105835743D01*
X156881580Y-105811944D01*
X156877980Y-105787676D01*
X156876776Y-105763172D01*
X156877980Y-105738668D01*
X156881580Y-105714400D01*
X156887541Y-105690601D01*
X156895806Y-105667502D01*
X156906296Y-105645323D01*
X156918908Y-105624280D01*
X156933523Y-105604574D01*
X156949999Y-105586396D01*
X157586396Y-104949999D01*
X157604574Y-104933523D01*
X157624280Y-104918908D01*
X157645323Y-104906296D01*
X157667502Y-104895806D01*
X157690601Y-104887541D01*
X157714400Y-104881580D01*
X157738668Y-104877980D01*
X157763172Y-104876776D01*
X157787676Y-104877980D01*
X157787676Y-104877980D01*
G37*
D11*
X157674784Y-105674784D03*
D10*
G36*
X147012908Y-112880012D02*
G01*
X147037176Y-112883612D01*
X147060975Y-112889573D01*
X147084074Y-112897838D01*
X147106253Y-112908328D01*
X147127296Y-112920940D01*
X147147002Y-112935555D01*
X147165180Y-112952031D01*
X147624801Y-113411652D01*
X147641277Y-113429830D01*
X147655892Y-113449536D01*
X147668504Y-113470579D01*
X147678994Y-113492758D01*
X147687259Y-113515857D01*
X147693220Y-113539656D01*
X147696820Y-113563924D01*
X147698024Y-113588428D01*
X147696820Y-113612932D01*
X147693220Y-113637200D01*
X147687259Y-113660999D01*
X147678994Y-113684098D01*
X147668504Y-113706277D01*
X147655892Y-113727320D01*
X147641277Y-113747026D01*
X147624801Y-113765204D01*
X146988404Y-114401601D01*
X146970226Y-114418077D01*
X146950520Y-114432692D01*
X146929477Y-114445304D01*
X146907298Y-114455794D01*
X146884199Y-114464059D01*
X146860400Y-114470020D01*
X146836132Y-114473620D01*
X146811628Y-114474824D01*
X146787124Y-114473620D01*
X146762856Y-114470020D01*
X146739057Y-114464059D01*
X146715958Y-114455794D01*
X146693779Y-114445304D01*
X146672736Y-114432692D01*
X146653030Y-114418077D01*
X146634852Y-114401601D01*
X146175231Y-113941980D01*
X146158755Y-113923802D01*
X146144140Y-113904096D01*
X146131528Y-113883053D01*
X146121038Y-113860874D01*
X146112773Y-113837775D01*
X146106812Y-113813976D01*
X146103212Y-113789708D01*
X146102008Y-113765204D01*
X146103212Y-113740700D01*
X146106812Y-113716432D01*
X146112773Y-113692633D01*
X146121038Y-113669534D01*
X146131528Y-113647355D01*
X146144140Y-113626312D01*
X146158755Y-113606606D01*
X146175231Y-113588428D01*
X146811628Y-112952031D01*
X146829806Y-112935555D01*
X146849512Y-112920940D01*
X146870555Y-112908328D01*
X146892734Y-112897838D01*
X146915833Y-112889573D01*
X146939632Y-112883612D01*
X146963900Y-112880012D01*
X146988404Y-112878808D01*
X147012908Y-112880012D01*
X147012908Y-112880012D01*
G37*
D11*
X146900016Y-113676816D03*
D10*
G36*
X148462476Y-114329580D02*
G01*
X148486744Y-114333180D01*
X148510543Y-114339141D01*
X148533642Y-114347406D01*
X148555821Y-114357896D01*
X148576864Y-114370508D01*
X148596570Y-114385123D01*
X148614748Y-114401599D01*
X149074369Y-114861220D01*
X149090845Y-114879398D01*
X149105460Y-114899104D01*
X149118072Y-114920147D01*
X149128562Y-114942326D01*
X149136827Y-114965425D01*
X149142788Y-114989224D01*
X149146388Y-115013492D01*
X149147592Y-115037996D01*
X149146388Y-115062500D01*
X149142788Y-115086768D01*
X149136827Y-115110567D01*
X149128562Y-115133666D01*
X149118072Y-115155845D01*
X149105460Y-115176888D01*
X149090845Y-115196594D01*
X149074369Y-115214772D01*
X148437972Y-115851169D01*
X148419794Y-115867645D01*
X148400088Y-115882260D01*
X148379045Y-115894872D01*
X148356866Y-115905362D01*
X148333767Y-115913627D01*
X148309968Y-115919588D01*
X148285700Y-115923188D01*
X148261196Y-115924392D01*
X148236692Y-115923188D01*
X148212424Y-115919588D01*
X148188625Y-115913627D01*
X148165526Y-115905362D01*
X148143347Y-115894872D01*
X148122304Y-115882260D01*
X148102598Y-115867645D01*
X148084420Y-115851169D01*
X147624799Y-115391548D01*
X147608323Y-115373370D01*
X147593708Y-115353664D01*
X147581096Y-115332621D01*
X147570606Y-115310442D01*
X147562341Y-115287343D01*
X147556380Y-115263544D01*
X147552780Y-115239276D01*
X147551576Y-115214772D01*
X147552780Y-115190268D01*
X147556380Y-115166000D01*
X147562341Y-115142201D01*
X147570606Y-115119102D01*
X147581096Y-115096923D01*
X147593708Y-115075880D01*
X147608323Y-115056174D01*
X147624799Y-115037996D01*
X148261196Y-114401599D01*
X148279374Y-114385123D01*
X148299080Y-114370508D01*
X148320123Y-114357896D01*
X148342302Y-114347406D01*
X148365401Y-114339141D01*
X148389200Y-114333180D01*
X148413468Y-114329580D01*
X148437972Y-114328376D01*
X148462476Y-114329580D01*
X148462476Y-114329580D01*
G37*
D11*
X148349584Y-115126384D03*
D10*
G36*
X149274505Y-102451204D02*
G01*
X149298773Y-102454804D01*
X149322572Y-102460765D01*
X149345671Y-102469030D01*
X149367850Y-102479520D01*
X149388893Y-102492132D01*
X149408599Y-102506747D01*
X149426777Y-102523223D01*
X149443253Y-102541401D01*
X149457868Y-102561107D01*
X149470480Y-102582150D01*
X149480970Y-102604329D01*
X149489235Y-102627428D01*
X149495196Y-102651227D01*
X149498796Y-102675495D01*
X149500000Y-102699999D01*
X149500000Y-103350001D01*
X149498796Y-103374505D01*
X149495196Y-103398773D01*
X149489235Y-103422572D01*
X149480970Y-103445671D01*
X149470480Y-103467850D01*
X149457868Y-103488893D01*
X149443253Y-103508599D01*
X149426777Y-103526777D01*
X149408599Y-103543253D01*
X149388893Y-103557868D01*
X149367850Y-103570480D01*
X149345671Y-103580970D01*
X149322572Y-103589235D01*
X149298773Y-103595196D01*
X149274505Y-103598796D01*
X149250001Y-103600000D01*
X148349999Y-103600000D01*
X148325495Y-103598796D01*
X148301227Y-103595196D01*
X148277428Y-103589235D01*
X148254329Y-103580970D01*
X148232150Y-103570480D01*
X148211107Y-103557868D01*
X148191401Y-103543253D01*
X148173223Y-103526777D01*
X148156747Y-103508599D01*
X148142132Y-103488893D01*
X148129520Y-103467850D01*
X148119030Y-103445671D01*
X148110765Y-103422572D01*
X148104804Y-103398773D01*
X148101204Y-103374505D01*
X148100000Y-103350001D01*
X148100000Y-102699999D01*
X148101204Y-102675495D01*
X148104804Y-102651227D01*
X148110765Y-102627428D01*
X148119030Y-102604329D01*
X148129520Y-102582150D01*
X148142132Y-102561107D01*
X148156747Y-102541401D01*
X148173223Y-102523223D01*
X148191401Y-102506747D01*
X148211107Y-102492132D01*
X148232150Y-102479520D01*
X148254329Y-102469030D01*
X148277428Y-102460765D01*
X148301227Y-102454804D01*
X148325495Y-102451204D01*
X148349999Y-102450000D01*
X149250001Y-102450000D01*
X149274505Y-102451204D01*
X149274505Y-102451204D01*
G37*
D11*
X148800000Y-103025000D03*
D10*
G36*
X149274505Y-100401204D02*
G01*
X149298773Y-100404804D01*
X149322572Y-100410765D01*
X149345671Y-100419030D01*
X149367850Y-100429520D01*
X149388893Y-100442132D01*
X149408599Y-100456747D01*
X149426777Y-100473223D01*
X149443253Y-100491401D01*
X149457868Y-100511107D01*
X149470480Y-100532150D01*
X149480970Y-100554329D01*
X149489235Y-100577428D01*
X149495196Y-100601227D01*
X149498796Y-100625495D01*
X149500000Y-100649999D01*
X149500000Y-101300001D01*
X149498796Y-101324505D01*
X149495196Y-101348773D01*
X149489235Y-101372572D01*
X149480970Y-101395671D01*
X149470480Y-101417850D01*
X149457868Y-101438893D01*
X149443253Y-101458599D01*
X149426777Y-101476777D01*
X149408599Y-101493253D01*
X149388893Y-101507868D01*
X149367850Y-101520480D01*
X149345671Y-101530970D01*
X149322572Y-101539235D01*
X149298773Y-101545196D01*
X149274505Y-101548796D01*
X149250001Y-101550000D01*
X148349999Y-101550000D01*
X148325495Y-101548796D01*
X148301227Y-101545196D01*
X148277428Y-101539235D01*
X148254329Y-101530970D01*
X148232150Y-101520480D01*
X148211107Y-101507868D01*
X148191401Y-101493253D01*
X148173223Y-101476777D01*
X148156747Y-101458599D01*
X148142132Y-101438893D01*
X148129520Y-101417850D01*
X148119030Y-101395671D01*
X148110765Y-101372572D01*
X148104804Y-101348773D01*
X148101204Y-101324505D01*
X148100000Y-101300001D01*
X148100000Y-100649999D01*
X148101204Y-100625495D01*
X148104804Y-100601227D01*
X148110765Y-100577428D01*
X148119030Y-100554329D01*
X148129520Y-100532150D01*
X148142132Y-100511107D01*
X148156747Y-100491401D01*
X148173223Y-100473223D01*
X148191401Y-100456747D01*
X148211107Y-100442132D01*
X148232150Y-100429520D01*
X148254329Y-100419030D01*
X148277428Y-100410765D01*
X148301227Y-100404804D01*
X148325495Y-100401204D01*
X148349999Y-100400000D01*
X149250001Y-100400000D01*
X149274505Y-100401204D01*
X149274505Y-100401204D01*
G37*
D11*
X148800000Y-100975000D03*
D10*
G36*
X149324505Y-116976204D02*
G01*
X149348773Y-116979804D01*
X149372572Y-116985765D01*
X149395671Y-116994030D01*
X149417850Y-117004520D01*
X149438893Y-117017132D01*
X149458599Y-117031747D01*
X149476777Y-117048223D01*
X149493253Y-117066401D01*
X149507868Y-117086107D01*
X149520480Y-117107150D01*
X149530970Y-117129329D01*
X149539235Y-117152428D01*
X149545196Y-117176227D01*
X149548796Y-117200495D01*
X149550000Y-117224999D01*
X149550000Y-118125001D01*
X149548796Y-118149505D01*
X149545196Y-118173773D01*
X149539235Y-118197572D01*
X149530970Y-118220671D01*
X149520480Y-118242850D01*
X149507868Y-118263893D01*
X149493253Y-118283599D01*
X149476777Y-118301777D01*
X149458599Y-118318253D01*
X149438893Y-118332868D01*
X149417850Y-118345480D01*
X149395671Y-118355970D01*
X149372572Y-118364235D01*
X149348773Y-118370196D01*
X149324505Y-118373796D01*
X149300001Y-118375000D01*
X148649999Y-118375000D01*
X148625495Y-118373796D01*
X148601227Y-118370196D01*
X148577428Y-118364235D01*
X148554329Y-118355970D01*
X148532150Y-118345480D01*
X148511107Y-118332868D01*
X148491401Y-118318253D01*
X148473223Y-118301777D01*
X148456747Y-118283599D01*
X148442132Y-118263893D01*
X148429520Y-118242850D01*
X148419030Y-118220671D01*
X148410765Y-118197572D01*
X148404804Y-118173773D01*
X148401204Y-118149505D01*
X148400000Y-118125001D01*
X148400000Y-117224999D01*
X148401204Y-117200495D01*
X148404804Y-117176227D01*
X148410765Y-117152428D01*
X148419030Y-117129329D01*
X148429520Y-117107150D01*
X148442132Y-117086107D01*
X148456747Y-117066401D01*
X148473223Y-117048223D01*
X148491401Y-117031747D01*
X148511107Y-117017132D01*
X148532150Y-117004520D01*
X148554329Y-116994030D01*
X148577428Y-116985765D01*
X148601227Y-116979804D01*
X148625495Y-116976204D01*
X148649999Y-116975000D01*
X149300001Y-116975000D01*
X149324505Y-116976204D01*
X149324505Y-116976204D01*
G37*
D11*
X148975000Y-117675000D03*
D10*
G36*
X147274505Y-116976204D02*
G01*
X147298773Y-116979804D01*
X147322572Y-116985765D01*
X147345671Y-116994030D01*
X147367850Y-117004520D01*
X147388893Y-117017132D01*
X147408599Y-117031747D01*
X147426777Y-117048223D01*
X147443253Y-117066401D01*
X147457868Y-117086107D01*
X147470480Y-117107150D01*
X147480970Y-117129329D01*
X147489235Y-117152428D01*
X147495196Y-117176227D01*
X147498796Y-117200495D01*
X147500000Y-117224999D01*
X147500000Y-118125001D01*
X147498796Y-118149505D01*
X147495196Y-118173773D01*
X147489235Y-118197572D01*
X147480970Y-118220671D01*
X147470480Y-118242850D01*
X147457868Y-118263893D01*
X147443253Y-118283599D01*
X147426777Y-118301777D01*
X147408599Y-118318253D01*
X147388893Y-118332868D01*
X147367850Y-118345480D01*
X147345671Y-118355970D01*
X147322572Y-118364235D01*
X147298773Y-118370196D01*
X147274505Y-118373796D01*
X147250001Y-118375000D01*
X146599999Y-118375000D01*
X146575495Y-118373796D01*
X146551227Y-118370196D01*
X146527428Y-118364235D01*
X146504329Y-118355970D01*
X146482150Y-118345480D01*
X146461107Y-118332868D01*
X146441401Y-118318253D01*
X146423223Y-118301777D01*
X146406747Y-118283599D01*
X146392132Y-118263893D01*
X146379520Y-118242850D01*
X146369030Y-118220671D01*
X146360765Y-118197572D01*
X146354804Y-118173773D01*
X146351204Y-118149505D01*
X146350000Y-118125001D01*
X146350000Y-117224999D01*
X146351204Y-117200495D01*
X146354804Y-117176227D01*
X146360765Y-117152428D01*
X146369030Y-117129329D01*
X146379520Y-117107150D01*
X146392132Y-117086107D01*
X146406747Y-117066401D01*
X146423223Y-117048223D01*
X146441401Y-117031747D01*
X146461107Y-117017132D01*
X146482150Y-117004520D01*
X146504329Y-116994030D01*
X146527428Y-116985765D01*
X146551227Y-116979804D01*
X146575495Y-116976204D01*
X146599999Y-116975000D01*
X147250001Y-116975000D01*
X147274505Y-116976204D01*
X147274505Y-116976204D01*
G37*
D11*
X146925000Y-117675000D03*
D12*
X163372800Y-112268000D03*
X163372800Y-109702600D03*
X163372800Y-107111800D03*
D13*
X151425495Y-104768297D03*
D10*
G36*
X152185635Y-105139528D02*
G01*
X151796726Y-105528437D01*
X150665355Y-104397066D01*
X151054264Y-104008157D01*
X152185635Y-105139528D01*
X152185635Y-105139528D01*
G37*
D13*
X150859810Y-105333983D03*
D10*
G36*
X151619950Y-105705214D02*
G01*
X151231041Y-106094123D01*
X150099670Y-104962752D01*
X150488579Y-104573843D01*
X151619950Y-105705214D01*
X151619950Y-105705214D01*
G37*
D13*
X150294124Y-105899668D03*
D10*
G36*
X151054264Y-106270899D02*
G01*
X150665355Y-106659808D01*
X149533984Y-105528437D01*
X149922893Y-105139528D01*
X151054264Y-106270899D01*
X151054264Y-106270899D01*
G37*
D13*
X149728439Y-106465353D03*
D10*
G36*
X150488579Y-106836584D02*
G01*
X150099670Y-107225493D01*
X148968299Y-106094122D01*
X149357208Y-105705213D01*
X150488579Y-106836584D01*
X150488579Y-106836584D01*
G37*
D13*
X149162753Y-107031039D03*
D10*
G36*
X149922893Y-107402270D02*
G01*
X149533984Y-107791179D01*
X148402613Y-106659808D01*
X148791522Y-106270899D01*
X149922893Y-107402270D01*
X149922893Y-107402270D01*
G37*
D13*
X148597068Y-107596724D03*
D10*
G36*
X149357208Y-107967955D02*
G01*
X148968299Y-108356864D01*
X147836928Y-107225493D01*
X148225837Y-106836584D01*
X149357208Y-107967955D01*
X149357208Y-107967955D01*
G37*
D13*
X148031383Y-108162410D03*
D10*
G36*
X148791523Y-108533641D02*
G01*
X148402614Y-108922550D01*
X147271243Y-107791179D01*
X147660152Y-107402270D01*
X148791523Y-108533641D01*
X148791523Y-108533641D01*
G37*
D13*
X147465697Y-108728095D03*
D10*
G36*
X148225837Y-109099326D02*
G01*
X147836928Y-109488235D01*
X146705557Y-108356864D01*
X147094466Y-107967955D01*
X148225837Y-109099326D01*
X148225837Y-109099326D01*
G37*
D13*
X147465697Y-110778705D03*
D10*
G36*
X147836928Y-110018565D02*
G01*
X148225837Y-110407474D01*
X147094466Y-111538845D01*
X146705557Y-111149936D01*
X147836928Y-110018565D01*
X147836928Y-110018565D01*
G37*
D13*
X148031383Y-111344390D03*
D10*
G36*
X148402614Y-110584250D02*
G01*
X148791523Y-110973159D01*
X147660152Y-112104530D01*
X147271243Y-111715621D01*
X148402614Y-110584250D01*
X148402614Y-110584250D01*
G37*
D13*
X148597068Y-111910076D03*
D10*
G36*
X148968299Y-111149936D02*
G01*
X149357208Y-111538845D01*
X148225837Y-112670216D01*
X147836928Y-112281307D01*
X148968299Y-111149936D01*
X148968299Y-111149936D01*
G37*
D13*
X149162753Y-112475761D03*
D10*
G36*
X149533984Y-111715621D02*
G01*
X149922893Y-112104530D01*
X148791522Y-113235901D01*
X148402613Y-112846992D01*
X149533984Y-111715621D01*
X149533984Y-111715621D01*
G37*
D13*
X149728439Y-113041447D03*
D10*
G36*
X150099670Y-112281307D02*
G01*
X150488579Y-112670216D01*
X149357208Y-113801587D01*
X148968299Y-113412678D01*
X150099670Y-112281307D01*
X150099670Y-112281307D01*
G37*
D13*
X150294124Y-113607132D03*
D10*
G36*
X150665355Y-112846992D02*
G01*
X151054264Y-113235901D01*
X149922893Y-114367272D01*
X149533984Y-113978363D01*
X150665355Y-112846992D01*
X150665355Y-112846992D01*
G37*
D13*
X150859810Y-114172817D03*
D10*
G36*
X151231041Y-113412677D02*
G01*
X151619950Y-113801586D01*
X150488579Y-114932957D01*
X150099670Y-114544048D01*
X151231041Y-113412677D01*
X151231041Y-113412677D01*
G37*
D13*
X151425495Y-114738503D03*
D10*
G36*
X151796726Y-113978363D02*
G01*
X152185635Y-114367272D01*
X151054264Y-115498643D01*
X150665355Y-115109734D01*
X151796726Y-113978363D01*
X151796726Y-113978363D01*
G37*
D13*
X153476105Y-114738503D03*
D10*
G36*
X154236245Y-115109734D02*
G01*
X153847336Y-115498643D01*
X152715965Y-114367272D01*
X153104874Y-113978363D01*
X154236245Y-115109734D01*
X154236245Y-115109734D01*
G37*
D13*
X154041790Y-114172817D03*
D10*
G36*
X154801930Y-114544048D02*
G01*
X154413021Y-114932957D01*
X153281650Y-113801586D01*
X153670559Y-113412677D01*
X154801930Y-114544048D01*
X154801930Y-114544048D01*
G37*
D13*
X154607476Y-113607132D03*
D10*
G36*
X155367616Y-113978363D02*
G01*
X154978707Y-114367272D01*
X153847336Y-113235901D01*
X154236245Y-112846992D01*
X155367616Y-113978363D01*
X155367616Y-113978363D01*
G37*
D13*
X155173161Y-113041447D03*
D10*
G36*
X155933301Y-113412678D02*
G01*
X155544392Y-113801587D01*
X154413021Y-112670216D01*
X154801930Y-112281307D01*
X155933301Y-113412678D01*
X155933301Y-113412678D01*
G37*
D13*
X155738847Y-112475761D03*
D10*
G36*
X156498987Y-112846992D02*
G01*
X156110078Y-113235901D01*
X154978707Y-112104530D01*
X155367616Y-111715621D01*
X156498987Y-112846992D01*
X156498987Y-112846992D01*
G37*
D13*
X156304532Y-111910076D03*
D10*
G36*
X157064672Y-112281307D02*
G01*
X156675763Y-112670216D01*
X155544392Y-111538845D01*
X155933301Y-111149936D01*
X157064672Y-112281307D01*
X157064672Y-112281307D01*
G37*
D13*
X156870217Y-111344390D03*
D10*
G36*
X157630357Y-111715621D02*
G01*
X157241448Y-112104530D01*
X156110077Y-110973159D01*
X156498986Y-110584250D01*
X157630357Y-111715621D01*
X157630357Y-111715621D01*
G37*
D13*
X157435903Y-110778705D03*
D10*
G36*
X158196043Y-111149936D02*
G01*
X157807134Y-111538845D01*
X156675763Y-110407474D01*
X157064672Y-110018565D01*
X158196043Y-111149936D01*
X158196043Y-111149936D01*
G37*
D13*
X157435903Y-108728095D03*
D10*
G36*
X157807134Y-107967955D02*
G01*
X158196043Y-108356864D01*
X157064672Y-109488235D01*
X156675763Y-109099326D01*
X157807134Y-107967955D01*
X157807134Y-107967955D01*
G37*
D13*
X156870217Y-108162410D03*
D10*
G36*
X157241448Y-107402270D02*
G01*
X157630357Y-107791179D01*
X156498986Y-108922550D01*
X156110077Y-108533641D01*
X157241448Y-107402270D01*
X157241448Y-107402270D01*
G37*
D13*
X156304532Y-107596724D03*
D10*
G36*
X156675763Y-106836584D02*
G01*
X157064672Y-107225493D01*
X155933301Y-108356864D01*
X155544392Y-107967955D01*
X156675763Y-106836584D01*
X156675763Y-106836584D01*
G37*
D13*
X155738847Y-107031039D03*
D10*
G36*
X156110078Y-106270899D02*
G01*
X156498987Y-106659808D01*
X155367616Y-107791179D01*
X154978707Y-107402270D01*
X156110078Y-106270899D01*
X156110078Y-106270899D01*
G37*
D13*
X155173161Y-106465353D03*
D10*
G36*
X155544392Y-105705213D02*
G01*
X155933301Y-106094122D01*
X154801930Y-107225493D01*
X154413021Y-106836584D01*
X155544392Y-105705213D01*
X155544392Y-105705213D01*
G37*
D13*
X154607476Y-105899668D03*
D10*
G36*
X154978707Y-105139528D02*
G01*
X155367616Y-105528437D01*
X154236245Y-106659808D01*
X153847336Y-106270899D01*
X154978707Y-105139528D01*
X154978707Y-105139528D01*
G37*
D13*
X154041790Y-105333983D03*
D10*
G36*
X154413021Y-104573843D02*
G01*
X154801930Y-104962752D01*
X153670559Y-106094123D01*
X153281650Y-105705214D01*
X154413021Y-104573843D01*
X154413021Y-104573843D01*
G37*
D13*
X153476105Y-104768297D03*
D10*
G36*
X153847336Y-104008157D02*
G01*
X154236245Y-104397066D01*
X153104874Y-105528437D01*
X152715965Y-105139528D01*
X153847336Y-104008157D01*
X153847336Y-104008157D01*
G37*
M02*
