G04 #@! TF.GenerationSoftware,KiCad,Pcbnew,(5.0.2)-1*
G04 #@! TF.CreationDate,2019-01-20T16:15:56+01:00*
G04 #@! TF.ProjectId,HM-LC-Sw1-Pl-DN-R1_S26,484d2d4c-432d-4537-9731-2d506c2d444e,rev?*
G04 #@! TF.SameCoordinates,Original*
G04 #@! TF.FileFunction,Soldermask,Bot*
G04 #@! TF.FilePolarity,Negative*
%FSLAX46Y46*%
G04 Gerber Fmt 4.6, Leading zero omitted, Abs format (unit mm)*
G04 Created by KiCad (PCBNEW (5.0.2)-1) date 20.01.2019 16:15:56*
%MOMM*%
%LPD*%
G01*
G04 APERTURE LIST*
%ADD10C,0.100000*%
G04 APERTURE END LIST*
D10*
G36*
X160152554Y-118839656D02*
X160205684Y-118850224D01*
X160355824Y-118912414D01*
X160490036Y-119002092D01*
X160490950Y-119002703D01*
X160605857Y-119117610D01*
X160605859Y-119117613D01*
X160696146Y-119252736D01*
X160758336Y-119402876D01*
X160790040Y-119562265D01*
X160790040Y-119724775D01*
X160758336Y-119884164D01*
X160696146Y-120034304D01*
X160606468Y-120168516D01*
X160605857Y-120169430D01*
X160490950Y-120284337D01*
X160490947Y-120284339D01*
X160355824Y-120374626D01*
X160205684Y-120436816D01*
X160152554Y-120447384D01*
X160046297Y-120468520D01*
X159883783Y-120468520D01*
X159777526Y-120447384D01*
X159724396Y-120436816D01*
X159574256Y-120374626D01*
X159439133Y-120284339D01*
X159439130Y-120284337D01*
X159324223Y-120169430D01*
X159323612Y-120168516D01*
X159233934Y-120034304D01*
X159171744Y-119884164D01*
X159140040Y-119724775D01*
X159140040Y-119562265D01*
X159171744Y-119402876D01*
X159233934Y-119252736D01*
X159324221Y-119117613D01*
X159324223Y-119117610D01*
X159439130Y-119002703D01*
X159440044Y-119002092D01*
X159574256Y-118912414D01*
X159724396Y-118850224D01*
X159777526Y-118839656D01*
X159883783Y-118818520D01*
X160046297Y-118818520D01*
X160152554Y-118839656D01*
X160152554Y-118839656D01*
G37*
G36*
X158152554Y-118839656D02*
X158205684Y-118850224D01*
X158355824Y-118912414D01*
X158490036Y-119002092D01*
X158490950Y-119002703D01*
X158605857Y-119117610D01*
X158605859Y-119117613D01*
X158696146Y-119252736D01*
X158758336Y-119402876D01*
X158790040Y-119562265D01*
X158790040Y-119724775D01*
X158758336Y-119884164D01*
X158696146Y-120034304D01*
X158606468Y-120168516D01*
X158605857Y-120169430D01*
X158490950Y-120284337D01*
X158490947Y-120284339D01*
X158355824Y-120374626D01*
X158205684Y-120436816D01*
X158152554Y-120447384D01*
X158046297Y-120468520D01*
X157883783Y-120468520D01*
X157777526Y-120447384D01*
X157724396Y-120436816D01*
X157574256Y-120374626D01*
X157439133Y-120284339D01*
X157439130Y-120284337D01*
X157324223Y-120169430D01*
X157323612Y-120168516D01*
X157233934Y-120034304D01*
X157171744Y-119884164D01*
X157140040Y-119724775D01*
X157140040Y-119562265D01*
X157171744Y-119402876D01*
X157233934Y-119252736D01*
X157324221Y-119117613D01*
X157324223Y-119117610D01*
X157439130Y-119002703D01*
X157440044Y-119002092D01*
X157574256Y-118912414D01*
X157724396Y-118850224D01*
X157777526Y-118839656D01*
X157883783Y-118818520D01*
X158046297Y-118818520D01*
X158152554Y-118839656D01*
X158152554Y-118839656D01*
G37*
G36*
X156152554Y-118839656D02*
X156205684Y-118850224D01*
X156355824Y-118912414D01*
X156490036Y-119002092D01*
X156490950Y-119002703D01*
X156605857Y-119117610D01*
X156605859Y-119117613D01*
X156696146Y-119252736D01*
X156758336Y-119402876D01*
X156790040Y-119562265D01*
X156790040Y-119724775D01*
X156758336Y-119884164D01*
X156696146Y-120034304D01*
X156606468Y-120168516D01*
X156605857Y-120169430D01*
X156490950Y-120284337D01*
X156490947Y-120284339D01*
X156355824Y-120374626D01*
X156205684Y-120436816D01*
X156152554Y-120447384D01*
X156046297Y-120468520D01*
X155883783Y-120468520D01*
X155777526Y-120447384D01*
X155724396Y-120436816D01*
X155574256Y-120374626D01*
X155439133Y-120284339D01*
X155439130Y-120284337D01*
X155324223Y-120169430D01*
X155323612Y-120168516D01*
X155233934Y-120034304D01*
X155171744Y-119884164D01*
X155140040Y-119724775D01*
X155140040Y-119562265D01*
X155171744Y-119402876D01*
X155233934Y-119252736D01*
X155324221Y-119117613D01*
X155324223Y-119117610D01*
X155439130Y-119002703D01*
X155440044Y-119002092D01*
X155574256Y-118912414D01*
X155724396Y-118850224D01*
X155777526Y-118839656D01*
X155883783Y-118818520D01*
X156046297Y-118818520D01*
X156152554Y-118839656D01*
X156152554Y-118839656D01*
G37*
G36*
X154152554Y-118839656D02*
X154205684Y-118850224D01*
X154355824Y-118912414D01*
X154490036Y-119002092D01*
X154490950Y-119002703D01*
X154605857Y-119117610D01*
X154605859Y-119117613D01*
X154696146Y-119252736D01*
X154758336Y-119402876D01*
X154790040Y-119562265D01*
X154790040Y-119724775D01*
X154758336Y-119884164D01*
X154696146Y-120034304D01*
X154606468Y-120168516D01*
X154605857Y-120169430D01*
X154490950Y-120284337D01*
X154490947Y-120284339D01*
X154355824Y-120374626D01*
X154205684Y-120436816D01*
X154152554Y-120447384D01*
X154046297Y-120468520D01*
X153883783Y-120468520D01*
X153777526Y-120447384D01*
X153724396Y-120436816D01*
X153574256Y-120374626D01*
X153439133Y-120284339D01*
X153439130Y-120284337D01*
X153324223Y-120169430D01*
X153323612Y-120168516D01*
X153233934Y-120034304D01*
X153171744Y-119884164D01*
X153140040Y-119724775D01*
X153140040Y-119562265D01*
X153171744Y-119402876D01*
X153233934Y-119252736D01*
X153324221Y-119117613D01*
X153324223Y-119117610D01*
X153439130Y-119002703D01*
X153440044Y-119002092D01*
X153574256Y-118912414D01*
X153724396Y-118850224D01*
X153777526Y-118839656D01*
X153883783Y-118818520D01*
X154046297Y-118818520D01*
X154152554Y-118839656D01*
X154152554Y-118839656D01*
G37*
G36*
X152152554Y-118839656D02*
X152205684Y-118850224D01*
X152355824Y-118912414D01*
X152490036Y-119002092D01*
X152490950Y-119002703D01*
X152605857Y-119117610D01*
X152605859Y-119117613D01*
X152696146Y-119252736D01*
X152758336Y-119402876D01*
X152790040Y-119562265D01*
X152790040Y-119724775D01*
X152758336Y-119884164D01*
X152696146Y-120034304D01*
X152606468Y-120168516D01*
X152605857Y-120169430D01*
X152490950Y-120284337D01*
X152490947Y-120284339D01*
X152355824Y-120374626D01*
X152205684Y-120436816D01*
X152152554Y-120447384D01*
X152046297Y-120468520D01*
X151883783Y-120468520D01*
X151777526Y-120447384D01*
X151724396Y-120436816D01*
X151574256Y-120374626D01*
X151439133Y-120284339D01*
X151439130Y-120284337D01*
X151324223Y-120169430D01*
X151323612Y-120168516D01*
X151233934Y-120034304D01*
X151171744Y-119884164D01*
X151140040Y-119724775D01*
X151140040Y-119562265D01*
X151171744Y-119402876D01*
X151233934Y-119252736D01*
X151324221Y-119117613D01*
X151324223Y-119117610D01*
X151439130Y-119002703D01*
X151440044Y-119002092D01*
X151574256Y-118912414D01*
X151724396Y-118850224D01*
X151777526Y-118839656D01*
X151883783Y-118818520D01*
X152046297Y-118818520D01*
X152152554Y-118839656D01*
X152152554Y-118839656D01*
G37*
G36*
X150152554Y-118839656D02*
X150205684Y-118850224D01*
X150355824Y-118912414D01*
X150490036Y-119002092D01*
X150490950Y-119002703D01*
X150605857Y-119117610D01*
X150605859Y-119117613D01*
X150696146Y-119252736D01*
X150758336Y-119402876D01*
X150790040Y-119562265D01*
X150790040Y-119724775D01*
X150758336Y-119884164D01*
X150696146Y-120034304D01*
X150606468Y-120168516D01*
X150605857Y-120169430D01*
X150490950Y-120284337D01*
X150490947Y-120284339D01*
X150355824Y-120374626D01*
X150205684Y-120436816D01*
X150152554Y-120447384D01*
X150046297Y-120468520D01*
X149883783Y-120468520D01*
X149777526Y-120447384D01*
X149724396Y-120436816D01*
X149574256Y-120374626D01*
X149439133Y-120284339D01*
X149439130Y-120284337D01*
X149324223Y-120169430D01*
X149323612Y-120168516D01*
X149233934Y-120034304D01*
X149171744Y-119884164D01*
X149140040Y-119724775D01*
X149140040Y-119562265D01*
X149171744Y-119402876D01*
X149233934Y-119252736D01*
X149324221Y-119117613D01*
X149324223Y-119117610D01*
X149439130Y-119002703D01*
X149440044Y-119002092D01*
X149574256Y-118912414D01*
X149724396Y-118850224D01*
X149777526Y-118839656D01*
X149883783Y-118818520D01*
X150046297Y-118818520D01*
X150152554Y-118839656D01*
X150152554Y-118839656D01*
G37*
G36*
X148394333Y-117332917D02*
X148441120Y-117347109D01*
X148484238Y-117370157D01*
X148522029Y-117401171D01*
X148553043Y-117438962D01*
X148576091Y-117482080D01*
X148590283Y-117528867D01*
X148595680Y-117583661D01*
X148595680Y-118321379D01*
X148590283Y-118376173D01*
X148576091Y-118422960D01*
X148553043Y-118466078D01*
X148522029Y-118503869D01*
X148484238Y-118534883D01*
X148441120Y-118557931D01*
X148394333Y-118572123D01*
X148339539Y-118577520D01*
X148103853Y-118577520D01*
X148079467Y-118579922D01*
X148056018Y-118587035D01*
X148034407Y-118598586D01*
X148015465Y-118614132D01*
X147999919Y-118633074D01*
X147988368Y-118654685D01*
X147981255Y-118678134D01*
X147978853Y-118702520D01*
X147981255Y-118726906D01*
X147988368Y-118750355D01*
X147999919Y-118771966D01*
X148015465Y-118790908D01*
X148034407Y-118806454D01*
X148056018Y-118818005D01*
X148079467Y-118825118D01*
X148146983Y-118838548D01*
X148205684Y-118850224D01*
X148355824Y-118912414D01*
X148490036Y-119002092D01*
X148490950Y-119002703D01*
X148605857Y-119117610D01*
X148605859Y-119117613D01*
X148696146Y-119252736D01*
X148758336Y-119402876D01*
X148790040Y-119562265D01*
X148790040Y-119724775D01*
X148758336Y-119884164D01*
X148696146Y-120034304D01*
X148606468Y-120168516D01*
X148605857Y-120169430D01*
X148490950Y-120284337D01*
X148490947Y-120284339D01*
X148355824Y-120374626D01*
X148205684Y-120436816D01*
X148152554Y-120447384D01*
X148046297Y-120468520D01*
X147883783Y-120468520D01*
X147777526Y-120447384D01*
X147724396Y-120436816D01*
X147574256Y-120374626D01*
X147439133Y-120284339D01*
X147439130Y-120284337D01*
X147324223Y-120169430D01*
X147323612Y-120168516D01*
X147233934Y-120034304D01*
X147171744Y-119884164D01*
X147140040Y-119724775D01*
X147140040Y-119562265D01*
X147171744Y-119402876D01*
X147233934Y-119252736D01*
X147324221Y-119117613D01*
X147324223Y-119117610D01*
X147439130Y-119002703D01*
X147440044Y-119002092D01*
X147574256Y-118912414D01*
X147724396Y-118850224D01*
X147783097Y-118838548D01*
X147850613Y-118825118D01*
X147874062Y-118818005D01*
X147895673Y-118806454D01*
X147914615Y-118790908D01*
X147930161Y-118771966D01*
X147941712Y-118750355D01*
X147948825Y-118726906D01*
X147951227Y-118702520D01*
X147948825Y-118678134D01*
X147941712Y-118654685D01*
X147930161Y-118633074D01*
X147914615Y-118614132D01*
X147895673Y-118598586D01*
X147874062Y-118587035D01*
X147850613Y-118579922D01*
X147826227Y-118577520D01*
X147501821Y-118577520D01*
X147447027Y-118572123D01*
X147400240Y-118557931D01*
X147357122Y-118534883D01*
X147319331Y-118503869D01*
X147288317Y-118466078D01*
X147265269Y-118422960D01*
X147251077Y-118376173D01*
X147245680Y-118321379D01*
X147245680Y-117583661D01*
X147251077Y-117528867D01*
X147265269Y-117482080D01*
X147288317Y-117438962D01*
X147319331Y-117401171D01*
X147357122Y-117370157D01*
X147400240Y-117347109D01*
X147447027Y-117332917D01*
X147501821Y-117327520D01*
X148339539Y-117327520D01*
X148394333Y-117332917D01*
X148394333Y-117332917D01*
G37*
G36*
X146644333Y-117332917D02*
X146691120Y-117347109D01*
X146734238Y-117370157D01*
X146772029Y-117401171D01*
X146803043Y-117438962D01*
X146826091Y-117482080D01*
X146840283Y-117528867D01*
X146845680Y-117583661D01*
X146845680Y-118321379D01*
X146840283Y-118376173D01*
X146826091Y-118422960D01*
X146803043Y-118466078D01*
X146772029Y-118503869D01*
X146734238Y-118534883D01*
X146691120Y-118557931D01*
X146644333Y-118572123D01*
X146589539Y-118577520D01*
X146103853Y-118577520D01*
X146079467Y-118579922D01*
X146056018Y-118587035D01*
X146034407Y-118598586D01*
X146015465Y-118614132D01*
X145999919Y-118633074D01*
X145988368Y-118654685D01*
X145981255Y-118678134D01*
X145978853Y-118702520D01*
X145981255Y-118726906D01*
X145988368Y-118750355D01*
X145999919Y-118771966D01*
X146015465Y-118790908D01*
X146034407Y-118806454D01*
X146056018Y-118818005D01*
X146079467Y-118825118D01*
X146146983Y-118838548D01*
X146205684Y-118850224D01*
X146355824Y-118912414D01*
X146490036Y-119002092D01*
X146490950Y-119002703D01*
X146605857Y-119117610D01*
X146605859Y-119117613D01*
X146696146Y-119252736D01*
X146758336Y-119402876D01*
X146790040Y-119562265D01*
X146790040Y-119724775D01*
X146758336Y-119884164D01*
X146696146Y-120034304D01*
X146606468Y-120168516D01*
X146605857Y-120169430D01*
X146490950Y-120284337D01*
X146490947Y-120284339D01*
X146355824Y-120374626D01*
X146205684Y-120436816D01*
X146152554Y-120447384D01*
X146046297Y-120468520D01*
X145883783Y-120468520D01*
X145777526Y-120447384D01*
X145724396Y-120436816D01*
X145574256Y-120374626D01*
X145439133Y-120284339D01*
X145439130Y-120284337D01*
X145324223Y-120169430D01*
X145323612Y-120168516D01*
X145233934Y-120034304D01*
X145171744Y-119884164D01*
X145140040Y-119724775D01*
X145140040Y-119562265D01*
X145171744Y-119402876D01*
X145233934Y-119252736D01*
X145324221Y-119117613D01*
X145324223Y-119117610D01*
X145439130Y-119002703D01*
X145440044Y-119002092D01*
X145574256Y-118912414D01*
X145724396Y-118850224D01*
X145783097Y-118838548D01*
X145850613Y-118825118D01*
X145874062Y-118818005D01*
X145895673Y-118806454D01*
X145914615Y-118790908D01*
X145930161Y-118771966D01*
X145941712Y-118750355D01*
X145948825Y-118726906D01*
X145951227Y-118702520D01*
X145948825Y-118678134D01*
X145941712Y-118654685D01*
X145930161Y-118633074D01*
X145914615Y-118614132D01*
X145895673Y-118598586D01*
X145874062Y-118587035D01*
X145850613Y-118579922D01*
X145826227Y-118577520D01*
X145751821Y-118577520D01*
X145697027Y-118572123D01*
X145650240Y-118557931D01*
X145607122Y-118534883D01*
X145569331Y-118503869D01*
X145538317Y-118466078D01*
X145515269Y-118422960D01*
X145501077Y-118376173D01*
X145495680Y-118321379D01*
X145495680Y-117583661D01*
X145501077Y-117528867D01*
X145515269Y-117482080D01*
X145538317Y-117438962D01*
X145569331Y-117401171D01*
X145607122Y-117370157D01*
X145650240Y-117347109D01*
X145697027Y-117332917D01*
X145751821Y-117327520D01*
X146589539Y-117327520D01*
X146644333Y-117332917D01*
X146644333Y-117332917D01*
G37*
G36*
X148256816Y-114210030D02*
X148303603Y-114224222D01*
X148346721Y-114247270D01*
X148389283Y-114282199D01*
X148981637Y-114874553D01*
X149016566Y-114917115D01*
X149039614Y-114960233D01*
X149053806Y-115007020D01*
X149058598Y-115055673D01*
X149053806Y-115104326D01*
X149039614Y-115151113D01*
X149016566Y-115194231D01*
X148981637Y-115236793D01*
X148459993Y-115758437D01*
X148417431Y-115793366D01*
X148374313Y-115816414D01*
X148327526Y-115830606D01*
X148278873Y-115835398D01*
X148230220Y-115830606D01*
X148183433Y-115816414D01*
X148140315Y-115793366D01*
X148097753Y-115758437D01*
X147505399Y-115166083D01*
X147470470Y-115123521D01*
X147447422Y-115080403D01*
X147433230Y-115033616D01*
X147428438Y-114984963D01*
X147433230Y-114936310D01*
X147447422Y-114889523D01*
X147470470Y-114846405D01*
X147505399Y-114803843D01*
X148027043Y-114282199D01*
X148069605Y-114247270D01*
X148112723Y-114224222D01*
X148159510Y-114210030D01*
X148208163Y-114205238D01*
X148256816Y-114210030D01*
X148256816Y-114210030D01*
G37*
G36*
X147838074Y-109777786D02*
X147845187Y-109801235D01*
X147856738Y-109822846D01*
X147872284Y-109841788D01*
X148314226Y-110283730D01*
X148314232Y-110283735D01*
X149092039Y-111061542D01*
X149092044Y-111061548D01*
X151142653Y-113112157D01*
X151142659Y-113112162D01*
X151920466Y-113889969D01*
X151920471Y-113889975D01*
X152362412Y-114331916D01*
X152381354Y-114347462D01*
X152402965Y-114359013D01*
X152426414Y-114366126D01*
X152438049Y-114367272D01*
X152426414Y-114368418D01*
X152402965Y-114375531D01*
X152381354Y-114387082D01*
X152362412Y-114402628D01*
X151054264Y-115710776D01*
X150364840Y-115021352D01*
X150364835Y-115021346D01*
X150011282Y-114667793D01*
X150011276Y-114667788D01*
X147536413Y-112192925D01*
X147536408Y-112192919D01*
X147182855Y-111839366D01*
X147182849Y-111839361D01*
X146493424Y-111149936D01*
X147801572Y-109841788D01*
X147817118Y-109822846D01*
X147828669Y-109801235D01*
X147835782Y-109777786D01*
X147836928Y-109766151D01*
X147838074Y-109777786D01*
X147838074Y-109777786D01*
G37*
G36*
X157065818Y-109777786D02*
X157072931Y-109801235D01*
X157084482Y-109822846D01*
X157100028Y-109841788D01*
X158408176Y-111149936D01*
X153847336Y-115710776D01*
X152539188Y-114402628D01*
X152520246Y-114387082D01*
X152498635Y-114375531D01*
X152475186Y-114368418D01*
X152463551Y-114367272D01*
X152475186Y-114366126D01*
X152498635Y-114359013D01*
X152520246Y-114347462D01*
X152539188Y-114331916D01*
X152981130Y-113889975D01*
X152981139Y-113889964D01*
X153758937Y-113112166D01*
X153758948Y-113112157D01*
X154324633Y-112546471D01*
X155456004Y-111415100D01*
X155809557Y-111061548D01*
X155809566Y-111061537D01*
X156587364Y-110283739D01*
X156587375Y-110283730D01*
X157029316Y-109841788D01*
X157044862Y-109822846D01*
X157056413Y-109801235D01*
X157063526Y-109777786D01*
X157064672Y-109766151D01*
X157065818Y-109777786D01*
X157065818Y-109777786D01*
G37*
G36*
X147019380Y-112972594D02*
X147066167Y-112986786D01*
X147109285Y-113009834D01*
X147151847Y-113044763D01*
X147744201Y-113637117D01*
X147779130Y-113679679D01*
X147802178Y-113722797D01*
X147816370Y-113769584D01*
X147821162Y-113818237D01*
X147816370Y-113866890D01*
X147802178Y-113913677D01*
X147779130Y-113956795D01*
X147744201Y-113999357D01*
X147222557Y-114521001D01*
X147179995Y-114555930D01*
X147136877Y-114578978D01*
X147090090Y-114593170D01*
X147041437Y-114597962D01*
X146992784Y-114593170D01*
X146945997Y-114578978D01*
X146902879Y-114555930D01*
X146860317Y-114521001D01*
X146267963Y-113928647D01*
X146233034Y-113886085D01*
X146209986Y-113842967D01*
X146195794Y-113796180D01*
X146191002Y-113747527D01*
X146195794Y-113698874D01*
X146209986Y-113652087D01*
X146233034Y-113608969D01*
X146267963Y-113566407D01*
X146789607Y-113044763D01*
X146832169Y-113009834D01*
X146875287Y-112986786D01*
X146922074Y-112972594D01*
X146970727Y-112967802D01*
X147019380Y-112972594D01*
X147019380Y-112972594D01*
G37*
G36*
X164522800Y-113168000D02*
X162222800Y-113168000D01*
X162222800Y-111368000D01*
X164522800Y-111368000D01*
X164522800Y-113168000D01*
X164522800Y-113168000D01*
G37*
G36*
X160697653Y-111081476D02*
X160744440Y-111095668D01*
X160787558Y-111118716D01*
X160825349Y-111149730D01*
X160856363Y-111187521D01*
X160879411Y-111230639D01*
X160893603Y-111277426D01*
X160899000Y-111332220D01*
X160899000Y-112169938D01*
X160893603Y-112224732D01*
X160879411Y-112271519D01*
X160856363Y-112314637D01*
X160825349Y-112352428D01*
X160787558Y-112383442D01*
X160744440Y-112406490D01*
X160697653Y-112420682D01*
X160642859Y-112426079D01*
X159905141Y-112426079D01*
X159850347Y-112420682D01*
X159803560Y-112406490D01*
X159760442Y-112383442D01*
X159722651Y-112352428D01*
X159691637Y-112314637D01*
X159668589Y-112271519D01*
X159654397Y-112224732D01*
X159649000Y-112169938D01*
X159649000Y-111332220D01*
X159654397Y-111277426D01*
X159668589Y-111230639D01*
X159691637Y-111187521D01*
X159722651Y-111149730D01*
X159760442Y-111118716D01*
X159803560Y-111095668D01*
X159850347Y-111081476D01*
X159905141Y-111076079D01*
X160642859Y-111076079D01*
X160697653Y-111081476D01*
X160697653Y-111081476D01*
G37*
G36*
X160697653Y-109331478D02*
X160744440Y-109345670D01*
X160787558Y-109368718D01*
X160825349Y-109399732D01*
X160856363Y-109437523D01*
X160879411Y-109480641D01*
X160893603Y-109527428D01*
X160899000Y-109582222D01*
X160899000Y-110419940D01*
X160893603Y-110474734D01*
X160879411Y-110521521D01*
X160856363Y-110564639D01*
X160825349Y-110602430D01*
X160787558Y-110633444D01*
X160744440Y-110656492D01*
X160697653Y-110670684D01*
X160642859Y-110676081D01*
X159905141Y-110676081D01*
X159850347Y-110670684D01*
X159803560Y-110656492D01*
X159760442Y-110633444D01*
X159722651Y-110602430D01*
X159691637Y-110564639D01*
X159668589Y-110521521D01*
X159654397Y-110474734D01*
X159649000Y-110419940D01*
X159649000Y-109582222D01*
X159654397Y-109527428D01*
X159668589Y-109480641D01*
X159691637Y-109437523D01*
X159722651Y-109399732D01*
X159760442Y-109368718D01*
X159803560Y-109345670D01*
X159850347Y-109331478D01*
X159905141Y-109326081D01*
X160642859Y-109326081D01*
X160697653Y-109331478D01*
X160697653Y-109331478D01*
G37*
G36*
X164522800Y-110602600D02*
X162222800Y-110602600D01*
X162222800Y-108802600D01*
X164522800Y-108802600D01*
X164522800Y-110602600D01*
X164522800Y-110602600D01*
G37*
G36*
X152362412Y-105104172D02*
X152381354Y-105119718D01*
X152402965Y-105131269D01*
X152426414Y-105138382D01*
X152438049Y-105139528D01*
X152426414Y-105140674D01*
X152402965Y-105147787D01*
X152381354Y-105159338D01*
X152362412Y-105174884D01*
X151920471Y-105616826D01*
X151142653Y-106394644D01*
X150576967Y-106960329D01*
X149445596Y-108091700D01*
X149092044Y-108445253D01*
X148314226Y-109223071D01*
X147872284Y-109665012D01*
X147856738Y-109683954D01*
X147845187Y-109705565D01*
X147838074Y-109729014D01*
X147836928Y-109740649D01*
X147835782Y-109729014D01*
X147828669Y-109705565D01*
X147817118Y-109683954D01*
X147801572Y-109665012D01*
X146493424Y-108356864D01*
X147182844Y-107667444D01*
X147182855Y-107667435D01*
X147536408Y-107313882D01*
X147536417Y-107313871D01*
X150011271Y-104839017D01*
X150011282Y-104839008D01*
X150364835Y-104485455D01*
X150364844Y-104485444D01*
X151054264Y-103796024D01*
X152362412Y-105104172D01*
X152362412Y-105104172D01*
G37*
G36*
X154536761Y-104485449D02*
X154536766Y-104485455D01*
X154890319Y-104839008D01*
X154890325Y-104839013D01*
X157365188Y-107313876D01*
X157365193Y-107313882D01*
X157718746Y-107667435D01*
X157718752Y-107667440D01*
X158408176Y-108356864D01*
X157100028Y-109665012D01*
X157084482Y-109683954D01*
X157072931Y-109705565D01*
X157065818Y-109729014D01*
X157064672Y-109740649D01*
X157063526Y-109729014D01*
X157056413Y-109705564D01*
X157044862Y-109683954D01*
X157029316Y-109665012D01*
X156587375Y-109223071D01*
X156587369Y-109223066D01*
X155809562Y-108445259D01*
X155809557Y-108445253D01*
X153758948Y-106394644D01*
X153758942Y-106394639D01*
X152981135Y-105616832D01*
X152981130Y-105616826D01*
X152539188Y-105174884D01*
X152520246Y-105159338D01*
X152498635Y-105147787D01*
X152475186Y-105140674D01*
X152463551Y-105139528D01*
X152475186Y-105138382D01*
X152498635Y-105131269D01*
X152520246Y-105119718D01*
X152539188Y-105104172D01*
X153847336Y-103796024D01*
X154536761Y-104485449D01*
X154536761Y-104485449D01*
G37*
G36*
X164522800Y-108011800D02*
X162222800Y-108011800D01*
X162222800Y-106211800D01*
X164522800Y-106211800D01*
X164522800Y-108011800D01*
X164522800Y-108011800D01*
G37*
G36*
X157883416Y-104344670D02*
X157930203Y-104358862D01*
X157973321Y-104381910D01*
X158015883Y-104416839D01*
X158608237Y-105009193D01*
X158643166Y-105051755D01*
X158666214Y-105094873D01*
X158680406Y-105141660D01*
X158685198Y-105190313D01*
X158680406Y-105238966D01*
X158666214Y-105285753D01*
X158643166Y-105328871D01*
X158608237Y-105371433D01*
X158086593Y-105893077D01*
X158044031Y-105928006D01*
X158000913Y-105951054D01*
X157954126Y-105965246D01*
X157905473Y-105970038D01*
X157856820Y-105965246D01*
X157810033Y-105951054D01*
X157766915Y-105928006D01*
X157724353Y-105893077D01*
X157131999Y-105300723D01*
X157097070Y-105258161D01*
X157074022Y-105215043D01*
X157059830Y-105168256D01*
X157055038Y-105119603D01*
X157059830Y-105070950D01*
X157074022Y-105024163D01*
X157097070Y-104981045D01*
X157131999Y-104938483D01*
X157653643Y-104416839D01*
X157696205Y-104381910D01*
X157739323Y-104358862D01*
X157786110Y-104344670D01*
X157834763Y-104339878D01*
X157883416Y-104344670D01*
X157883416Y-104344670D01*
G37*
G36*
X147156130Y-103232150D02*
X147202917Y-103246342D01*
X147246035Y-103269390D01*
X147288597Y-103304319D01*
X147810241Y-103825963D01*
X147845170Y-103868525D01*
X147868218Y-103911643D01*
X147882410Y-103958430D01*
X147887202Y-104007083D01*
X147882410Y-104055736D01*
X147868218Y-104102523D01*
X147845170Y-104145641D01*
X147810241Y-104188203D01*
X147217887Y-104780557D01*
X147175325Y-104815486D01*
X147132207Y-104838534D01*
X147085420Y-104852726D01*
X147036767Y-104857518D01*
X146988114Y-104852726D01*
X146941327Y-104838534D01*
X146898209Y-104815486D01*
X146855647Y-104780557D01*
X146334003Y-104258913D01*
X146299074Y-104216351D01*
X146276026Y-104173233D01*
X146261834Y-104126446D01*
X146257042Y-104077793D01*
X146261834Y-104029140D01*
X146276026Y-103982353D01*
X146299074Y-103939235D01*
X146334003Y-103896673D01*
X146926357Y-103304319D01*
X146968919Y-103269390D01*
X147012037Y-103246342D01*
X147058824Y-103232150D01*
X147107477Y-103227358D01*
X147156130Y-103232150D01*
X147156130Y-103232150D01*
G37*
G36*
X156645980Y-103107234D02*
X156692767Y-103121426D01*
X156735885Y-103144474D01*
X156778447Y-103179403D01*
X157370801Y-103771757D01*
X157405730Y-103814319D01*
X157428778Y-103857437D01*
X157442970Y-103904224D01*
X157447762Y-103952877D01*
X157442970Y-104001530D01*
X157428778Y-104048317D01*
X157405730Y-104091435D01*
X157370801Y-104133997D01*
X156849157Y-104655641D01*
X156806595Y-104690570D01*
X156763477Y-104713618D01*
X156716690Y-104727810D01*
X156668037Y-104732602D01*
X156619384Y-104727810D01*
X156572597Y-104713618D01*
X156529479Y-104690570D01*
X156486917Y-104655641D01*
X155894563Y-104063287D01*
X155859634Y-104020725D01*
X155836586Y-103977607D01*
X155822394Y-103930820D01*
X155817602Y-103882167D01*
X155822394Y-103833514D01*
X155836586Y-103786727D01*
X155859634Y-103743609D01*
X155894563Y-103701047D01*
X156416207Y-103179403D01*
X156458769Y-103144474D01*
X156501887Y-103121426D01*
X156548674Y-103107234D01*
X156597327Y-103102442D01*
X156645980Y-103107234D01*
X156645980Y-103107234D01*
G37*
G36*
X148393566Y-101994714D02*
X148440353Y-102008906D01*
X148483471Y-102031954D01*
X148526033Y-102066883D01*
X149047677Y-102588527D01*
X149082606Y-102631089D01*
X149105654Y-102674207D01*
X149119846Y-102720994D01*
X149124638Y-102769647D01*
X149119846Y-102818300D01*
X149105654Y-102865087D01*
X149082606Y-102908205D01*
X149047677Y-102950767D01*
X148455323Y-103543121D01*
X148412761Y-103578050D01*
X148369643Y-103601098D01*
X148322856Y-103615290D01*
X148274203Y-103620082D01*
X148225550Y-103615290D01*
X148178763Y-103601098D01*
X148135645Y-103578050D01*
X148093083Y-103543121D01*
X147571439Y-103021477D01*
X147536510Y-102978915D01*
X147513462Y-102935797D01*
X147499270Y-102889010D01*
X147494478Y-102840357D01*
X147499270Y-102791704D01*
X147513462Y-102744917D01*
X147536510Y-102701799D01*
X147571439Y-102659237D01*
X148163793Y-102066883D01*
X148206355Y-102031954D01*
X148249473Y-102008906D01*
X148296260Y-101994714D01*
X148344913Y-101989922D01*
X148393566Y-101994714D01*
X148393566Y-101994714D01*
G37*
G36*
X154139651Y-100709927D02*
X154277305Y-100737308D01*
X154450194Y-100808921D01*
X154605790Y-100912887D01*
X154738113Y-101045210D01*
X154842079Y-101200806D01*
X154913692Y-101373695D01*
X154950200Y-101557233D01*
X154950200Y-101744367D01*
X154913692Y-101927905D01*
X154842079Y-102100794D01*
X154738113Y-102256390D01*
X154605790Y-102388713D01*
X154450194Y-102492679D01*
X154277305Y-102564292D01*
X154139651Y-102591673D01*
X154093768Y-102600800D01*
X153906632Y-102600800D01*
X153860749Y-102591673D01*
X153723095Y-102564292D01*
X153550206Y-102492679D01*
X153394610Y-102388713D01*
X153262287Y-102256390D01*
X153158321Y-102100794D01*
X153086708Y-101927905D01*
X153050200Y-101744367D01*
X153050200Y-101557233D01*
X153086708Y-101373695D01*
X153158321Y-101200806D01*
X153262287Y-101045210D01*
X153394610Y-100912887D01*
X153550206Y-100808921D01*
X153723095Y-100737308D01*
X153860749Y-100709927D01*
X153906632Y-100700800D01*
X154093768Y-100700800D01*
X154139651Y-100709927D01*
X154139651Y-100709927D01*
G37*
G36*
X147786050Y-100062230D02*
X147832837Y-100076422D01*
X147875955Y-100099470D01*
X147918517Y-100134399D01*
X148440161Y-100656043D01*
X148475090Y-100698605D01*
X148498138Y-100741723D01*
X148512330Y-100788510D01*
X148517122Y-100837163D01*
X148512330Y-100885816D01*
X148498138Y-100932603D01*
X148475090Y-100975721D01*
X148440161Y-101018283D01*
X147847807Y-101610637D01*
X147805245Y-101645566D01*
X147762127Y-101668614D01*
X147715340Y-101682806D01*
X147666687Y-101687598D01*
X147618034Y-101682806D01*
X147571247Y-101668614D01*
X147528129Y-101645566D01*
X147485567Y-101610637D01*
X146963923Y-101088993D01*
X146928994Y-101046431D01*
X146905946Y-101003313D01*
X146891754Y-100956526D01*
X146886962Y-100907873D01*
X146891754Y-100859220D01*
X146905946Y-100812433D01*
X146928994Y-100769315D01*
X146963923Y-100726753D01*
X147556277Y-100134399D01*
X147598839Y-100099470D01*
X147641957Y-100076422D01*
X147688744Y-100062230D01*
X147737397Y-100057438D01*
X147786050Y-100062230D01*
X147786050Y-100062230D01*
G37*
G36*
X149023486Y-98824794D02*
X149070273Y-98838986D01*
X149113391Y-98862034D01*
X149155953Y-98896963D01*
X149677597Y-99418607D01*
X149712526Y-99461169D01*
X149735574Y-99504287D01*
X149749766Y-99551074D01*
X149754558Y-99599727D01*
X149749766Y-99648380D01*
X149735574Y-99695167D01*
X149712526Y-99738285D01*
X149677597Y-99780847D01*
X149085243Y-100373201D01*
X149042681Y-100408130D01*
X148999563Y-100431178D01*
X148952776Y-100445370D01*
X148904123Y-100450162D01*
X148855470Y-100445370D01*
X148808683Y-100431178D01*
X148765565Y-100408130D01*
X148723003Y-100373201D01*
X148201359Y-99851557D01*
X148166430Y-99808995D01*
X148143382Y-99765877D01*
X148129190Y-99719090D01*
X148124398Y-99670437D01*
X148129190Y-99621784D01*
X148143382Y-99574997D01*
X148166430Y-99531879D01*
X148201359Y-99489317D01*
X148793713Y-98896963D01*
X148836275Y-98862034D01*
X148879393Y-98838986D01*
X148926180Y-98824794D01*
X148974833Y-98820002D01*
X149023486Y-98824794D01*
X149023486Y-98824794D01*
G37*
G36*
X147313934Y-97074264D02*
X147468627Y-97138340D01*
X147607847Y-97231364D01*
X147726236Y-97349753D01*
X147819260Y-97488973D01*
X147883336Y-97643666D01*
X147916000Y-97807881D01*
X147916000Y-97975319D01*
X147883336Y-98139534D01*
X147819260Y-98294227D01*
X147726236Y-98433447D01*
X147607847Y-98551836D01*
X147468627Y-98644860D01*
X147313934Y-98708936D01*
X147149719Y-98741600D01*
X146982281Y-98741600D01*
X146818066Y-98708936D01*
X146663373Y-98644860D01*
X146524153Y-98551836D01*
X146405764Y-98433447D01*
X146312740Y-98294227D01*
X146248664Y-98139534D01*
X146216000Y-97975319D01*
X146216000Y-97807881D01*
X146248664Y-97643666D01*
X146312740Y-97488973D01*
X146405764Y-97349753D01*
X146524153Y-97231364D01*
X146663373Y-97138340D01*
X146818066Y-97074264D01*
X146982281Y-97041600D01*
X147149719Y-97041600D01*
X147313934Y-97074264D01*
X147313934Y-97074264D01*
G37*
G36*
X159657230Y-94848669D02*
X159657233Y-94848670D01*
X159657234Y-94848670D01*
X159845735Y-94905851D01*
X159845737Y-94905852D01*
X160019460Y-94998709D01*
X160171728Y-95123672D01*
X160296691Y-95275940D01*
X160389548Y-95449663D01*
X160446731Y-95638170D01*
X160466038Y-95834200D01*
X160446731Y-96030230D01*
X160389548Y-96218737D01*
X160296691Y-96392460D01*
X160171728Y-96544728D01*
X160019460Y-96669691D01*
X160019458Y-96669692D01*
X159845735Y-96762549D01*
X159657234Y-96819730D01*
X159657233Y-96819730D01*
X159657230Y-96819731D01*
X159510324Y-96834200D01*
X159412076Y-96834200D01*
X159265170Y-96819731D01*
X159265167Y-96819730D01*
X159265166Y-96819730D01*
X159076665Y-96762549D01*
X158902942Y-96669692D01*
X158902940Y-96669691D01*
X158750672Y-96544728D01*
X158625709Y-96392460D01*
X158532852Y-96218737D01*
X158475669Y-96030230D01*
X158456362Y-95834200D01*
X158475669Y-95638170D01*
X158532852Y-95449663D01*
X158625709Y-95275940D01*
X158750672Y-95123672D01*
X158902940Y-94998709D01*
X159076663Y-94905852D01*
X159076665Y-94905851D01*
X159265166Y-94848670D01*
X159265167Y-94848670D01*
X159265170Y-94848669D01*
X159412076Y-94834200D01*
X159510324Y-94834200D01*
X159657230Y-94848669D01*
X159657230Y-94848669D01*
G37*
G36*
X157117230Y-94848669D02*
X157117233Y-94848670D01*
X157117234Y-94848670D01*
X157305735Y-94905851D01*
X157305737Y-94905852D01*
X157479460Y-94998709D01*
X157631728Y-95123672D01*
X157756691Y-95275940D01*
X157849548Y-95449663D01*
X157906731Y-95638170D01*
X157926038Y-95834200D01*
X157906731Y-96030230D01*
X157849548Y-96218737D01*
X157756691Y-96392460D01*
X157631728Y-96544728D01*
X157479460Y-96669691D01*
X157479458Y-96669692D01*
X157305735Y-96762549D01*
X157117234Y-96819730D01*
X157117233Y-96819730D01*
X157117230Y-96819731D01*
X156970324Y-96834200D01*
X156872076Y-96834200D01*
X156725170Y-96819731D01*
X156725167Y-96819730D01*
X156725166Y-96819730D01*
X156536665Y-96762549D01*
X156362942Y-96669692D01*
X156362940Y-96669691D01*
X156210672Y-96544728D01*
X156085709Y-96392460D01*
X155992852Y-96218737D01*
X155935669Y-96030230D01*
X155916362Y-95834200D01*
X155935669Y-95638170D01*
X155992852Y-95449663D01*
X156085709Y-95275940D01*
X156210672Y-95123672D01*
X156362940Y-94998709D01*
X156536663Y-94905852D01*
X156536665Y-94905851D01*
X156725166Y-94848670D01*
X156725167Y-94848670D01*
X156725170Y-94848669D01*
X156872076Y-94834200D01*
X156970324Y-94834200D01*
X157117230Y-94848669D01*
X157117230Y-94848669D01*
G37*
G36*
X154577230Y-94848669D02*
X154577233Y-94848670D01*
X154577234Y-94848670D01*
X154765735Y-94905851D01*
X154765737Y-94905852D01*
X154939460Y-94998709D01*
X155091728Y-95123672D01*
X155216691Y-95275940D01*
X155309548Y-95449663D01*
X155366731Y-95638170D01*
X155386038Y-95834200D01*
X155366731Y-96030230D01*
X155309548Y-96218737D01*
X155216691Y-96392460D01*
X155091728Y-96544728D01*
X154939460Y-96669691D01*
X154939458Y-96669692D01*
X154765735Y-96762549D01*
X154577234Y-96819730D01*
X154577233Y-96819730D01*
X154577230Y-96819731D01*
X154430324Y-96834200D01*
X154332076Y-96834200D01*
X154185170Y-96819731D01*
X154185167Y-96819730D01*
X154185166Y-96819730D01*
X153996665Y-96762549D01*
X153822942Y-96669692D01*
X153822940Y-96669691D01*
X153670672Y-96544728D01*
X153545709Y-96392460D01*
X153452852Y-96218737D01*
X153395669Y-96030230D01*
X153376362Y-95834200D01*
X153395669Y-95638170D01*
X153452852Y-95449663D01*
X153545709Y-95275940D01*
X153670672Y-95123672D01*
X153822940Y-94998709D01*
X153996663Y-94905852D01*
X153996665Y-94905851D01*
X154185166Y-94848670D01*
X154185167Y-94848670D01*
X154185170Y-94848669D01*
X154332076Y-94834200D01*
X154430324Y-94834200D01*
X154577230Y-94848669D01*
X154577230Y-94848669D01*
G37*
G36*
X152037230Y-94848669D02*
X152037233Y-94848670D01*
X152037234Y-94848670D01*
X152225735Y-94905851D01*
X152225737Y-94905852D01*
X152399460Y-94998709D01*
X152551728Y-95123672D01*
X152676691Y-95275940D01*
X152769548Y-95449663D01*
X152826731Y-95638170D01*
X152846038Y-95834200D01*
X152826731Y-96030230D01*
X152769548Y-96218737D01*
X152676691Y-96392460D01*
X152551728Y-96544728D01*
X152399460Y-96669691D01*
X152399458Y-96669692D01*
X152225735Y-96762549D01*
X152037234Y-96819730D01*
X152037233Y-96819730D01*
X152037230Y-96819731D01*
X151890324Y-96834200D01*
X151792076Y-96834200D01*
X151645170Y-96819731D01*
X151645167Y-96819730D01*
X151645166Y-96819730D01*
X151456665Y-96762549D01*
X151282942Y-96669692D01*
X151282940Y-96669691D01*
X151130672Y-96544728D01*
X151005709Y-96392460D01*
X150912852Y-96218737D01*
X150855669Y-96030230D01*
X150836362Y-95834200D01*
X150855669Y-95638170D01*
X150912852Y-95449663D01*
X151005709Y-95275940D01*
X151130672Y-95123672D01*
X151282940Y-94998709D01*
X151456663Y-94905852D01*
X151456665Y-94905851D01*
X151645166Y-94848670D01*
X151645167Y-94848670D01*
X151645170Y-94848669D01*
X151792076Y-94834200D01*
X151890324Y-94834200D01*
X152037230Y-94848669D01*
X152037230Y-94848669D01*
G37*
G36*
X150301200Y-96834200D02*
X148301200Y-96834200D01*
X148301200Y-94834200D01*
X150301200Y-94834200D01*
X150301200Y-96834200D01*
X150301200Y-96834200D01*
G37*
M02*
