G04 #@! TF.GenerationSoftware,KiCad,Pcbnew,(5.0.2)-1*
G04 #@! TF.CreationDate,2019-01-20T16:15:56+01:00*
G04 #@! TF.ProjectId,HM-LC-Sw1-Pl-DN-R1_S26,484d2d4c-432d-4537-9731-2d506c2d444e,rev?*
G04 #@! TF.SameCoordinates,Original*
G04 #@! TF.FileFunction,Soldermask,Top*
G04 #@! TF.FilePolarity,Negative*
%FSLAX46Y46*%
G04 Gerber Fmt 4.6, Leading zero omitted, Abs format (unit mm)*
G04 Created by KiCad (PCBNEW (5.0.2)-1) date 20.01.2019 16:15:56*
%MOMM*%
%LPD*%
G01*
G04 APERTURE LIST*
%ADD10C,0.100000*%
G04 APERTURE END LIST*
D10*
G36*
X160152554Y-118839656D02*
X160205684Y-118850224D01*
X160355824Y-118912414D01*
X160490036Y-119002092D01*
X160490950Y-119002703D01*
X160605857Y-119117610D01*
X160605859Y-119117613D01*
X160696146Y-119252736D01*
X160696146Y-119252737D01*
X160758336Y-119402877D01*
X160776244Y-119492906D01*
X160783357Y-119516355D01*
X160790040Y-119528858D01*
X160790040Y-121693520D01*
X159140040Y-121693520D01*
X159140040Y-119528858D01*
X159146723Y-119516355D01*
X159153836Y-119492906D01*
X159171744Y-119402877D01*
X159233934Y-119252737D01*
X159233934Y-119252736D01*
X159324221Y-119117613D01*
X159324223Y-119117610D01*
X159439130Y-119002703D01*
X159440044Y-119002092D01*
X159574256Y-118912414D01*
X159724396Y-118850224D01*
X159777526Y-118839656D01*
X159883783Y-118818520D01*
X160046297Y-118818520D01*
X160152554Y-118839656D01*
X160152554Y-118839656D01*
G37*
G36*
X146152554Y-118839656D02*
X146205684Y-118850224D01*
X146355824Y-118912414D01*
X146490036Y-119002092D01*
X146490950Y-119002703D01*
X146605857Y-119117610D01*
X146605859Y-119117613D01*
X146696146Y-119252736D01*
X146696146Y-119252737D01*
X146758336Y-119402877D01*
X146776244Y-119492906D01*
X146783357Y-119516355D01*
X146790040Y-119528858D01*
X146790040Y-121693520D01*
X145140040Y-121693520D01*
X145140040Y-119528858D01*
X145146723Y-119516355D01*
X145153836Y-119492906D01*
X145171744Y-119402877D01*
X145233934Y-119252737D01*
X145233934Y-119252736D01*
X145324221Y-119117613D01*
X145324223Y-119117610D01*
X145439130Y-119002703D01*
X145440044Y-119002092D01*
X145574256Y-118912414D01*
X145724396Y-118850224D01*
X145777526Y-118839656D01*
X145883783Y-118818520D01*
X146046297Y-118818520D01*
X146152554Y-118839656D01*
X146152554Y-118839656D01*
G37*
G36*
X148152554Y-118839656D02*
X148205684Y-118850224D01*
X148355824Y-118912414D01*
X148490036Y-119002092D01*
X148490950Y-119002703D01*
X148605857Y-119117610D01*
X148605859Y-119117613D01*
X148696146Y-119252736D01*
X148696146Y-119252737D01*
X148758336Y-119402877D01*
X148776244Y-119492906D01*
X148783357Y-119516355D01*
X148790040Y-119528858D01*
X148790040Y-121693520D01*
X147140040Y-121693520D01*
X147140040Y-119528858D01*
X147146723Y-119516355D01*
X147153836Y-119492906D01*
X147171744Y-119402877D01*
X147233934Y-119252737D01*
X147233934Y-119252736D01*
X147324221Y-119117613D01*
X147324223Y-119117610D01*
X147439130Y-119002703D01*
X147440044Y-119002092D01*
X147574256Y-118912414D01*
X147724396Y-118850224D01*
X147777526Y-118839656D01*
X147883783Y-118818520D01*
X148046297Y-118818520D01*
X148152554Y-118839656D01*
X148152554Y-118839656D01*
G37*
G36*
X150152554Y-118839656D02*
X150205684Y-118850224D01*
X150355824Y-118912414D01*
X150490036Y-119002092D01*
X150490950Y-119002703D01*
X150605857Y-119117610D01*
X150605859Y-119117613D01*
X150696146Y-119252736D01*
X150696146Y-119252737D01*
X150758336Y-119402877D01*
X150776244Y-119492906D01*
X150783357Y-119516355D01*
X150790040Y-119528858D01*
X150790040Y-121693520D01*
X149140040Y-121693520D01*
X149140040Y-119528858D01*
X149146723Y-119516355D01*
X149153836Y-119492906D01*
X149171744Y-119402877D01*
X149233934Y-119252737D01*
X149233934Y-119252736D01*
X149324221Y-119117613D01*
X149324223Y-119117610D01*
X149439130Y-119002703D01*
X149440044Y-119002092D01*
X149574256Y-118912414D01*
X149724396Y-118850224D01*
X149777526Y-118839656D01*
X149883783Y-118818520D01*
X150046297Y-118818520D01*
X150152554Y-118839656D01*
X150152554Y-118839656D01*
G37*
G36*
X152152554Y-118839656D02*
X152205684Y-118850224D01*
X152355824Y-118912414D01*
X152490036Y-119002092D01*
X152490950Y-119002703D01*
X152605857Y-119117610D01*
X152605859Y-119117613D01*
X152696146Y-119252736D01*
X152696146Y-119252737D01*
X152758336Y-119402877D01*
X152776244Y-119492906D01*
X152783357Y-119516355D01*
X152790040Y-119528858D01*
X152790040Y-121693520D01*
X151140040Y-121693520D01*
X151140040Y-119528858D01*
X151146723Y-119516355D01*
X151153836Y-119492906D01*
X151171744Y-119402877D01*
X151233934Y-119252737D01*
X151233934Y-119252736D01*
X151324221Y-119117613D01*
X151324223Y-119117610D01*
X151439130Y-119002703D01*
X151440044Y-119002092D01*
X151574256Y-118912414D01*
X151724396Y-118850224D01*
X151777526Y-118839656D01*
X151883783Y-118818520D01*
X152046297Y-118818520D01*
X152152554Y-118839656D01*
X152152554Y-118839656D01*
G37*
G36*
X154152554Y-118839656D02*
X154205684Y-118850224D01*
X154355824Y-118912414D01*
X154490036Y-119002092D01*
X154490950Y-119002703D01*
X154605857Y-119117610D01*
X154605859Y-119117613D01*
X154696146Y-119252736D01*
X154696146Y-119252737D01*
X154758336Y-119402877D01*
X154776244Y-119492906D01*
X154783357Y-119516355D01*
X154790040Y-119528858D01*
X154790040Y-121693520D01*
X153140040Y-121693520D01*
X153140040Y-119528858D01*
X153146723Y-119516355D01*
X153153836Y-119492906D01*
X153171744Y-119402877D01*
X153233934Y-119252737D01*
X153233934Y-119252736D01*
X153324221Y-119117613D01*
X153324223Y-119117610D01*
X153439130Y-119002703D01*
X153440044Y-119002092D01*
X153574256Y-118912414D01*
X153724396Y-118850224D01*
X153777526Y-118839656D01*
X153883783Y-118818520D01*
X154046297Y-118818520D01*
X154152554Y-118839656D01*
X154152554Y-118839656D01*
G37*
G36*
X156152554Y-118839656D02*
X156205684Y-118850224D01*
X156355824Y-118912414D01*
X156490036Y-119002092D01*
X156490950Y-119002703D01*
X156605857Y-119117610D01*
X156605859Y-119117613D01*
X156696146Y-119252736D01*
X156696146Y-119252737D01*
X156758336Y-119402877D01*
X156776244Y-119492906D01*
X156783357Y-119516355D01*
X156790040Y-119528858D01*
X156790040Y-121693520D01*
X155140040Y-121693520D01*
X155140040Y-119528858D01*
X155146723Y-119516355D01*
X155153836Y-119492906D01*
X155171744Y-119402877D01*
X155233934Y-119252737D01*
X155233934Y-119252736D01*
X155324221Y-119117613D01*
X155324223Y-119117610D01*
X155439130Y-119002703D01*
X155440044Y-119002092D01*
X155574256Y-118912414D01*
X155724396Y-118850224D01*
X155777526Y-118839656D01*
X155883783Y-118818520D01*
X156046297Y-118818520D01*
X156152554Y-118839656D01*
X156152554Y-118839656D01*
G37*
G36*
X158152554Y-118839656D02*
X158205684Y-118850224D01*
X158355824Y-118912414D01*
X158490036Y-119002092D01*
X158490950Y-119002703D01*
X158605857Y-119117610D01*
X158605859Y-119117613D01*
X158696146Y-119252736D01*
X158696146Y-119252737D01*
X158758336Y-119402877D01*
X158776244Y-119492906D01*
X158783357Y-119516355D01*
X158790040Y-119528858D01*
X158790040Y-121693520D01*
X157140040Y-121693520D01*
X157140040Y-119528858D01*
X157146723Y-119516355D01*
X157153836Y-119492906D01*
X157171744Y-119402877D01*
X157233934Y-119252737D01*
X157233934Y-119252736D01*
X157324221Y-119117613D01*
X157324223Y-119117610D01*
X157439130Y-119002703D01*
X157440044Y-119002092D01*
X157574256Y-118912414D01*
X157724396Y-118850224D01*
X157777526Y-118839656D01*
X157883783Y-118818520D01*
X158046297Y-118818520D01*
X158152554Y-118839656D01*
X158152554Y-118839656D01*
G37*
G36*
X164522800Y-113168000D02*
X162222800Y-113168000D01*
X162222800Y-111368000D01*
X164522800Y-111368000D01*
X164522800Y-113168000D01*
X164522800Y-113168000D01*
G37*
G36*
X164522800Y-110602600D02*
X162222800Y-110602600D01*
X162222800Y-108802600D01*
X164522800Y-108802600D01*
X164522800Y-110602600D01*
X164522800Y-110602600D01*
G37*
G36*
X164522800Y-108011800D02*
X162222800Y-108011800D01*
X162222800Y-106211800D01*
X164522800Y-106211800D01*
X164522800Y-108011800D01*
X164522800Y-108011800D01*
G37*
G36*
X154139651Y-100709927D02*
X154277305Y-100737308D01*
X154450194Y-100808921D01*
X154605790Y-100912887D01*
X154738113Y-101045210D01*
X154842079Y-101200806D01*
X154913692Y-101373695D01*
X154950200Y-101557233D01*
X154950200Y-101744367D01*
X154913692Y-101927905D01*
X154842079Y-102100794D01*
X154738113Y-102256390D01*
X154605790Y-102388713D01*
X154450194Y-102492679D01*
X154277305Y-102564292D01*
X154139651Y-102591673D01*
X154093768Y-102600800D01*
X153906632Y-102600800D01*
X153860749Y-102591673D01*
X153723095Y-102564292D01*
X153550206Y-102492679D01*
X153394610Y-102388713D01*
X153262287Y-102256390D01*
X153158321Y-102100794D01*
X153086708Y-101927905D01*
X153050200Y-101744367D01*
X153050200Y-101557233D01*
X153086708Y-101373695D01*
X153158321Y-101200806D01*
X153262287Y-101045210D01*
X153394610Y-100912887D01*
X153550206Y-100808921D01*
X153723095Y-100737308D01*
X153860749Y-100709927D01*
X153906632Y-100700800D01*
X154093768Y-100700800D01*
X154139651Y-100709927D01*
X154139651Y-100709927D01*
G37*
G36*
X157068280Y-102464600D02*
X155768280Y-102464600D01*
X155768280Y-99414600D01*
X157068280Y-99414600D01*
X157068280Y-102464600D01*
X157068280Y-102464600D01*
G37*
G36*
X152168280Y-102464600D02*
X150868280Y-102464600D01*
X150868280Y-99414600D01*
X152168280Y-99414600D01*
X152168280Y-102464600D01*
X152168280Y-102464600D01*
G37*
G36*
X147313934Y-97074264D02*
X147468627Y-97138340D01*
X147607847Y-97231364D01*
X147726236Y-97349753D01*
X147819260Y-97488973D01*
X147883336Y-97643666D01*
X147916000Y-97807881D01*
X147916000Y-97975319D01*
X147883336Y-98139534D01*
X147819260Y-98294227D01*
X147726236Y-98433447D01*
X147607847Y-98551836D01*
X147468627Y-98644860D01*
X147313934Y-98708936D01*
X147149719Y-98741600D01*
X146982281Y-98741600D01*
X146818066Y-98708936D01*
X146663373Y-98644860D01*
X146524153Y-98551836D01*
X146405764Y-98433447D01*
X146312740Y-98294227D01*
X146248664Y-98139534D01*
X146216000Y-97975319D01*
X146216000Y-97807881D01*
X146248664Y-97643666D01*
X146312740Y-97488973D01*
X146405764Y-97349753D01*
X146524153Y-97231364D01*
X146663373Y-97138340D01*
X146818066Y-97074264D01*
X146982281Y-97041600D01*
X147149719Y-97041600D01*
X147313934Y-97074264D01*
X147313934Y-97074264D01*
G37*
G36*
X159657230Y-94848669D02*
X159657233Y-94848670D01*
X159657234Y-94848670D01*
X159845735Y-94905851D01*
X159845737Y-94905852D01*
X160019460Y-94998709D01*
X160171728Y-95123672D01*
X160296691Y-95275940D01*
X160389548Y-95449663D01*
X160446731Y-95638170D01*
X160466038Y-95834200D01*
X160446731Y-96030230D01*
X160389548Y-96218737D01*
X160296691Y-96392460D01*
X160171728Y-96544728D01*
X160019460Y-96669691D01*
X160019458Y-96669692D01*
X159845735Y-96762549D01*
X159657234Y-96819730D01*
X159657233Y-96819730D01*
X159657230Y-96819731D01*
X159510324Y-96834200D01*
X159412076Y-96834200D01*
X159265170Y-96819731D01*
X159265167Y-96819730D01*
X159265166Y-96819730D01*
X159076665Y-96762549D01*
X158902942Y-96669692D01*
X158902940Y-96669691D01*
X158750672Y-96544728D01*
X158625709Y-96392460D01*
X158532852Y-96218737D01*
X158475669Y-96030230D01*
X158456362Y-95834200D01*
X158475669Y-95638170D01*
X158532852Y-95449663D01*
X158625709Y-95275940D01*
X158750672Y-95123672D01*
X158902940Y-94998709D01*
X159076663Y-94905852D01*
X159076665Y-94905851D01*
X159265166Y-94848670D01*
X159265167Y-94848670D01*
X159265170Y-94848669D01*
X159412076Y-94834200D01*
X159510324Y-94834200D01*
X159657230Y-94848669D01*
X159657230Y-94848669D01*
G37*
G36*
X157117230Y-94848669D02*
X157117233Y-94848670D01*
X157117234Y-94848670D01*
X157305735Y-94905851D01*
X157305737Y-94905852D01*
X157479460Y-94998709D01*
X157631728Y-95123672D01*
X157756691Y-95275940D01*
X157849548Y-95449663D01*
X157906731Y-95638170D01*
X157926038Y-95834200D01*
X157906731Y-96030230D01*
X157849548Y-96218737D01*
X157756691Y-96392460D01*
X157631728Y-96544728D01*
X157479460Y-96669691D01*
X157479458Y-96669692D01*
X157305735Y-96762549D01*
X157117234Y-96819730D01*
X157117233Y-96819730D01*
X157117230Y-96819731D01*
X156970324Y-96834200D01*
X156872076Y-96834200D01*
X156725170Y-96819731D01*
X156725167Y-96819730D01*
X156725166Y-96819730D01*
X156536665Y-96762549D01*
X156362942Y-96669692D01*
X156362940Y-96669691D01*
X156210672Y-96544728D01*
X156085709Y-96392460D01*
X155992852Y-96218737D01*
X155935669Y-96030230D01*
X155916362Y-95834200D01*
X155935669Y-95638170D01*
X155992852Y-95449663D01*
X156085709Y-95275940D01*
X156210672Y-95123672D01*
X156362940Y-94998709D01*
X156536663Y-94905852D01*
X156536665Y-94905851D01*
X156725166Y-94848670D01*
X156725167Y-94848670D01*
X156725170Y-94848669D01*
X156872076Y-94834200D01*
X156970324Y-94834200D01*
X157117230Y-94848669D01*
X157117230Y-94848669D01*
G37*
G36*
X150301200Y-96834200D02*
X148301200Y-96834200D01*
X148301200Y-94834200D01*
X150301200Y-94834200D01*
X150301200Y-96834200D01*
X150301200Y-96834200D01*
G37*
G36*
X154577230Y-94848669D02*
X154577233Y-94848670D01*
X154577234Y-94848670D01*
X154765735Y-94905851D01*
X154765737Y-94905852D01*
X154939460Y-94998709D01*
X155091728Y-95123672D01*
X155216691Y-95275940D01*
X155309548Y-95449663D01*
X155366731Y-95638170D01*
X155386038Y-95834200D01*
X155366731Y-96030230D01*
X155309548Y-96218737D01*
X155216691Y-96392460D01*
X155091728Y-96544728D01*
X154939460Y-96669691D01*
X154939458Y-96669692D01*
X154765735Y-96762549D01*
X154577234Y-96819730D01*
X154577233Y-96819730D01*
X154577230Y-96819731D01*
X154430324Y-96834200D01*
X154332076Y-96834200D01*
X154185170Y-96819731D01*
X154185167Y-96819730D01*
X154185166Y-96819730D01*
X153996665Y-96762549D01*
X153822942Y-96669692D01*
X153822940Y-96669691D01*
X153670672Y-96544728D01*
X153545709Y-96392460D01*
X153452852Y-96218737D01*
X153395669Y-96030230D01*
X153376362Y-95834200D01*
X153395669Y-95638170D01*
X153452852Y-95449663D01*
X153545709Y-95275940D01*
X153670672Y-95123672D01*
X153822940Y-94998709D01*
X153996663Y-94905852D01*
X153996665Y-94905851D01*
X154185166Y-94848670D01*
X154185167Y-94848670D01*
X154185170Y-94848669D01*
X154332076Y-94834200D01*
X154430324Y-94834200D01*
X154577230Y-94848669D01*
X154577230Y-94848669D01*
G37*
G36*
X152037230Y-94848669D02*
X152037233Y-94848670D01*
X152037234Y-94848670D01*
X152225735Y-94905851D01*
X152225737Y-94905852D01*
X152399460Y-94998709D01*
X152551728Y-95123672D01*
X152676691Y-95275940D01*
X152769548Y-95449663D01*
X152826731Y-95638170D01*
X152846038Y-95834200D01*
X152826731Y-96030230D01*
X152769548Y-96218737D01*
X152676691Y-96392460D01*
X152551728Y-96544728D01*
X152399460Y-96669691D01*
X152399458Y-96669692D01*
X152225735Y-96762549D01*
X152037234Y-96819730D01*
X152037233Y-96819730D01*
X152037230Y-96819731D01*
X151890324Y-96834200D01*
X151792076Y-96834200D01*
X151645170Y-96819731D01*
X151645167Y-96819730D01*
X151645166Y-96819730D01*
X151456665Y-96762549D01*
X151282942Y-96669692D01*
X151282940Y-96669691D01*
X151130672Y-96544728D01*
X151005709Y-96392460D01*
X150912852Y-96218737D01*
X150855669Y-96030230D01*
X150836362Y-95834200D01*
X150855669Y-95638170D01*
X150912852Y-95449663D01*
X151005709Y-95275940D01*
X151130672Y-95123672D01*
X151282940Y-94998709D01*
X151456663Y-94905852D01*
X151456665Y-94905851D01*
X151645166Y-94848670D01*
X151645167Y-94848670D01*
X151645170Y-94848669D01*
X151792076Y-94834200D01*
X151890324Y-94834200D01*
X152037230Y-94848669D01*
X152037230Y-94848669D01*
G37*
M02*
