M48
;DRILL file {KiCad (5.0.2)-1} date 25.01.2019 23:08:17
;FORMAT={-:-/ absolute / inch / decimal}
FMAT,2
INCH,TZ
T1C0.0157
T2C0.0276
T3C0.0315
T4C0.0394
%
G90
G05
T1
X5.7468Y-4.5884
X5.858Y-4.1076
X5.8786Y-4.5546
X5.996Y-4.212
X6.1222Y-4.5562
X6.14Y-4.312
X6.1722Y-4.1614
X6.2196Y-3.9928
X6.2596Y-4.4096
X6.316Y-4.2146
T2
X5.79Y-3.854
T3
X5.7467Y-4.7104
X5.8254Y-4.7104
X5.9041Y-4.7104
X5.9829Y-4.7104
X6.0616Y-4.7104
X6.1404Y-4.7104
X6.2191Y-4.7104
X6.2978Y-4.7104
T4
X5.878Y-3.773
X5.978Y-3.773
X6.078Y-3.773
X6.178Y-3.773
X6.278Y-3.773
T0
M30
