G04 #@! TF.GenerationSoftware,KiCad,Pcbnew,(5.1.4)-1*
G04 #@! TF.CreationDate,2020-01-26T17:58:18+01:00*
G04 #@! TF.ProjectId,HM-LC-Sw1-Pl-DN-R1_S26,484d2d4c-432d-4537-9731-2d506c2d444e,rev?*
G04 #@! TF.SameCoordinates,Original*
G04 #@! TF.FileFunction,Soldermask,Top*
G04 #@! TF.FilePolarity,Negative*
%FSLAX46Y46*%
G04 Gerber Fmt 4.6, Leading zero omitted, Abs format (unit mm)*
G04 Created by KiCad (PCBNEW (5.1.4)-1) date 2020-01-26 17:58:18*
%MOMM*%
%LPD*%
G04 APERTURE LIST*
%ADD10C,0.150000*%
G04 APERTURE END LIST*
D10*
G36*
X160205684Y-118850224D02*
G01*
X160355823Y-118912413D01*
X160490946Y-119002700D01*
X160605860Y-119117614D01*
X160696147Y-119252737D01*
X160758336Y-119402876D01*
X160776244Y-119492907D01*
X160783357Y-119516356D01*
X160790040Y-119528859D01*
X160790040Y-121693520D01*
X159140040Y-121693520D01*
X159140040Y-119528859D01*
X159146723Y-119516356D01*
X159153836Y-119492907D01*
X159171744Y-119402876D01*
X159233933Y-119252737D01*
X159324220Y-119117614D01*
X159439134Y-119002700D01*
X159574257Y-118912413D01*
X159724396Y-118850224D01*
X159883783Y-118818520D01*
X160046297Y-118818520D01*
X160205684Y-118850224D01*
X160205684Y-118850224D01*
G37*
G36*
X146205684Y-118850224D02*
G01*
X146355823Y-118912413D01*
X146490946Y-119002700D01*
X146605860Y-119117614D01*
X146696147Y-119252737D01*
X146758336Y-119402876D01*
X146776244Y-119492907D01*
X146783357Y-119516356D01*
X146790040Y-119528859D01*
X146790040Y-121693520D01*
X145140040Y-121693520D01*
X145140040Y-119528859D01*
X145146723Y-119516356D01*
X145153836Y-119492907D01*
X145171744Y-119402876D01*
X145233933Y-119252737D01*
X145324220Y-119117614D01*
X145439134Y-119002700D01*
X145574257Y-118912413D01*
X145724396Y-118850224D01*
X145883783Y-118818520D01*
X146046297Y-118818520D01*
X146205684Y-118850224D01*
X146205684Y-118850224D01*
G37*
G36*
X148205684Y-118850224D02*
G01*
X148355823Y-118912413D01*
X148490946Y-119002700D01*
X148605860Y-119117614D01*
X148696147Y-119252737D01*
X148758336Y-119402876D01*
X148776244Y-119492907D01*
X148783357Y-119516356D01*
X148790040Y-119528859D01*
X148790040Y-121693520D01*
X147140040Y-121693520D01*
X147140040Y-119528859D01*
X147146723Y-119516356D01*
X147153836Y-119492907D01*
X147171744Y-119402876D01*
X147233933Y-119252737D01*
X147324220Y-119117614D01*
X147439134Y-119002700D01*
X147574257Y-118912413D01*
X147724396Y-118850224D01*
X147883783Y-118818520D01*
X148046297Y-118818520D01*
X148205684Y-118850224D01*
X148205684Y-118850224D01*
G37*
G36*
X150205684Y-118850224D02*
G01*
X150355823Y-118912413D01*
X150490946Y-119002700D01*
X150605860Y-119117614D01*
X150696147Y-119252737D01*
X150758336Y-119402876D01*
X150776244Y-119492907D01*
X150783357Y-119516356D01*
X150790040Y-119528859D01*
X150790040Y-121693520D01*
X149140040Y-121693520D01*
X149140040Y-119528859D01*
X149146723Y-119516356D01*
X149153836Y-119492907D01*
X149171744Y-119402876D01*
X149233933Y-119252737D01*
X149324220Y-119117614D01*
X149439134Y-119002700D01*
X149574257Y-118912413D01*
X149724396Y-118850224D01*
X149883783Y-118818520D01*
X150046297Y-118818520D01*
X150205684Y-118850224D01*
X150205684Y-118850224D01*
G37*
G36*
X152205684Y-118850224D02*
G01*
X152355823Y-118912413D01*
X152490946Y-119002700D01*
X152605860Y-119117614D01*
X152696147Y-119252737D01*
X152758336Y-119402876D01*
X152776244Y-119492907D01*
X152783357Y-119516356D01*
X152790040Y-119528859D01*
X152790040Y-121693520D01*
X151140040Y-121693520D01*
X151140040Y-119528859D01*
X151146723Y-119516356D01*
X151153836Y-119492907D01*
X151171744Y-119402876D01*
X151233933Y-119252737D01*
X151324220Y-119117614D01*
X151439134Y-119002700D01*
X151574257Y-118912413D01*
X151724396Y-118850224D01*
X151883783Y-118818520D01*
X152046297Y-118818520D01*
X152205684Y-118850224D01*
X152205684Y-118850224D01*
G37*
G36*
X154205684Y-118850224D02*
G01*
X154355823Y-118912413D01*
X154490946Y-119002700D01*
X154605860Y-119117614D01*
X154696147Y-119252737D01*
X154758336Y-119402876D01*
X154776244Y-119492907D01*
X154783357Y-119516356D01*
X154790040Y-119528859D01*
X154790040Y-121693520D01*
X153140040Y-121693520D01*
X153140040Y-119528859D01*
X153146723Y-119516356D01*
X153153836Y-119492907D01*
X153171744Y-119402876D01*
X153233933Y-119252737D01*
X153324220Y-119117614D01*
X153439134Y-119002700D01*
X153574257Y-118912413D01*
X153724396Y-118850224D01*
X153883783Y-118818520D01*
X154046297Y-118818520D01*
X154205684Y-118850224D01*
X154205684Y-118850224D01*
G37*
G36*
X156205684Y-118850224D02*
G01*
X156355823Y-118912413D01*
X156490946Y-119002700D01*
X156605860Y-119117614D01*
X156696147Y-119252737D01*
X156758336Y-119402876D01*
X156776244Y-119492907D01*
X156783357Y-119516356D01*
X156790040Y-119528859D01*
X156790040Y-121693520D01*
X155140040Y-121693520D01*
X155140040Y-119528859D01*
X155146723Y-119516356D01*
X155153836Y-119492907D01*
X155171744Y-119402876D01*
X155233933Y-119252737D01*
X155324220Y-119117614D01*
X155439134Y-119002700D01*
X155574257Y-118912413D01*
X155724396Y-118850224D01*
X155883783Y-118818520D01*
X156046297Y-118818520D01*
X156205684Y-118850224D01*
X156205684Y-118850224D01*
G37*
G36*
X158205684Y-118850224D02*
G01*
X158355823Y-118912413D01*
X158490946Y-119002700D01*
X158605860Y-119117614D01*
X158696147Y-119252737D01*
X158758336Y-119402876D01*
X158776244Y-119492907D01*
X158783357Y-119516356D01*
X158790040Y-119528859D01*
X158790040Y-121693520D01*
X157140040Y-121693520D01*
X157140040Y-119528859D01*
X157146723Y-119516356D01*
X157153836Y-119492907D01*
X157171744Y-119402876D01*
X157233933Y-119252737D01*
X157324220Y-119117614D01*
X157439134Y-119002700D01*
X157574257Y-118912413D01*
X157724396Y-118850224D01*
X157883783Y-118818520D01*
X158046297Y-118818520D01*
X158205684Y-118850224D01*
X158205684Y-118850224D01*
G37*
G36*
X164522800Y-113168000D02*
G01*
X162222800Y-113168000D01*
X162222800Y-111368000D01*
X164522800Y-111368000D01*
X164522800Y-113168000D01*
X164522800Y-113168000D01*
G37*
G36*
X164522800Y-110602600D02*
G01*
X162222800Y-110602600D01*
X162222800Y-108802600D01*
X164522800Y-108802600D01*
X164522800Y-110602600D01*
X164522800Y-110602600D01*
G37*
G36*
X164522800Y-108011800D02*
G01*
X162222800Y-108011800D01*
X162222800Y-106211800D01*
X164522800Y-106211800D01*
X164522800Y-108011800D01*
X164522800Y-108011800D01*
G37*
G36*
X154185536Y-100719054D02*
G01*
X154277305Y-100737308D01*
X154450194Y-100808921D01*
X154605790Y-100912887D01*
X154738113Y-101045210D01*
X154842079Y-101200806D01*
X154913692Y-101373695D01*
X154950200Y-101557233D01*
X154950200Y-101744367D01*
X154913692Y-101927905D01*
X154842079Y-102100794D01*
X154738113Y-102256390D01*
X154605790Y-102388713D01*
X154450194Y-102492679D01*
X154277305Y-102564292D01*
X154185536Y-102582546D01*
X154093768Y-102600800D01*
X153906632Y-102600800D01*
X153814864Y-102582546D01*
X153723095Y-102564292D01*
X153550206Y-102492679D01*
X153394610Y-102388713D01*
X153262287Y-102256390D01*
X153158321Y-102100794D01*
X153086708Y-101927905D01*
X153050200Y-101744367D01*
X153050200Y-101557233D01*
X153086708Y-101373695D01*
X153158321Y-101200806D01*
X153262287Y-101045210D01*
X153394610Y-100912887D01*
X153550206Y-100808921D01*
X153723095Y-100737308D01*
X153814864Y-100719054D01*
X153906632Y-100700800D01*
X154093768Y-100700800D01*
X154185536Y-100719054D01*
X154185536Y-100719054D01*
G37*
G36*
X157068280Y-102464600D02*
G01*
X155768280Y-102464600D01*
X155768280Y-99414600D01*
X157068280Y-99414600D01*
X157068280Y-102464600D01*
X157068280Y-102464600D01*
G37*
G36*
X152168280Y-102464600D02*
G01*
X150868280Y-102464600D01*
X150868280Y-99414600D01*
X152168280Y-99414600D01*
X152168280Y-102464600D01*
X152168280Y-102464600D01*
G37*
G36*
X148125000Y-99225000D02*
G01*
X146475000Y-99225000D01*
X146475000Y-97575000D01*
X148125000Y-97575000D01*
X148125000Y-99225000D01*
X148125000Y-99225000D01*
G37*
G36*
X152126032Y-94714469D02*
G01*
X152220285Y-94743061D01*
X152314535Y-94771651D01*
X152314537Y-94771652D01*
X152488258Y-94864507D01*
X152640528Y-94989472D01*
X152765493Y-95141742D01*
X152858348Y-95315463D01*
X152915531Y-95503968D01*
X152934838Y-95700000D01*
X152915531Y-95896032D01*
X152858348Y-96084537D01*
X152765493Y-96258258D01*
X152640528Y-96410528D01*
X152488258Y-96535493D01*
X152314537Y-96628348D01*
X152314535Y-96628349D01*
X152220284Y-96656940D01*
X152126032Y-96685531D01*
X151979124Y-96700000D01*
X151880876Y-96700000D01*
X151733968Y-96685531D01*
X151639716Y-96656940D01*
X151545465Y-96628349D01*
X151545463Y-96628348D01*
X151371742Y-96535493D01*
X151219472Y-96410528D01*
X151094507Y-96258258D01*
X151001652Y-96084537D01*
X150944469Y-95896032D01*
X150925162Y-95700000D01*
X150944469Y-95503968D01*
X151001652Y-95315463D01*
X151094507Y-95141742D01*
X151219472Y-94989472D01*
X151371742Y-94864507D01*
X151545463Y-94771652D01*
X151545465Y-94771651D01*
X151639715Y-94743061D01*
X151733968Y-94714469D01*
X151880876Y-94700000D01*
X151979124Y-94700000D01*
X152126032Y-94714469D01*
X152126032Y-94714469D01*
G37*
G36*
X159746032Y-94714469D02*
G01*
X159840285Y-94743061D01*
X159934535Y-94771651D01*
X159934537Y-94771652D01*
X160108258Y-94864507D01*
X160260528Y-94989472D01*
X160385493Y-95141742D01*
X160478348Y-95315463D01*
X160535531Y-95503968D01*
X160554838Y-95700000D01*
X160535531Y-95896032D01*
X160478348Y-96084537D01*
X160385493Y-96258258D01*
X160260528Y-96410528D01*
X160108258Y-96535493D01*
X159934537Y-96628348D01*
X159934535Y-96628349D01*
X159840284Y-96656940D01*
X159746032Y-96685531D01*
X159599124Y-96700000D01*
X159500876Y-96700000D01*
X159353968Y-96685531D01*
X159259716Y-96656940D01*
X159165465Y-96628349D01*
X159165463Y-96628348D01*
X158991742Y-96535493D01*
X158839472Y-96410528D01*
X158714507Y-96258258D01*
X158621652Y-96084537D01*
X158564469Y-95896032D01*
X158545162Y-95700000D01*
X158564469Y-95503968D01*
X158621652Y-95315463D01*
X158714507Y-95141742D01*
X158839472Y-94989472D01*
X158991742Y-94864507D01*
X159165463Y-94771652D01*
X159165465Y-94771651D01*
X159259715Y-94743061D01*
X159353968Y-94714469D01*
X159500876Y-94700000D01*
X159599124Y-94700000D01*
X159746032Y-94714469D01*
X159746032Y-94714469D01*
G37*
G36*
X157206032Y-94714469D02*
G01*
X157300285Y-94743061D01*
X157394535Y-94771651D01*
X157394537Y-94771652D01*
X157568258Y-94864507D01*
X157720528Y-94989472D01*
X157845493Y-95141742D01*
X157938348Y-95315463D01*
X157995531Y-95503968D01*
X158014838Y-95700000D01*
X157995531Y-95896032D01*
X157938348Y-96084537D01*
X157845493Y-96258258D01*
X157720528Y-96410528D01*
X157568258Y-96535493D01*
X157394537Y-96628348D01*
X157394535Y-96628349D01*
X157300284Y-96656940D01*
X157206032Y-96685531D01*
X157059124Y-96700000D01*
X156960876Y-96700000D01*
X156813968Y-96685531D01*
X156719716Y-96656940D01*
X156625465Y-96628349D01*
X156625463Y-96628348D01*
X156451742Y-96535493D01*
X156299472Y-96410528D01*
X156174507Y-96258258D01*
X156081652Y-96084537D01*
X156024469Y-95896032D01*
X156005162Y-95700000D01*
X156024469Y-95503968D01*
X156081652Y-95315463D01*
X156174507Y-95141742D01*
X156299472Y-94989472D01*
X156451742Y-94864507D01*
X156625463Y-94771652D01*
X156625465Y-94771651D01*
X156719715Y-94743061D01*
X156813968Y-94714469D01*
X156960876Y-94700000D01*
X157059124Y-94700000D01*
X157206032Y-94714469D01*
X157206032Y-94714469D01*
G37*
G36*
X154666032Y-94714469D02*
G01*
X154760285Y-94743061D01*
X154854535Y-94771651D01*
X154854537Y-94771652D01*
X155028258Y-94864507D01*
X155180528Y-94989472D01*
X155305493Y-95141742D01*
X155398348Y-95315463D01*
X155455531Y-95503968D01*
X155474838Y-95700000D01*
X155455531Y-95896032D01*
X155398348Y-96084537D01*
X155305493Y-96258258D01*
X155180528Y-96410528D01*
X155028258Y-96535493D01*
X154854537Y-96628348D01*
X154854535Y-96628349D01*
X154760284Y-96656940D01*
X154666032Y-96685531D01*
X154519124Y-96700000D01*
X154420876Y-96700000D01*
X154273968Y-96685531D01*
X154179716Y-96656940D01*
X154085465Y-96628349D01*
X154085463Y-96628348D01*
X153911742Y-96535493D01*
X153759472Y-96410528D01*
X153634507Y-96258258D01*
X153541652Y-96084537D01*
X153484469Y-95896032D01*
X153465162Y-95700000D01*
X153484469Y-95503968D01*
X153541652Y-95315463D01*
X153634507Y-95141742D01*
X153759472Y-94989472D01*
X153911742Y-94864507D01*
X154085463Y-94771652D01*
X154085465Y-94771651D01*
X154179715Y-94743061D01*
X154273968Y-94714469D01*
X154420876Y-94700000D01*
X154519124Y-94700000D01*
X154666032Y-94714469D01*
X154666032Y-94714469D01*
G37*
G36*
X147850000Y-96700000D02*
G01*
X145850000Y-96700000D01*
X145850000Y-94700000D01*
X147850000Y-94700000D01*
X147850000Y-96700000D01*
X147850000Y-96700000D01*
G37*
G36*
X149586032Y-94714469D02*
G01*
X149680285Y-94743061D01*
X149774535Y-94771651D01*
X149774537Y-94771652D01*
X149948258Y-94864507D01*
X150100528Y-94989472D01*
X150225493Y-95141742D01*
X150318348Y-95315463D01*
X150375531Y-95503968D01*
X150394838Y-95700000D01*
X150375531Y-95896032D01*
X150318348Y-96084537D01*
X150225493Y-96258258D01*
X150100528Y-96410528D01*
X149948258Y-96535493D01*
X149774537Y-96628348D01*
X149774535Y-96628349D01*
X149680284Y-96656940D01*
X149586032Y-96685531D01*
X149439124Y-96700000D01*
X149340876Y-96700000D01*
X149193968Y-96685531D01*
X149099716Y-96656940D01*
X149005465Y-96628349D01*
X149005463Y-96628348D01*
X148831742Y-96535493D01*
X148679472Y-96410528D01*
X148554507Y-96258258D01*
X148461652Y-96084537D01*
X148404469Y-95896032D01*
X148385162Y-95700000D01*
X148404469Y-95503968D01*
X148461652Y-95315463D01*
X148554507Y-95141742D01*
X148679472Y-94989472D01*
X148831742Y-94864507D01*
X149005463Y-94771652D01*
X149005465Y-94771651D01*
X149099715Y-94743061D01*
X149193968Y-94714469D01*
X149340876Y-94700000D01*
X149439124Y-94700000D01*
X149586032Y-94714469D01*
X149586032Y-94714469D01*
G37*
M02*
