G04 #@! TF.GenerationSoftware,KiCad,Pcbnew,(5.1.4)-1*
G04 #@! TF.CreationDate,2020-01-26T17:58:18+01:00*
G04 #@! TF.ProjectId,HM-LC-Sw1-Pl-DN-R1_S26,484d2d4c-432d-4537-9731-2d506c2d444e,rev?*
G04 #@! TF.SameCoordinates,Original*
G04 #@! TF.FileFunction,Soldermask,Bot*
G04 #@! TF.FilePolarity,Negative*
%FSLAX46Y46*%
G04 Gerber Fmt 4.6, Leading zero omitted, Abs format (unit mm)*
G04 Created by KiCad (PCBNEW (5.1.4)-1) date 2020-01-26 17:58:18*
%MOMM*%
%LPD*%
G04 APERTURE LIST*
%ADD10C,0.150000*%
G04 APERTURE END LIST*
D10*
G36*
X160205684Y-118850224D02*
G01*
X160355823Y-118912413D01*
X160490946Y-119002700D01*
X160605860Y-119117614D01*
X160696147Y-119252737D01*
X160758336Y-119402876D01*
X160790040Y-119562263D01*
X160790040Y-119724777D01*
X160758336Y-119884164D01*
X160696147Y-120034303D01*
X160605860Y-120169426D01*
X160490946Y-120284340D01*
X160355823Y-120374627D01*
X160205684Y-120436816D01*
X160046297Y-120468520D01*
X159883783Y-120468520D01*
X159724396Y-120436816D01*
X159574257Y-120374627D01*
X159439134Y-120284340D01*
X159324220Y-120169426D01*
X159233933Y-120034303D01*
X159171744Y-119884164D01*
X159140040Y-119724777D01*
X159140040Y-119562263D01*
X159171744Y-119402876D01*
X159233933Y-119252737D01*
X159324220Y-119117614D01*
X159439134Y-119002700D01*
X159574257Y-118912413D01*
X159724396Y-118850224D01*
X159883783Y-118818520D01*
X160046297Y-118818520D01*
X160205684Y-118850224D01*
X160205684Y-118850224D01*
G37*
G36*
X146205684Y-118850224D02*
G01*
X146355823Y-118912413D01*
X146490946Y-119002700D01*
X146605860Y-119117614D01*
X146696147Y-119252737D01*
X146758336Y-119402876D01*
X146790040Y-119562263D01*
X146790040Y-119724777D01*
X146758336Y-119884164D01*
X146696147Y-120034303D01*
X146605860Y-120169426D01*
X146490946Y-120284340D01*
X146355823Y-120374627D01*
X146205684Y-120436816D01*
X146046297Y-120468520D01*
X145883783Y-120468520D01*
X145724396Y-120436816D01*
X145574257Y-120374627D01*
X145439134Y-120284340D01*
X145324220Y-120169426D01*
X145233933Y-120034303D01*
X145171744Y-119884164D01*
X145140040Y-119724777D01*
X145140040Y-119562263D01*
X145171744Y-119402876D01*
X145233933Y-119252737D01*
X145324220Y-119117614D01*
X145439134Y-119002700D01*
X145574257Y-118912413D01*
X145724396Y-118850224D01*
X145883783Y-118818520D01*
X146046297Y-118818520D01*
X146205684Y-118850224D01*
X146205684Y-118850224D01*
G37*
G36*
X148205684Y-118850224D02*
G01*
X148355823Y-118912413D01*
X148490946Y-119002700D01*
X148605860Y-119117614D01*
X148696147Y-119252737D01*
X148758336Y-119402876D01*
X148790040Y-119562263D01*
X148790040Y-119724777D01*
X148758336Y-119884164D01*
X148696147Y-120034303D01*
X148605860Y-120169426D01*
X148490946Y-120284340D01*
X148355823Y-120374627D01*
X148205684Y-120436816D01*
X148046297Y-120468520D01*
X147883783Y-120468520D01*
X147724396Y-120436816D01*
X147574257Y-120374627D01*
X147439134Y-120284340D01*
X147324220Y-120169426D01*
X147233933Y-120034303D01*
X147171744Y-119884164D01*
X147140040Y-119724777D01*
X147140040Y-119562263D01*
X147171744Y-119402876D01*
X147233933Y-119252737D01*
X147324220Y-119117614D01*
X147439134Y-119002700D01*
X147574257Y-118912413D01*
X147724396Y-118850224D01*
X147883783Y-118818520D01*
X148046297Y-118818520D01*
X148205684Y-118850224D01*
X148205684Y-118850224D01*
G37*
G36*
X150205684Y-118850224D02*
G01*
X150355823Y-118912413D01*
X150490946Y-119002700D01*
X150605860Y-119117614D01*
X150696147Y-119252737D01*
X150758336Y-119402876D01*
X150790040Y-119562263D01*
X150790040Y-119724777D01*
X150758336Y-119884164D01*
X150696147Y-120034303D01*
X150605860Y-120169426D01*
X150490946Y-120284340D01*
X150355823Y-120374627D01*
X150205684Y-120436816D01*
X150046297Y-120468520D01*
X149883783Y-120468520D01*
X149724396Y-120436816D01*
X149574257Y-120374627D01*
X149439134Y-120284340D01*
X149324220Y-120169426D01*
X149233933Y-120034303D01*
X149171744Y-119884164D01*
X149140040Y-119724777D01*
X149140040Y-119562263D01*
X149171744Y-119402876D01*
X149233933Y-119252737D01*
X149324220Y-119117614D01*
X149439134Y-119002700D01*
X149574257Y-118912413D01*
X149724396Y-118850224D01*
X149883783Y-118818520D01*
X150046297Y-118818520D01*
X150205684Y-118850224D01*
X150205684Y-118850224D01*
G37*
G36*
X152205684Y-118850224D02*
G01*
X152355823Y-118912413D01*
X152490946Y-119002700D01*
X152605860Y-119117614D01*
X152696147Y-119252737D01*
X152758336Y-119402876D01*
X152790040Y-119562263D01*
X152790040Y-119724777D01*
X152758336Y-119884164D01*
X152696147Y-120034303D01*
X152605860Y-120169426D01*
X152490946Y-120284340D01*
X152355823Y-120374627D01*
X152205684Y-120436816D01*
X152046297Y-120468520D01*
X151883783Y-120468520D01*
X151724396Y-120436816D01*
X151574257Y-120374627D01*
X151439134Y-120284340D01*
X151324220Y-120169426D01*
X151233933Y-120034303D01*
X151171744Y-119884164D01*
X151140040Y-119724777D01*
X151140040Y-119562263D01*
X151171744Y-119402876D01*
X151233933Y-119252737D01*
X151324220Y-119117614D01*
X151439134Y-119002700D01*
X151574257Y-118912413D01*
X151724396Y-118850224D01*
X151883783Y-118818520D01*
X152046297Y-118818520D01*
X152205684Y-118850224D01*
X152205684Y-118850224D01*
G37*
G36*
X154205684Y-118850224D02*
G01*
X154355823Y-118912413D01*
X154490946Y-119002700D01*
X154605860Y-119117614D01*
X154696147Y-119252737D01*
X154758336Y-119402876D01*
X154790040Y-119562263D01*
X154790040Y-119724777D01*
X154758336Y-119884164D01*
X154696147Y-120034303D01*
X154605860Y-120169426D01*
X154490946Y-120284340D01*
X154355823Y-120374627D01*
X154205684Y-120436816D01*
X154046297Y-120468520D01*
X153883783Y-120468520D01*
X153724396Y-120436816D01*
X153574257Y-120374627D01*
X153439134Y-120284340D01*
X153324220Y-120169426D01*
X153233933Y-120034303D01*
X153171744Y-119884164D01*
X153140040Y-119724777D01*
X153140040Y-119562263D01*
X153171744Y-119402876D01*
X153233933Y-119252737D01*
X153324220Y-119117614D01*
X153439134Y-119002700D01*
X153574257Y-118912413D01*
X153724396Y-118850224D01*
X153883783Y-118818520D01*
X154046297Y-118818520D01*
X154205684Y-118850224D01*
X154205684Y-118850224D01*
G37*
G36*
X158205684Y-118850224D02*
G01*
X158355823Y-118912413D01*
X158490946Y-119002700D01*
X158605860Y-119117614D01*
X158696147Y-119252737D01*
X158758336Y-119402876D01*
X158790040Y-119562263D01*
X158790040Y-119724777D01*
X158758336Y-119884164D01*
X158696147Y-120034303D01*
X158605860Y-120169426D01*
X158490946Y-120284340D01*
X158355823Y-120374627D01*
X158205684Y-120436816D01*
X158046297Y-120468520D01*
X157883783Y-120468520D01*
X157724396Y-120436816D01*
X157574257Y-120374627D01*
X157439134Y-120284340D01*
X157324220Y-120169426D01*
X157233933Y-120034303D01*
X157171744Y-119884164D01*
X157140040Y-119724777D01*
X157140040Y-119562263D01*
X157171744Y-119402876D01*
X157233933Y-119252737D01*
X157324220Y-119117614D01*
X157439134Y-119002700D01*
X157574257Y-118912413D01*
X157724396Y-118850224D01*
X157883783Y-118818520D01*
X158046297Y-118818520D01*
X158205684Y-118850224D01*
X158205684Y-118850224D01*
G37*
G36*
X156205684Y-118850224D02*
G01*
X156355823Y-118912413D01*
X156490946Y-119002700D01*
X156605860Y-119117614D01*
X156696147Y-119252737D01*
X156758336Y-119402876D01*
X156790040Y-119562263D01*
X156790040Y-119724777D01*
X156758336Y-119884164D01*
X156696147Y-120034303D01*
X156605860Y-120169426D01*
X156490946Y-120284340D01*
X156355823Y-120374627D01*
X156205684Y-120436816D01*
X156046297Y-120468520D01*
X155883783Y-120468520D01*
X155724396Y-120436816D01*
X155574257Y-120374627D01*
X155439134Y-120284340D01*
X155324220Y-120169426D01*
X155233933Y-120034303D01*
X155171744Y-119884164D01*
X155140040Y-119724777D01*
X155140040Y-119562263D01*
X155171744Y-119402876D01*
X155233933Y-119252737D01*
X155324220Y-119117614D01*
X155439134Y-119002700D01*
X155574257Y-118912413D01*
X155724396Y-118850224D01*
X155883783Y-118818520D01*
X156046297Y-118818520D01*
X156205684Y-118850224D01*
X156205684Y-118850224D01*
G37*
G36*
X147453027Y-116830292D02*
G01*
X147498795Y-116844175D01*
X147540973Y-116866720D01*
X147577941Y-116897059D01*
X147608280Y-116934027D01*
X147630825Y-116976205D01*
X147644708Y-117021973D01*
X147650000Y-117075705D01*
X147650000Y-118274295D01*
X147644708Y-118328027D01*
X147630825Y-118373795D01*
X147608280Y-118415973D01*
X147577941Y-118452941D01*
X147540973Y-118483280D01*
X147498795Y-118505825D01*
X147453027Y-118519708D01*
X147399295Y-118525000D01*
X146450705Y-118525000D01*
X146396973Y-118519708D01*
X146351205Y-118505825D01*
X146309027Y-118483280D01*
X146272059Y-118452941D01*
X146241720Y-118415973D01*
X146219175Y-118373795D01*
X146205292Y-118328027D01*
X146200000Y-118274295D01*
X146200000Y-117075705D01*
X146205292Y-117021973D01*
X146219175Y-116976205D01*
X146241720Y-116934027D01*
X146272059Y-116897059D01*
X146309027Y-116866720D01*
X146351205Y-116844175D01*
X146396973Y-116830292D01*
X146450705Y-116825000D01*
X147399295Y-116825000D01*
X147453027Y-116830292D01*
X147453027Y-116830292D01*
G37*
G36*
X149503027Y-116830292D02*
G01*
X149548795Y-116844175D01*
X149590973Y-116866720D01*
X149627941Y-116897059D01*
X149658280Y-116934027D01*
X149680825Y-116976205D01*
X149694708Y-117021973D01*
X149700000Y-117075705D01*
X149700000Y-118274295D01*
X149694708Y-118328027D01*
X149680825Y-118373795D01*
X149658280Y-118415973D01*
X149627941Y-118452941D01*
X149590973Y-118483280D01*
X149548795Y-118505825D01*
X149503027Y-118519708D01*
X149449295Y-118525000D01*
X148500705Y-118525000D01*
X148446973Y-118519708D01*
X148401205Y-118505825D01*
X148359027Y-118483280D01*
X148322059Y-118452941D01*
X148291720Y-118415973D01*
X148269175Y-118373795D01*
X148255292Y-118328027D01*
X148250000Y-118274295D01*
X148250000Y-117075705D01*
X148255292Y-117021973D01*
X148269175Y-116976205D01*
X148291720Y-116934027D01*
X148322059Y-116897059D01*
X148359027Y-116866720D01*
X148401205Y-116844175D01*
X148446973Y-116830292D01*
X148500705Y-116825000D01*
X149449295Y-116825000D01*
X149503027Y-116830292D01*
X149503027Y-116830292D01*
G37*
G36*
X148485564Y-114119285D02*
G01*
X148531332Y-114133168D01*
X148573510Y-114155713D01*
X148615243Y-114189963D01*
X149286005Y-114860725D01*
X149320255Y-114902458D01*
X149342800Y-114944636D01*
X149356683Y-114990404D01*
X149361370Y-115037996D01*
X149356683Y-115085588D01*
X149342800Y-115131356D01*
X149320255Y-115173534D01*
X149286005Y-115215267D01*
X148438467Y-116062805D01*
X148396734Y-116097055D01*
X148354556Y-116119600D01*
X148308788Y-116133483D01*
X148261196Y-116138170D01*
X148213604Y-116133483D01*
X148167836Y-116119600D01*
X148125658Y-116097055D01*
X148083925Y-116062805D01*
X147413163Y-115392043D01*
X147378913Y-115350310D01*
X147356368Y-115308132D01*
X147342485Y-115262364D01*
X147337798Y-115214772D01*
X147342485Y-115167180D01*
X147356368Y-115121412D01*
X147378913Y-115079234D01*
X147413163Y-115037501D01*
X148260701Y-114189963D01*
X148302434Y-114155713D01*
X148344612Y-114133168D01*
X148390380Y-114119285D01*
X148437972Y-114114598D01*
X148485564Y-114119285D01*
X148485564Y-114119285D01*
G37*
G36*
X147838073Y-109777786D02*
G01*
X147845186Y-109801235D01*
X147856737Y-109822846D01*
X147872277Y-109841782D01*
X148402614Y-110372119D01*
X148402614Y-110372118D01*
X149003655Y-110973159D01*
X149003655Y-110973160D01*
X151231041Y-113200546D01*
X151231041Y-113200545D01*
X151832082Y-113801586D01*
X151832082Y-113801587D01*
X152362418Y-114331923D01*
X152381354Y-114347463D01*
X152402965Y-114359014D01*
X152426414Y-114366127D01*
X152438038Y-114367272D01*
X152426414Y-114368417D01*
X152402965Y-114375530D01*
X152381354Y-114387081D01*
X152362418Y-114402621D01*
X151054264Y-115710775D01*
X150453223Y-115109734D01*
X150453224Y-115109734D01*
X149922894Y-114579404D01*
X149922893Y-114579404D01*
X147624796Y-112281307D01*
X147624797Y-112281307D01*
X147094467Y-111750977D01*
X147094466Y-111750977D01*
X146493425Y-111149936D01*
X147801579Y-109841782D01*
X147817119Y-109822846D01*
X147828670Y-109801235D01*
X147835783Y-109777786D01*
X147836928Y-109766162D01*
X147838073Y-109777786D01*
X147838073Y-109777786D01*
G37*
G36*
X157065817Y-109777786D02*
G01*
X157072930Y-109801235D01*
X157084481Y-109822846D01*
X157100021Y-109841782D01*
X158408175Y-111149936D01*
X153847336Y-115710775D01*
X152539182Y-114402621D01*
X152520246Y-114387081D01*
X152498635Y-114375530D01*
X152475186Y-114368417D01*
X152463562Y-114367272D01*
X152475186Y-114366127D01*
X152498635Y-114359014D01*
X152520246Y-114347463D01*
X152539182Y-114331923D01*
X153069519Y-113801587D01*
X153069518Y-113801586D01*
X153670559Y-113200545D01*
X153670560Y-113200546D01*
X153758937Y-113112168D01*
X155367616Y-111503489D01*
X155897946Y-110973160D01*
X155897945Y-110973159D01*
X156498986Y-110372118D01*
X156498987Y-110372119D01*
X156587364Y-110283741D01*
X157029323Y-109841782D01*
X157044863Y-109822846D01*
X157056414Y-109801235D01*
X157063527Y-109777786D01*
X157064672Y-109766162D01*
X157065817Y-109777786D01*
X157065817Y-109777786D01*
G37*
G36*
X147035996Y-112669717D02*
G01*
X147081764Y-112683600D01*
X147123942Y-112706145D01*
X147165675Y-112740395D01*
X147836437Y-113411157D01*
X147870687Y-113452890D01*
X147893232Y-113495068D01*
X147907115Y-113540836D01*
X147911802Y-113588428D01*
X147907115Y-113636020D01*
X147893232Y-113681788D01*
X147870687Y-113723966D01*
X147836437Y-113765699D01*
X146988899Y-114613237D01*
X146947166Y-114647487D01*
X146904988Y-114670032D01*
X146859220Y-114683915D01*
X146811628Y-114688602D01*
X146764036Y-114683915D01*
X146718268Y-114670032D01*
X146676090Y-114647487D01*
X146634357Y-114613237D01*
X145963595Y-113942475D01*
X145929345Y-113900742D01*
X145906800Y-113858564D01*
X145892917Y-113812796D01*
X145888230Y-113765204D01*
X145892917Y-113717612D01*
X145906800Y-113671844D01*
X145929345Y-113629666D01*
X145963595Y-113587933D01*
X146811133Y-112740395D01*
X146852866Y-112706145D01*
X146895044Y-112683600D01*
X146940812Y-112669717D01*
X146988404Y-112665030D01*
X147035996Y-112669717D01*
X147035996Y-112669717D01*
G37*
G36*
X164522800Y-113168000D02*
G01*
X162222800Y-113168000D01*
X162222800Y-111368000D01*
X164522800Y-111368000D01*
X164522800Y-113168000D01*
X164522800Y-113168000D01*
G37*
G36*
X160403027Y-111055292D02*
G01*
X160448795Y-111069175D01*
X160490973Y-111091720D01*
X160527941Y-111122059D01*
X160558280Y-111159027D01*
X160580825Y-111201205D01*
X160594708Y-111246973D01*
X160600000Y-111300705D01*
X160600000Y-112249295D01*
X160594708Y-112303027D01*
X160580825Y-112348795D01*
X160558280Y-112390973D01*
X160527941Y-112427941D01*
X160490973Y-112458280D01*
X160448795Y-112480825D01*
X160403027Y-112494708D01*
X160349295Y-112500000D01*
X159150705Y-112500000D01*
X159096973Y-112494708D01*
X159051205Y-112480825D01*
X159009027Y-112458280D01*
X158972059Y-112427941D01*
X158941720Y-112390973D01*
X158919175Y-112348795D01*
X158905292Y-112303027D01*
X158900000Y-112249295D01*
X158900000Y-111300705D01*
X158905292Y-111246973D01*
X158919175Y-111201205D01*
X158941720Y-111159027D01*
X158972059Y-111122059D01*
X159009027Y-111091720D01*
X159051205Y-111069175D01*
X159096973Y-111055292D01*
X159150705Y-111050000D01*
X160349295Y-111050000D01*
X160403027Y-111055292D01*
X160403027Y-111055292D01*
G37*
G36*
X164522800Y-110602600D02*
G01*
X162222800Y-110602600D01*
X162222800Y-108802600D01*
X164522800Y-108802600D01*
X164522800Y-110602600D01*
X164522800Y-110602600D01*
G37*
G36*
X160403027Y-109005292D02*
G01*
X160448795Y-109019175D01*
X160490973Y-109041720D01*
X160527941Y-109072059D01*
X160558280Y-109109027D01*
X160580825Y-109151205D01*
X160594708Y-109196973D01*
X160600000Y-109250705D01*
X160600000Y-110199295D01*
X160594708Y-110253027D01*
X160580825Y-110298795D01*
X160558280Y-110340973D01*
X160527941Y-110377941D01*
X160490973Y-110408280D01*
X160448795Y-110430825D01*
X160403027Y-110444708D01*
X160349295Y-110450000D01*
X159150705Y-110450000D01*
X159096973Y-110444708D01*
X159051205Y-110430825D01*
X159009027Y-110408280D01*
X158972059Y-110377941D01*
X158941720Y-110340973D01*
X158919175Y-110298795D01*
X158905292Y-110253027D01*
X158900000Y-110199295D01*
X158900000Y-109250705D01*
X158905292Y-109196973D01*
X158919175Y-109151205D01*
X158941720Y-109109027D01*
X158972059Y-109072059D01*
X159009027Y-109041720D01*
X159051205Y-109019175D01*
X159096973Y-109005292D01*
X159150705Y-109000000D01*
X160349295Y-109000000D01*
X160403027Y-109005292D01*
X160403027Y-109005292D01*
G37*
G36*
X154448377Y-104397066D02*
G01*
X154448377Y-104397067D01*
X154978707Y-104927397D01*
X154978707Y-104927396D01*
X157276804Y-107225493D01*
X157276804Y-107225494D01*
X157807134Y-107755824D01*
X157807134Y-107755823D01*
X158408175Y-108356864D01*
X157100021Y-109665018D01*
X157084481Y-109683954D01*
X157072930Y-109705565D01*
X157065817Y-109729014D01*
X157064672Y-109740638D01*
X157063527Y-109729014D01*
X157056414Y-109705565D01*
X157044863Y-109683954D01*
X157029323Y-109665018D01*
X156498987Y-109134682D01*
X156498986Y-109134682D01*
X155897945Y-108533641D01*
X155897946Y-108533641D01*
X153670560Y-106306255D01*
X153670559Y-106306255D01*
X153069518Y-105705214D01*
X153069519Y-105705214D01*
X152539182Y-105174877D01*
X152520246Y-105159337D01*
X152498635Y-105147786D01*
X152475186Y-105140673D01*
X152463562Y-105139528D01*
X152475186Y-105138383D01*
X152498635Y-105131270D01*
X152520246Y-105119719D01*
X152539182Y-105104179D01*
X153847336Y-103796025D01*
X154448377Y-104397066D01*
X154448377Y-104397066D01*
G37*
G36*
X152362418Y-105104179D02*
G01*
X152381354Y-105119719D01*
X152402965Y-105131270D01*
X152426414Y-105138383D01*
X152438038Y-105139528D01*
X152426414Y-105140673D01*
X152402965Y-105147786D01*
X152381354Y-105159337D01*
X152362418Y-105174877D01*
X151832082Y-105705214D01*
X151231041Y-106306255D01*
X150665355Y-106871940D01*
X149533984Y-108003311D01*
X149003655Y-108533641D01*
X148402614Y-109134682D01*
X147872277Y-109665018D01*
X147856737Y-109683954D01*
X147845186Y-109705565D01*
X147838073Y-109729014D01*
X147836928Y-109740638D01*
X147835783Y-109729014D01*
X147828670Y-109705565D01*
X147817119Y-109683954D01*
X147801579Y-109665018D01*
X146493425Y-108356864D01*
X147094466Y-107755823D01*
X147094467Y-107755824D01*
X147182844Y-107667446D01*
X147624797Y-107225494D01*
X147624796Y-107225493D01*
X149922893Y-104927396D01*
X149922894Y-104927397D01*
X150011271Y-104839019D01*
X150453224Y-104397067D01*
X150453223Y-104397066D01*
X151054264Y-103796025D01*
X152362418Y-105104179D01*
X152362418Y-105104179D01*
G37*
G36*
X164522800Y-108011800D02*
G01*
X162222800Y-108011800D01*
X162222800Y-106211800D01*
X164522800Y-106211800D01*
X164522800Y-108011800D01*
X164522800Y-108011800D01*
G37*
G36*
X157810764Y-104667685D02*
G01*
X157856532Y-104681568D01*
X157898710Y-104704113D01*
X157940443Y-104738363D01*
X158611205Y-105409125D01*
X158645455Y-105450858D01*
X158668000Y-105493036D01*
X158681883Y-105538804D01*
X158686570Y-105586396D01*
X158681883Y-105633988D01*
X158668000Y-105679756D01*
X158645455Y-105721934D01*
X158611205Y-105763667D01*
X157763667Y-106611205D01*
X157721934Y-106645455D01*
X157679756Y-106668000D01*
X157633988Y-106681883D01*
X157586396Y-106686570D01*
X157538804Y-106681883D01*
X157493036Y-106668000D01*
X157450858Y-106645455D01*
X157409125Y-106611205D01*
X156738363Y-105940443D01*
X156704113Y-105898710D01*
X156681568Y-105856532D01*
X156667685Y-105810764D01*
X156662998Y-105763172D01*
X156667685Y-105715580D01*
X156681568Y-105669812D01*
X156704113Y-105627634D01*
X156738363Y-105585901D01*
X157585901Y-104738363D01*
X157627634Y-104704113D01*
X157669812Y-104681568D01*
X157715580Y-104667685D01*
X157763172Y-104662998D01*
X157810764Y-104667685D01*
X157810764Y-104667685D01*
G37*
G36*
X147403027Y-104380292D02*
G01*
X147448795Y-104394175D01*
X147490973Y-104416720D01*
X147527941Y-104447059D01*
X147558280Y-104484027D01*
X147580825Y-104526205D01*
X147594708Y-104571973D01*
X147600000Y-104625705D01*
X147600000Y-105574295D01*
X147594708Y-105628027D01*
X147580825Y-105673795D01*
X147558280Y-105715973D01*
X147527941Y-105752941D01*
X147490973Y-105783280D01*
X147448795Y-105805825D01*
X147403027Y-105819708D01*
X147349295Y-105825000D01*
X146150705Y-105825000D01*
X146096973Y-105819708D01*
X146051205Y-105805825D01*
X146009027Y-105783280D01*
X145972059Y-105752941D01*
X145941720Y-105715973D01*
X145919175Y-105673795D01*
X145905292Y-105628027D01*
X145900000Y-105574295D01*
X145900000Y-104625705D01*
X145905292Y-104571973D01*
X145919175Y-104526205D01*
X145941720Y-104484027D01*
X145972059Y-104447059D01*
X146009027Y-104416720D01*
X146051205Y-104394175D01*
X146096973Y-104380292D01*
X146150705Y-104375000D01*
X147349295Y-104375000D01*
X147403027Y-104380292D01*
X147403027Y-104380292D01*
G37*
G36*
X156361196Y-103218117D02*
G01*
X156406964Y-103232000D01*
X156449142Y-103254545D01*
X156490875Y-103288795D01*
X157161637Y-103959557D01*
X157195887Y-104001290D01*
X157218432Y-104043468D01*
X157232315Y-104089236D01*
X157237002Y-104136828D01*
X157232315Y-104184420D01*
X157218432Y-104230188D01*
X157195887Y-104272366D01*
X157161637Y-104314099D01*
X156314099Y-105161637D01*
X156272366Y-105195887D01*
X156230188Y-105218432D01*
X156184420Y-105232315D01*
X156136828Y-105237002D01*
X156089236Y-105232315D01*
X156043468Y-105218432D01*
X156001290Y-105195887D01*
X155959557Y-105161637D01*
X155288795Y-104490875D01*
X155254545Y-104449142D01*
X155232000Y-104406964D01*
X155218117Y-104361196D01*
X155213430Y-104313604D01*
X155218117Y-104266012D01*
X155232000Y-104220244D01*
X155254545Y-104178066D01*
X155288795Y-104136333D01*
X156136333Y-103288795D01*
X156178066Y-103254545D01*
X156220244Y-103232000D01*
X156266012Y-103218117D01*
X156313604Y-103213430D01*
X156361196Y-103218117D01*
X156361196Y-103218117D01*
G37*
G36*
X147403027Y-102330292D02*
G01*
X147448795Y-102344175D01*
X147490973Y-102366720D01*
X147527941Y-102397059D01*
X147558280Y-102434027D01*
X147580825Y-102476205D01*
X147594708Y-102521973D01*
X147600000Y-102575705D01*
X147600000Y-103524295D01*
X147594708Y-103578027D01*
X147580825Y-103623795D01*
X147558280Y-103665973D01*
X147527941Y-103702941D01*
X147490973Y-103733280D01*
X147448795Y-103755825D01*
X147403027Y-103769708D01*
X147349295Y-103775000D01*
X146150705Y-103775000D01*
X146096973Y-103769708D01*
X146051205Y-103755825D01*
X146009027Y-103733280D01*
X145972059Y-103702941D01*
X145941720Y-103665973D01*
X145919175Y-103623795D01*
X145905292Y-103578027D01*
X145900000Y-103524295D01*
X145900000Y-102575705D01*
X145905292Y-102521973D01*
X145919175Y-102476205D01*
X145941720Y-102434027D01*
X145972059Y-102397059D01*
X146009027Y-102366720D01*
X146051205Y-102344175D01*
X146096973Y-102330292D01*
X146150705Y-102325000D01*
X147349295Y-102325000D01*
X147403027Y-102330292D01*
X147403027Y-102330292D01*
G37*
G36*
X149453027Y-102305292D02*
G01*
X149498795Y-102319175D01*
X149540973Y-102341720D01*
X149577941Y-102372059D01*
X149608280Y-102409027D01*
X149630825Y-102451205D01*
X149644708Y-102496973D01*
X149650000Y-102550705D01*
X149650000Y-103499295D01*
X149644708Y-103553027D01*
X149630825Y-103598795D01*
X149608280Y-103640973D01*
X149577941Y-103677941D01*
X149540973Y-103708280D01*
X149498795Y-103730825D01*
X149453027Y-103744708D01*
X149399295Y-103750000D01*
X148200705Y-103750000D01*
X148146973Y-103744708D01*
X148101205Y-103730825D01*
X148059027Y-103708280D01*
X148022059Y-103677941D01*
X147991720Y-103640973D01*
X147969175Y-103598795D01*
X147955292Y-103553027D01*
X147950000Y-103499295D01*
X147950000Y-102550705D01*
X147955292Y-102496973D01*
X147969175Y-102451205D01*
X147991720Y-102409027D01*
X148022059Y-102372059D01*
X148059027Y-102341720D01*
X148101205Y-102319175D01*
X148146973Y-102305292D01*
X148200705Y-102300000D01*
X149399295Y-102300000D01*
X149453027Y-102305292D01*
X149453027Y-102305292D01*
G37*
G36*
X154185536Y-100719054D02*
G01*
X154277305Y-100737308D01*
X154450194Y-100808921D01*
X154605790Y-100912887D01*
X154738113Y-101045210D01*
X154842079Y-101200806D01*
X154913692Y-101373695D01*
X154950200Y-101557233D01*
X154950200Y-101744367D01*
X154913692Y-101927905D01*
X154842079Y-102100794D01*
X154738113Y-102256390D01*
X154605790Y-102388713D01*
X154450194Y-102492679D01*
X154277305Y-102564292D01*
X154185536Y-102582546D01*
X154093768Y-102600800D01*
X153906632Y-102600800D01*
X153814864Y-102582546D01*
X153723095Y-102564292D01*
X153550206Y-102492679D01*
X153394610Y-102388713D01*
X153262287Y-102256390D01*
X153158321Y-102100794D01*
X153086708Y-101927905D01*
X153050200Y-101744367D01*
X153050200Y-101557233D01*
X153086708Y-101373695D01*
X153158321Y-101200806D01*
X153262287Y-101045210D01*
X153394610Y-100912887D01*
X153550206Y-100808921D01*
X153723095Y-100737308D01*
X153814864Y-100719054D01*
X153906632Y-100700800D01*
X154093768Y-100700800D01*
X154185536Y-100719054D01*
X154185536Y-100719054D01*
G37*
G36*
X149453027Y-100255292D02*
G01*
X149498795Y-100269175D01*
X149540973Y-100291720D01*
X149577941Y-100322059D01*
X149608280Y-100359027D01*
X149630825Y-100401205D01*
X149644708Y-100446973D01*
X149650000Y-100500705D01*
X149650000Y-101449295D01*
X149644708Y-101503027D01*
X149630825Y-101548795D01*
X149608280Y-101590973D01*
X149577941Y-101627941D01*
X149540973Y-101658280D01*
X149498795Y-101680825D01*
X149453027Y-101694708D01*
X149399295Y-101700000D01*
X148200705Y-101700000D01*
X148146973Y-101694708D01*
X148101205Y-101680825D01*
X148059027Y-101658280D01*
X148022059Y-101627941D01*
X147991720Y-101590973D01*
X147969175Y-101548795D01*
X147955292Y-101503027D01*
X147950000Y-101449295D01*
X147950000Y-100500705D01*
X147955292Y-100446973D01*
X147969175Y-100401205D01*
X147991720Y-100359027D01*
X148022059Y-100322059D01*
X148059027Y-100291720D01*
X148101205Y-100269175D01*
X148146973Y-100255292D01*
X148200705Y-100250000D01*
X149399295Y-100250000D01*
X149453027Y-100255292D01*
X149453027Y-100255292D01*
G37*
G36*
X148125000Y-99225000D02*
G01*
X146475000Y-99225000D01*
X146475000Y-97575000D01*
X148125000Y-97575000D01*
X148125000Y-99225000D01*
X148125000Y-99225000D01*
G37*
G36*
X147850000Y-96700000D02*
G01*
X145850000Y-96700000D01*
X145850000Y-94700000D01*
X147850000Y-94700000D01*
X147850000Y-96700000D01*
X147850000Y-96700000D01*
G37*
G36*
X159746032Y-94714469D02*
G01*
X159840285Y-94743061D01*
X159934535Y-94771651D01*
X159934537Y-94771652D01*
X160108258Y-94864507D01*
X160260528Y-94989472D01*
X160385493Y-95141742D01*
X160478348Y-95315463D01*
X160535531Y-95503968D01*
X160554838Y-95700000D01*
X160535531Y-95896032D01*
X160478348Y-96084537D01*
X160385493Y-96258258D01*
X160260528Y-96410528D01*
X160108258Y-96535493D01*
X159934537Y-96628348D01*
X159934535Y-96628349D01*
X159840284Y-96656940D01*
X159746032Y-96685531D01*
X159599124Y-96700000D01*
X159500876Y-96700000D01*
X159353968Y-96685531D01*
X159259716Y-96656940D01*
X159165465Y-96628349D01*
X159165463Y-96628348D01*
X158991742Y-96535493D01*
X158839472Y-96410528D01*
X158714507Y-96258258D01*
X158621652Y-96084537D01*
X158564469Y-95896032D01*
X158545162Y-95700000D01*
X158564469Y-95503968D01*
X158621652Y-95315463D01*
X158714507Y-95141742D01*
X158839472Y-94989472D01*
X158991742Y-94864507D01*
X159165463Y-94771652D01*
X159165465Y-94771651D01*
X159259715Y-94743061D01*
X159353968Y-94714469D01*
X159500876Y-94700000D01*
X159599124Y-94700000D01*
X159746032Y-94714469D01*
X159746032Y-94714469D01*
G37*
G36*
X157206032Y-94714469D02*
G01*
X157300285Y-94743061D01*
X157394535Y-94771651D01*
X157394537Y-94771652D01*
X157568258Y-94864507D01*
X157720528Y-94989472D01*
X157845493Y-95141742D01*
X157938348Y-95315463D01*
X157995531Y-95503968D01*
X158014838Y-95700000D01*
X157995531Y-95896032D01*
X157938348Y-96084537D01*
X157845493Y-96258258D01*
X157720528Y-96410528D01*
X157568258Y-96535493D01*
X157394537Y-96628348D01*
X157394535Y-96628349D01*
X157300284Y-96656940D01*
X157206032Y-96685531D01*
X157059124Y-96700000D01*
X156960876Y-96700000D01*
X156813968Y-96685531D01*
X156719716Y-96656940D01*
X156625465Y-96628349D01*
X156625463Y-96628348D01*
X156451742Y-96535493D01*
X156299472Y-96410528D01*
X156174507Y-96258258D01*
X156081652Y-96084537D01*
X156024469Y-95896032D01*
X156005162Y-95700000D01*
X156024469Y-95503968D01*
X156081652Y-95315463D01*
X156174507Y-95141742D01*
X156299472Y-94989472D01*
X156451742Y-94864507D01*
X156625463Y-94771652D01*
X156625465Y-94771651D01*
X156719715Y-94743061D01*
X156813968Y-94714469D01*
X156960876Y-94700000D01*
X157059124Y-94700000D01*
X157206032Y-94714469D01*
X157206032Y-94714469D01*
G37*
G36*
X154666032Y-94714469D02*
G01*
X154760285Y-94743061D01*
X154854535Y-94771651D01*
X154854537Y-94771652D01*
X155028258Y-94864507D01*
X155180528Y-94989472D01*
X155305493Y-95141742D01*
X155398348Y-95315463D01*
X155455531Y-95503968D01*
X155474838Y-95700000D01*
X155455531Y-95896032D01*
X155398348Y-96084537D01*
X155305493Y-96258258D01*
X155180528Y-96410528D01*
X155028258Y-96535493D01*
X154854537Y-96628348D01*
X154854535Y-96628349D01*
X154760284Y-96656940D01*
X154666032Y-96685531D01*
X154519124Y-96700000D01*
X154420876Y-96700000D01*
X154273968Y-96685531D01*
X154179716Y-96656940D01*
X154085465Y-96628349D01*
X154085463Y-96628348D01*
X153911742Y-96535493D01*
X153759472Y-96410528D01*
X153634507Y-96258258D01*
X153541652Y-96084537D01*
X153484469Y-95896032D01*
X153465162Y-95700000D01*
X153484469Y-95503968D01*
X153541652Y-95315463D01*
X153634507Y-95141742D01*
X153759472Y-94989472D01*
X153911742Y-94864507D01*
X154085463Y-94771652D01*
X154085465Y-94771651D01*
X154179715Y-94743061D01*
X154273968Y-94714469D01*
X154420876Y-94700000D01*
X154519124Y-94700000D01*
X154666032Y-94714469D01*
X154666032Y-94714469D01*
G37*
G36*
X152126032Y-94714469D02*
G01*
X152220285Y-94743061D01*
X152314535Y-94771651D01*
X152314537Y-94771652D01*
X152488258Y-94864507D01*
X152640528Y-94989472D01*
X152765493Y-95141742D01*
X152858348Y-95315463D01*
X152915531Y-95503968D01*
X152934838Y-95700000D01*
X152915531Y-95896032D01*
X152858348Y-96084537D01*
X152765493Y-96258258D01*
X152640528Y-96410528D01*
X152488258Y-96535493D01*
X152314537Y-96628348D01*
X152314535Y-96628349D01*
X152220284Y-96656940D01*
X152126032Y-96685531D01*
X151979124Y-96700000D01*
X151880876Y-96700000D01*
X151733968Y-96685531D01*
X151639716Y-96656940D01*
X151545465Y-96628349D01*
X151545463Y-96628348D01*
X151371742Y-96535493D01*
X151219472Y-96410528D01*
X151094507Y-96258258D01*
X151001652Y-96084537D01*
X150944469Y-95896032D01*
X150925162Y-95700000D01*
X150944469Y-95503968D01*
X151001652Y-95315463D01*
X151094507Y-95141742D01*
X151219472Y-94989472D01*
X151371742Y-94864507D01*
X151545463Y-94771652D01*
X151545465Y-94771651D01*
X151639715Y-94743061D01*
X151733968Y-94714469D01*
X151880876Y-94700000D01*
X151979124Y-94700000D01*
X152126032Y-94714469D01*
X152126032Y-94714469D01*
G37*
G36*
X149586032Y-94714469D02*
G01*
X149680285Y-94743061D01*
X149774535Y-94771651D01*
X149774537Y-94771652D01*
X149948258Y-94864507D01*
X150100528Y-94989472D01*
X150225493Y-95141742D01*
X150318348Y-95315463D01*
X150375531Y-95503968D01*
X150394838Y-95700000D01*
X150375531Y-95896032D01*
X150318348Y-96084537D01*
X150225493Y-96258258D01*
X150100528Y-96410528D01*
X149948258Y-96535493D01*
X149774537Y-96628348D01*
X149774535Y-96628349D01*
X149680284Y-96656940D01*
X149586032Y-96685531D01*
X149439124Y-96700000D01*
X149340876Y-96700000D01*
X149193968Y-96685531D01*
X149099716Y-96656940D01*
X149005465Y-96628349D01*
X149005463Y-96628348D01*
X148831742Y-96535493D01*
X148679472Y-96410528D01*
X148554507Y-96258258D01*
X148461652Y-96084537D01*
X148404469Y-95896032D01*
X148385162Y-95700000D01*
X148404469Y-95503968D01*
X148461652Y-95315463D01*
X148554507Y-95141742D01*
X148679472Y-94989472D01*
X148831742Y-94864507D01*
X149005463Y-94771652D01*
X149005465Y-94771651D01*
X149099715Y-94743061D01*
X149193968Y-94714469D01*
X149340876Y-94700000D01*
X149439124Y-94700000D01*
X149586032Y-94714469D01*
X149586032Y-94714469D01*
G37*
M02*
