G04 #@! TF.GenerationSoftware,KiCad,Pcbnew,(5.0.2)-1*
G04 #@! TF.CreationDate,2019-01-20T16:15:56+01:00*
G04 #@! TF.ProjectId,HM-LC-Sw1-Pl-DN-R1_S26,484d2d4c-432d-4537-9731-2d506c2d444e,rev?*
G04 #@! TF.SameCoordinates,Original*
G04 #@! TF.FileFunction,Legend,Bot*
G04 #@! TF.FilePolarity,Positive*
%FSLAX46Y46*%
G04 Gerber Fmt 4.6, Leading zero omitted, Abs format (unit mm)*
G04 Created by KiCad (PCBNEW (5.0.2)-1) date 20.01.2019 16:15:56*
%MOMM*%
%LPD*%
G01*
G04 APERTURE LIST*
%ADD10C,0.100000*%
%ADD11C,0.120000*%
%ADD12C,0.200000*%
%ADD13C,0.150000*%
G04 APERTURE END LIST*
D10*
X161297489Y-112440209D02*
X161535584Y-112606876D01*
X161297489Y-112725923D02*
X161797489Y-112725923D01*
X161797489Y-112535447D01*
X161773680Y-112487828D01*
X161749870Y-112464019D01*
X161702251Y-112440209D01*
X161630822Y-112440209D01*
X161583203Y-112464019D01*
X161559394Y-112487828D01*
X161535584Y-112535447D01*
X161535584Y-112725923D01*
X161559394Y-112225923D02*
X161559394Y-112059257D01*
X161297489Y-111987828D02*
X161297489Y-112225923D01*
X161797489Y-112225923D01*
X161797489Y-111987828D01*
X161297489Y-111535447D02*
X161297489Y-111773542D01*
X161797489Y-111773542D01*
X161569554Y-107584346D02*
X161545744Y-107512918D01*
X161521935Y-107489108D01*
X161474316Y-107465299D01*
X161402887Y-107465299D01*
X161355268Y-107489108D01*
X161331459Y-107512918D01*
X161307649Y-107560537D01*
X161307649Y-107751013D01*
X161807649Y-107751013D01*
X161807649Y-107584346D01*
X161783840Y-107536727D01*
X161760030Y-107512918D01*
X161712411Y-107489108D01*
X161664792Y-107489108D01*
X161617173Y-107512918D01*
X161593363Y-107536727D01*
X161569554Y-107584346D01*
X161569554Y-107751013D01*
X161807649Y-107322441D02*
X161807649Y-107036727D01*
X161307649Y-107179584D02*
X161807649Y-107179584D01*
X161307649Y-106870060D02*
X161807649Y-106870060D01*
X161307649Y-106584346D01*
X161807649Y-106584346D01*
X161783840Y-110012432D02*
X161807649Y-110060051D01*
X161807649Y-110131480D01*
X161783840Y-110202908D01*
X161736220Y-110250527D01*
X161688601Y-110274337D01*
X161593363Y-110298146D01*
X161521935Y-110298146D01*
X161426697Y-110274337D01*
X161379078Y-110250527D01*
X161331459Y-110202908D01*
X161307649Y-110131480D01*
X161307649Y-110083860D01*
X161331459Y-110012432D01*
X161355268Y-109988622D01*
X161521935Y-109988622D01*
X161521935Y-110083860D01*
X161307649Y-109774337D02*
X161807649Y-109774337D01*
X161307649Y-109488622D01*
X161807649Y-109488622D01*
X161307649Y-109250527D02*
X161807649Y-109250527D01*
X161807649Y-109131480D01*
X161783840Y-109060051D01*
X161736220Y-109012432D01*
X161688601Y-108988622D01*
X161593363Y-108964813D01*
X161521935Y-108964813D01*
X161426697Y-108988622D01*
X161379078Y-109012432D01*
X161331459Y-109060051D01*
X161307649Y-109131480D01*
X161307649Y-109250527D01*
D11*
X158380963Y-103784156D02*
X158374228Y-103824562D01*
X158401166Y-103898640D01*
X158434837Y-103932312D01*
X158508915Y-103959249D01*
X158589727Y-103945780D01*
X158653704Y-103915476D01*
X158764820Y-103838031D01*
X158835531Y-103767320D01*
X158912976Y-103656203D01*
X158943281Y-103592227D01*
X158956749Y-103511415D01*
X158929812Y-103437337D01*
X158896140Y-103403665D01*
X158822062Y-103376728D01*
X158781656Y-103383462D01*
X158027409Y-103430603D02*
X158020675Y-103471009D01*
X158047612Y-103545086D01*
X158081284Y-103578758D01*
X158155362Y-103605696D01*
X158236174Y-103592227D01*
X158300150Y-103561922D01*
X158411267Y-103484477D01*
X158481978Y-103413767D01*
X158559423Y-103302650D01*
X158589727Y-103238674D01*
X158603196Y-103157861D01*
X158576259Y-103083783D01*
X158542587Y-103050112D01*
X158468509Y-103023174D01*
X158428103Y-103029909D01*
X157700793Y-102679722D02*
X157626715Y-102652785D01*
X157586309Y-102659519D01*
X157522333Y-102689824D01*
X157451622Y-102760535D01*
X157421318Y-102824511D01*
X157414583Y-102864917D01*
X157424685Y-102922159D01*
X157559372Y-103056846D01*
X158054347Y-102561871D01*
X157936495Y-102444020D01*
X157879253Y-102433919D01*
X157838847Y-102440653D01*
X157774871Y-102470958D01*
X157727731Y-102518098D01*
X157697426Y-102582074D01*
X157690692Y-102622480D01*
X157700793Y-102679722D01*
X157818644Y-102797574D01*
X157374177Y-102400247D02*
X157138475Y-102635949D01*
X157751301Y-102258826D02*
X157374177Y-102400247D01*
X157515599Y-102023123D01*
X157091334Y-102211685D02*
X156821960Y-101942311D01*
X156465040Y-101962514D02*
X156960015Y-101467539D01*
X156263009Y-101760484D01*
X156757984Y-101265509D01*
X155939761Y-101342954D02*
X155933026Y-101383360D01*
X155959964Y-101457438D01*
X155993635Y-101491110D01*
X156067713Y-101518047D01*
X156148525Y-101504578D01*
X156212502Y-101474274D01*
X156323619Y-101396829D01*
X156394329Y-101326118D01*
X156471774Y-101215001D01*
X156502079Y-101151025D01*
X156515547Y-101070213D01*
X156488610Y-100996135D01*
X156454938Y-100962463D01*
X156380860Y-100935526D01*
X156340454Y-100942260D01*
X155929659Y-101050010D02*
X155660285Y-100780636D01*
X155343771Y-100794104D02*
X155269693Y-100767167D01*
X155185513Y-100682988D01*
X155175412Y-100625746D01*
X155182146Y-100585340D01*
X155212451Y-100521363D01*
X155259591Y-100474223D01*
X155323567Y-100443918D01*
X155363974Y-100437184D01*
X155421216Y-100447285D01*
X155512129Y-100491059D01*
X155569371Y-100501160D01*
X155609777Y-100494426D01*
X155673754Y-100464121D01*
X155720894Y-100416981D01*
X155751199Y-100353004D01*
X155757933Y-100312598D01*
X155747832Y-100255356D01*
X155663652Y-100171177D01*
X155589574Y-100144240D01*
X155124904Y-100339536D02*
X154956545Y-100171177D01*
X155017155Y-100514629D02*
X155394278Y-99901803D01*
X154781452Y-100278927D01*
X154572687Y-99410195D02*
X154242704Y-99740179D01*
X154845429Y-99305813D02*
X154576055Y-99743546D01*
X154357188Y-99524679D01*
X154104650Y-99507843D02*
X154064244Y-99514578D01*
X154057510Y-99554984D01*
X154097916Y-99548250D01*
X154104650Y-99507843D01*
X154057510Y-99554984D01*
X154316782Y-98824307D02*
X154283110Y-98790635D01*
X154225868Y-98780534D01*
X154185462Y-98787268D01*
X154121486Y-98817573D01*
X154010369Y-98895018D01*
X153892518Y-99012869D01*
X153815073Y-99123986D01*
X153784768Y-99187962D01*
X153778034Y-99228368D01*
X153788136Y-99285610D01*
X153821807Y-99319282D01*
X153879049Y-99329383D01*
X153919455Y-99322649D01*
X153983432Y-99292344D01*
X154094549Y-99214899D01*
X154212400Y-99097048D01*
X154289845Y-98985931D01*
X154320149Y-98921955D01*
X154326884Y-98881549D01*
X154316782Y-98824307D01*
D12*
X152622892Y-104068880D02*
G75*
G03X152622892Y-104068880I-215586J0D01*
G01*
X152512824Y-104053640D02*
G75*
G03X152512824Y-104053640I-97584J0D01*
G01*
D10*
X146665866Y-120985790D02*
X146499200Y-121485790D01*
X146332533Y-120985790D01*
X145880152Y-121438171D02*
X145903961Y-121461980D01*
X145975390Y-121485790D01*
X146023009Y-121485790D01*
X146094438Y-121461980D01*
X146142057Y-121414361D01*
X146165866Y-121366742D01*
X146189676Y-121271504D01*
X146189676Y-121200076D01*
X146165866Y-121104838D01*
X146142057Y-121057219D01*
X146094438Y-121009600D01*
X146023009Y-120985790D01*
X145975390Y-120985790D01*
X145903961Y-121009600D01*
X145880152Y-121033409D01*
X145380152Y-121438171D02*
X145403961Y-121461980D01*
X145475390Y-121485790D01*
X145523009Y-121485790D01*
X145594438Y-121461980D01*
X145642057Y-121414361D01*
X145665866Y-121366742D01*
X145689676Y-121271504D01*
X145689676Y-121200076D01*
X145665866Y-121104838D01*
X145642057Y-121057219D01*
X145594438Y-121009600D01*
X145523009Y-120985790D01*
X145475390Y-120985790D01*
X145403961Y-121009600D01*
X145380152Y-121033409D01*
X148386752Y-121009600D02*
X148434371Y-120985790D01*
X148505800Y-120985790D01*
X148577228Y-121009600D01*
X148624847Y-121057219D01*
X148648657Y-121104838D01*
X148672466Y-121200076D01*
X148672466Y-121271504D01*
X148648657Y-121366742D01*
X148624847Y-121414361D01*
X148577228Y-121461980D01*
X148505800Y-121485790D01*
X148458180Y-121485790D01*
X148386752Y-121461980D01*
X148362942Y-121438171D01*
X148362942Y-121271504D01*
X148458180Y-121271504D01*
X148148657Y-121485790D02*
X148148657Y-120985790D01*
X147862942Y-121485790D01*
X147862942Y-120985790D01*
X147624847Y-121485790D02*
X147624847Y-120985790D01*
X147505800Y-120985790D01*
X147434371Y-121009600D01*
X147386752Y-121057219D01*
X147362942Y-121104838D01*
X147339133Y-121200076D01*
X147339133Y-121271504D01*
X147362942Y-121366742D01*
X147386752Y-121414361D01*
X147434371Y-121461980D01*
X147505800Y-121485790D01*
X147624847Y-121485790D01*
X160549474Y-100181509D02*
X160246428Y-100349868D01*
X160414787Y-100046822D01*
X159923179Y-100026619D02*
X160084804Y-100188243D01*
X160003992Y-100107431D02*
X160357545Y-99753878D01*
X160333975Y-99831323D01*
X160327240Y-99891932D01*
X160337342Y-99935705D01*
X159835633Y-99871729D02*
X159805328Y-99875096D01*
X159801961Y-99905401D01*
X159832266Y-99902033D01*
X159835633Y-99871729D01*
X159801961Y-99905401D01*
X159966953Y-99363285D02*
X159940015Y-99336348D01*
X159896242Y-99326247D01*
X159865937Y-99329614D01*
X159818797Y-99349817D01*
X159737985Y-99403692D01*
X159653805Y-99487871D01*
X159599931Y-99568683D01*
X159579727Y-99615824D01*
X159576360Y-99646128D01*
X159586462Y-99689901D01*
X159613399Y-99716839D01*
X159657172Y-99726940D01*
X159687477Y-99723573D01*
X159734618Y-99703370D01*
X159815430Y-99649495D01*
X159899609Y-99565316D01*
X159953484Y-99484504D01*
X159973687Y-99437363D01*
X159977054Y-99407059D01*
X159966953Y-99363285D01*
X159317088Y-99151153D02*
X159101589Y-98935654D01*
X158916394Y-98312727D02*
X158889457Y-98285789D01*
X158845683Y-98275688D01*
X158815379Y-98279055D01*
X158768238Y-98299258D01*
X158687426Y-98353133D01*
X158603247Y-98437312D01*
X158549372Y-98518124D01*
X158529169Y-98565265D01*
X158525802Y-98595570D01*
X158535903Y-98639343D01*
X158562841Y-98666280D01*
X158606614Y-98676382D01*
X158636918Y-98673015D01*
X158684059Y-98652811D01*
X158764871Y-98598937D01*
X158849050Y-98514757D01*
X158902925Y-98433945D01*
X158923128Y-98386805D01*
X158926495Y-98356500D01*
X158916394Y-98312727D01*
X158199186Y-98302625D02*
X158360810Y-98464250D01*
X158279998Y-98383437D02*
X158633551Y-98029884D01*
X158609981Y-98107329D01*
X158603247Y-98167938D01*
X158613348Y-98211712D01*
X158246326Y-97608987D02*
X158034194Y-98305992D01*
X157633500Y-97736940D02*
X157795125Y-97898564D01*
X157714312Y-97817752D02*
X158067866Y-97464199D01*
X158044296Y-97541644D01*
X158037561Y-97602253D01*
X158047663Y-97646026D01*
X157498813Y-97602253D02*
X157444938Y-97548378D01*
X157434837Y-97504605D01*
X157438204Y-97474300D01*
X157461774Y-97396855D01*
X157515649Y-97316043D01*
X157650336Y-97181356D01*
X157697477Y-97161153D01*
X157727781Y-97157786D01*
X157771554Y-97167887D01*
X157825429Y-97221762D01*
X157835531Y-97265535D01*
X157832164Y-97295840D01*
X157811961Y-97342980D01*
X157727781Y-97427160D01*
X157680641Y-97447363D01*
X157650336Y-97450730D01*
X157606563Y-97440628D01*
X157552688Y-97386754D01*
X157542586Y-97342980D01*
X157545954Y-97312676D01*
X157566157Y-97265535D01*
X159685793Y-100991315D02*
X160039347Y-100637761D01*
X159931597Y-100530012D01*
X159887824Y-100519910D01*
X159857519Y-100523278D01*
X159810379Y-100543481D01*
X159759871Y-100593988D01*
X159739668Y-100641129D01*
X159736301Y-100671433D01*
X159746402Y-100715207D01*
X159854152Y-100822956D01*
X159436622Y-100674800D02*
X159406318Y-100678168D01*
X159402951Y-100708472D01*
X159433255Y-100705105D01*
X159436622Y-100674800D01*
X159402951Y-100708472D01*
X159648754Y-100247169D02*
X159227857Y-100533379D01*
X159426521Y-100226966D01*
X159120108Y-100425629D01*
X159406318Y-100004733D01*
X159059499Y-99893616D02*
X158823796Y-100129318D01*
X159180717Y-100014834D02*
X158995522Y-100200029D01*
X158948382Y-100220232D01*
X158904609Y-100210130D01*
X158864203Y-100169724D01*
X158854101Y-100125951D01*
X158857468Y-100095646D01*
X158648703Y-99954225D02*
X158692477Y-99964326D01*
X158739617Y-99944123D01*
X159042663Y-99641078D01*
X158817062Y-99651179D02*
X158709312Y-99543430D01*
X158540954Y-99846475D02*
X158843999Y-99543430D01*
X158864203Y-99496289D01*
X158854101Y-99452516D01*
X158827164Y-99425578D01*
X158288416Y-99560265D02*
X158298517Y-99604039D01*
X158352392Y-99657914D01*
X158396165Y-99668015D01*
X158443306Y-99647812D01*
X158577993Y-99513125D01*
X158598196Y-99465985D01*
X158588094Y-99422211D01*
X158534219Y-99368336D01*
X158490446Y-99358235D01*
X158443306Y-99378438D01*
X158409634Y-99412110D01*
X158510649Y-99580468D01*
X158136893Y-99442414D02*
X158372595Y-99206712D01*
X158305251Y-99274056D02*
X158325454Y-99226915D01*
X158328822Y-99196611D01*
X158318720Y-99152837D01*
X158291783Y-99125900D01*
X158237908Y-99072025D02*
X158130158Y-98964275D01*
X158315353Y-98913768D02*
X158012307Y-99216814D01*
X157965167Y-99237017D01*
X157921393Y-99226915D01*
X157894456Y-99199978D01*
D13*
X144961655Y-114376017D02*
X145761655Y-114376017D01*
X145380702Y-114376017D02*
X145380702Y-114033160D01*
X144961655Y-114033160D02*
X145761655Y-114033160D01*
X144961655Y-113747445D02*
X145761655Y-113747445D01*
X145190226Y-113547445D01*
X145761655Y-113347445D01*
X144961655Y-113347445D01*
X145266417Y-113061731D02*
X145266417Y-112604588D01*
X144961655Y-112033160D02*
X144961655Y-112318874D01*
X145761655Y-112318874D01*
X145037845Y-111490302D02*
X144999750Y-111518874D01*
X144961655Y-111604588D01*
X144961655Y-111661731D01*
X144999750Y-111747445D01*
X145075940Y-111804588D01*
X145152131Y-111833160D01*
X145304512Y-111861731D01*
X145418798Y-111861731D01*
X145571179Y-111833160D01*
X145647369Y-111804588D01*
X145723560Y-111747445D01*
X145761655Y-111661731D01*
X145761655Y-111604588D01*
X145723560Y-111518874D01*
X145685464Y-111490302D01*
X145266417Y-111233160D02*
X145266417Y-110776017D01*
X144999750Y-110518874D02*
X144961655Y-110433160D01*
X144961655Y-110290302D01*
X144999750Y-110233160D01*
X145037845Y-110204588D01*
X145114036Y-110176017D01*
X145190226Y-110176017D01*
X145266417Y-110204588D01*
X145304512Y-110233160D01*
X145342607Y-110290302D01*
X145380702Y-110404588D01*
X145418798Y-110461731D01*
X145456893Y-110490302D01*
X145533083Y-110518874D01*
X145609274Y-110518874D01*
X145685464Y-110490302D01*
X145723560Y-110461731D01*
X145761655Y-110404588D01*
X145761655Y-110261731D01*
X145723560Y-110176017D01*
X145494988Y-109976017D02*
X144961655Y-109861731D01*
X145342607Y-109747445D01*
X144961655Y-109633160D01*
X145494988Y-109518874D01*
X144961655Y-108976017D02*
X144961655Y-109318874D01*
X144961655Y-109147445D02*
X145761655Y-109147445D01*
X145647369Y-109204588D01*
X145571179Y-109261731D01*
X145533083Y-109318874D01*
X145266417Y-108718874D02*
X145266417Y-108261731D01*
X144961655Y-107976017D02*
X145761655Y-107976017D01*
X145761655Y-107747445D01*
X145723560Y-107690302D01*
X145685464Y-107661731D01*
X145609274Y-107633160D01*
X145494988Y-107633160D01*
X145418798Y-107661731D01*
X145380702Y-107690302D01*
X145342607Y-107747445D01*
X145342607Y-107976017D01*
X144961655Y-107290302D02*
X144999750Y-107347445D01*
X145075940Y-107376017D01*
X145761655Y-107376017D01*
X145266417Y-107061731D02*
X145266417Y-106604588D01*
X144961655Y-106318874D02*
X145761655Y-106318874D01*
X145761655Y-106176017D01*
X145723560Y-106090302D01*
X145647369Y-106033160D01*
X145571179Y-106004588D01*
X145418798Y-105976017D01*
X145304512Y-105976017D01*
X145152131Y-106004588D01*
X145075940Y-106033160D01*
X144999750Y-106090302D01*
X144961655Y-106176017D01*
X144961655Y-106318874D01*
X144961655Y-105718874D02*
X145761655Y-105718874D01*
X144961655Y-105376017D01*
X145761655Y-105376017D01*
X145266417Y-105090302D02*
X145266417Y-104633160D01*
X144961655Y-104004588D02*
X145342607Y-104204588D01*
X144961655Y-104347445D02*
X145761655Y-104347445D01*
X145761655Y-104118874D01*
X145723560Y-104061731D01*
X145685464Y-104033160D01*
X145609274Y-104004588D01*
X145494988Y-104004588D01*
X145418798Y-104033160D01*
X145380702Y-104061731D01*
X145342607Y-104118874D01*
X145342607Y-104347445D01*
X144961655Y-103433160D02*
X144961655Y-103776017D01*
X144961655Y-103604588D02*
X145761655Y-103604588D01*
X145647369Y-103661731D01*
X145571179Y-103718874D01*
X145533083Y-103776017D01*
X144885464Y-103318874D02*
X144885464Y-102861731D01*
X144999750Y-102747445D02*
X144961655Y-102661731D01*
X144961655Y-102518874D01*
X144999750Y-102461731D01*
X145037845Y-102433160D01*
X145114036Y-102404588D01*
X145190226Y-102404588D01*
X145266417Y-102433160D01*
X145304512Y-102461731D01*
X145342607Y-102518874D01*
X145380702Y-102633160D01*
X145418798Y-102690302D01*
X145456893Y-102718874D01*
X145533083Y-102747445D01*
X145609274Y-102747445D01*
X145685464Y-102718874D01*
X145723560Y-102690302D01*
X145761655Y-102633160D01*
X145761655Y-102490302D01*
X145723560Y-102404588D01*
X145685464Y-102176017D02*
X145723560Y-102147445D01*
X145761655Y-102090302D01*
X145761655Y-101947445D01*
X145723560Y-101890302D01*
X145685464Y-101861731D01*
X145609274Y-101833160D01*
X145533083Y-101833160D01*
X145418798Y-101861731D01*
X144961655Y-102204588D01*
X144961655Y-101833160D01*
X145761655Y-101318874D02*
X145761655Y-101433160D01*
X145723560Y-101490302D01*
X145685464Y-101518874D01*
X145571179Y-101576017D01*
X145418798Y-101604588D01*
X145114036Y-101604588D01*
X145037845Y-101576017D01*
X144999750Y-101547445D01*
X144961655Y-101490302D01*
X144961655Y-101376017D01*
X144999750Y-101318874D01*
X145037845Y-101290302D01*
X145114036Y-101261731D01*
X145304512Y-101261731D01*
X145380702Y-101290302D01*
X145418798Y-101318874D01*
X145456893Y-101376017D01*
X145456893Y-101490302D01*
X145418798Y-101547445D01*
X145380702Y-101576017D01*
X145304512Y-101604588D01*
D10*
X150757474Y-121485790D02*
X150757474Y-120985790D01*
X150590807Y-121342933D01*
X150424140Y-120985790D01*
X150424140Y-121485790D01*
X150090807Y-120985790D02*
X149995569Y-120985790D01*
X149947950Y-121009600D01*
X149900331Y-121057219D01*
X149876521Y-121152457D01*
X149876521Y-121319123D01*
X149900331Y-121414361D01*
X149947950Y-121461980D01*
X149995569Y-121485790D01*
X150090807Y-121485790D01*
X150138426Y-121461980D01*
X150186045Y-121414361D01*
X150209855Y-121319123D01*
X150209855Y-121152457D01*
X150186045Y-121057219D01*
X150138426Y-121009600D01*
X150090807Y-120985790D01*
X149686045Y-121461980D02*
X149614617Y-121485790D01*
X149495569Y-121485790D01*
X149447950Y-121461980D01*
X149424140Y-121438171D01*
X149400331Y-121390552D01*
X149400331Y-121342933D01*
X149424140Y-121295314D01*
X149447950Y-121271504D01*
X149495569Y-121247695D01*
X149590807Y-121223885D01*
X149638426Y-121200076D01*
X149662236Y-121176266D01*
X149686045Y-121128647D01*
X149686045Y-121081028D01*
X149662236Y-121033409D01*
X149638426Y-121009600D01*
X149590807Y-120985790D01*
X149471760Y-120985790D01*
X149400331Y-121009600D01*
X149186045Y-121485790D02*
X149186045Y-120985790D01*
X152611057Y-121456900D02*
X152539628Y-121480710D01*
X152420580Y-121480710D01*
X152372961Y-121456900D01*
X152349152Y-121433091D01*
X152325342Y-121385472D01*
X152325342Y-121337853D01*
X152349152Y-121290234D01*
X152372961Y-121266424D01*
X152420580Y-121242615D01*
X152515819Y-121218805D01*
X152563438Y-121194996D01*
X152587247Y-121171186D01*
X152611057Y-121123567D01*
X152611057Y-121075948D01*
X152587247Y-121028329D01*
X152563438Y-121004520D01*
X152515819Y-120980710D01*
X152396771Y-120980710D01*
X152325342Y-121004520D01*
X151825342Y-121433091D02*
X151849152Y-121456900D01*
X151920580Y-121480710D01*
X151968200Y-121480710D01*
X152039628Y-121456900D01*
X152087247Y-121409281D01*
X152111057Y-121361662D01*
X152134866Y-121266424D01*
X152134866Y-121194996D01*
X152111057Y-121099758D01*
X152087247Y-121052139D01*
X152039628Y-121004520D01*
X151968200Y-120980710D01*
X151920580Y-120980710D01*
X151849152Y-121004520D01*
X151825342Y-121028329D01*
X151611057Y-121480710D02*
X151611057Y-120980710D01*
X151325342Y-121480710D02*
X151539628Y-121194996D01*
X151325342Y-120980710D02*
X151611057Y-121266424D01*
X154760514Y-121475630D02*
X154760514Y-120975630D01*
X154593847Y-121332773D01*
X154427180Y-120975630D01*
X154427180Y-121475630D01*
X154189085Y-121475630D02*
X154189085Y-120975630D01*
X153974800Y-121451820D02*
X153903371Y-121475630D01*
X153784323Y-121475630D01*
X153736704Y-121451820D01*
X153712895Y-121428011D01*
X153689085Y-121380392D01*
X153689085Y-121332773D01*
X153712895Y-121285154D01*
X153736704Y-121261344D01*
X153784323Y-121237535D01*
X153879561Y-121213725D01*
X153927180Y-121189916D01*
X153950990Y-121166106D01*
X153974800Y-121118487D01*
X153974800Y-121070868D01*
X153950990Y-121023249D01*
X153927180Y-120999440D01*
X153879561Y-120975630D01*
X153760514Y-120975630D01*
X153689085Y-120999440D01*
X153379561Y-120975630D02*
X153284323Y-120975630D01*
X153236704Y-120999440D01*
X153189085Y-121047059D01*
X153165276Y-121142297D01*
X153165276Y-121308963D01*
X153189085Y-121404201D01*
X153236704Y-121451820D01*
X153284323Y-121475630D01*
X153379561Y-121475630D01*
X153427180Y-121451820D01*
X153474800Y-121404201D01*
X153498609Y-121308963D01*
X153498609Y-121142297D01*
X153474800Y-121047059D01*
X153427180Y-120999440D01*
X153379561Y-120975630D01*
X146750806Y-96461664D02*
X147094257Y-96401054D01*
X146993242Y-96704100D02*
X147417506Y-96279836D01*
X147255882Y-96118212D01*
X147195273Y-96098009D01*
X147154867Y-96098009D01*
X147094257Y-96118212D01*
X147033648Y-96178821D01*
X147013445Y-96239430D01*
X147013445Y-96279836D01*
X147033648Y-96340445D01*
X147195273Y-96502070D01*
X146609384Y-96279836D02*
X146528572Y-96239430D01*
X146427557Y-96138415D01*
X146407354Y-96077806D01*
X146407354Y-96037400D01*
X146427557Y-95976790D01*
X146467963Y-95936384D01*
X146528572Y-95916181D01*
X146568978Y-95916181D01*
X146629587Y-95936384D01*
X146730603Y-95996993D01*
X146791212Y-96017196D01*
X146831618Y-96017196D01*
X146892227Y-95996993D01*
X146932633Y-95956587D01*
X146952836Y-95895978D01*
X146952836Y-95855572D01*
X146932633Y-95794963D01*
X146831618Y-95693948D01*
X146750806Y-95653542D01*
X146649790Y-95512120D02*
X146407354Y-95269684D01*
X146104308Y-95815166D02*
X146528572Y-95390902D01*
X149162344Y-94682202D02*
X149586608Y-94257938D01*
X149485593Y-94156922D01*
X149404780Y-94116516D01*
X149323968Y-94116516D01*
X149263359Y-94136719D01*
X149162344Y-94197328D01*
X149101735Y-94257938D01*
X149041125Y-94358953D01*
X149020922Y-94419562D01*
X149020922Y-94500374D01*
X149061328Y-94581186D01*
X149162344Y-94682202D01*
X149222953Y-93894283D02*
X148980516Y-93651846D01*
X148677471Y-94197328D02*
X149101735Y-93773064D01*
X148172394Y-93692252D02*
X148515846Y-93631643D01*
X148414831Y-93934689D02*
X148839095Y-93510425D01*
X148677471Y-93348800D01*
X148616861Y-93328597D01*
X148576455Y-93328597D01*
X148515846Y-93348800D01*
X148455237Y-93409409D01*
X148435034Y-93470019D01*
X148435034Y-93510425D01*
X148455237Y-93571034D01*
X148616861Y-93732658D01*
X151474913Y-94454771D02*
X151818365Y-94394162D01*
X151717350Y-94697208D02*
X152141614Y-94272944D01*
X151979990Y-94111319D01*
X151919380Y-94091116D01*
X151878974Y-94091116D01*
X151818365Y-94111319D01*
X151757756Y-94171928D01*
X151737553Y-94232538D01*
X151737553Y-94272944D01*
X151757756Y-94333553D01*
X151919380Y-94495177D01*
X151757756Y-93889086D02*
X151050649Y-94030507D01*
X151474913Y-93606243D02*
X151333492Y-94313350D01*
X150889025Y-93868883D02*
X151313289Y-93444619D01*
X151212274Y-93343603D01*
X151131461Y-93303197D01*
X151050649Y-93303197D01*
X150990040Y-93323400D01*
X150889025Y-93384009D01*
X150828416Y-93444619D01*
X150767806Y-93545634D01*
X150747603Y-93606243D01*
X150747603Y-93687055D01*
X150788009Y-93767867D01*
X150889025Y-93868883D01*
X154691715Y-94232245D02*
X154449279Y-93989809D01*
X154146233Y-94535291D02*
X154570497Y-94111027D01*
X154348264Y-93888793D02*
X153641157Y-94030215D01*
X154065421Y-93605951D02*
X153924000Y-94313057D01*
X153479532Y-93868590D02*
X153903796Y-93444326D01*
X153802781Y-93343311D01*
X153721969Y-93302905D01*
X153641157Y-93302905D01*
X153580548Y-93323108D01*
X153479532Y-93383717D01*
X153418923Y-93444326D01*
X153358314Y-93545342D01*
X153338111Y-93605951D01*
X153338111Y-93686763D01*
X153378517Y-93767575D01*
X153479532Y-93868590D01*
X157262020Y-94313350D02*
X156696335Y-94596193D01*
X156979177Y-94030507D01*
X156211461Y-94030507D02*
X156211461Y-94070913D01*
X156251867Y-94151725D01*
X156292274Y-94192132D01*
X156373086Y-94232538D01*
X156453898Y-94232538D01*
X156514507Y-94212335D01*
X156615522Y-94151725D01*
X156676132Y-94091116D01*
X156736741Y-93990101D01*
X156756944Y-93929492D01*
X156756944Y-93848680D01*
X156716538Y-93767867D01*
X156676132Y-93727461D01*
X156595319Y-93687055D01*
X156554913Y-93687055D01*
X155787197Y-93606243D02*
X155787197Y-93646649D01*
X155827603Y-93727461D01*
X155868009Y-93767867D01*
X155948822Y-93808274D01*
X156029634Y-93808274D01*
X156090243Y-93788071D01*
X156191258Y-93727461D01*
X156251867Y-93666852D01*
X156312477Y-93565837D01*
X156332680Y-93505228D01*
X156332680Y-93424416D01*
X156292274Y-93343603D01*
X156251867Y-93303197D01*
X156171055Y-93262791D01*
X156130649Y-93262791D01*
X159590180Y-94014916D02*
X159650790Y-94035119D01*
X159711399Y-94095728D01*
X159751805Y-94176541D01*
X159751805Y-94257353D01*
X159731602Y-94317962D01*
X159670993Y-94418977D01*
X159610383Y-94479586D01*
X159509368Y-94540196D01*
X159448759Y-94560399D01*
X159367947Y-94560399D01*
X159287135Y-94519993D01*
X159246728Y-94479586D01*
X159206322Y-94398774D01*
X159206322Y-94358368D01*
X159347744Y-94216947D01*
X159428556Y-94297759D01*
X158984089Y-94216947D02*
X159408353Y-93792683D01*
X158741652Y-93974510D01*
X159165916Y-93550246D01*
X158539622Y-93772480D02*
X158963886Y-93348216D01*
X158862871Y-93247200D01*
X158782058Y-93206794D01*
X158701246Y-93206794D01*
X158640637Y-93226997D01*
X158539622Y-93287606D01*
X158479013Y-93348216D01*
X158418403Y-93449231D01*
X158398200Y-93509840D01*
X158398200Y-93590652D01*
X158438606Y-93671464D01*
X158539622Y-93772480D01*
D11*
G04 #@! TO.C,C1*
X160784000Y-111047348D02*
X160784000Y-110704812D01*
X159764000Y-111047348D02*
X159764000Y-110704812D01*
G04 #@! TO.C,C2*
X157011880Y-105017969D02*
X156769671Y-104775760D01*
X157733129Y-104296720D02*
X157490920Y-104054511D01*
G04 #@! TO.C,C3*
X148106529Y-114162080D02*
X147864320Y-113919871D01*
X147385280Y-114883329D02*
X147143071Y-114641120D01*
G04 #@! TO.C,C4*
X148081240Y-99772071D02*
X147839031Y-100014280D01*
X148802489Y-100493320D02*
X148560280Y-100735529D01*
G04 #@! TO.C,C5*
X146874413Y-117442520D02*
X147216947Y-117442520D01*
X146874413Y-118462520D02*
X147216947Y-118462520D01*
G04 #@! TO.C,J3*
X146116000Y-96941600D02*
X148016000Y-96941600D01*
X148016000Y-96941600D02*
X148016000Y-98791600D01*
X148016000Y-98791600D02*
X146166000Y-98791600D01*
X146166000Y-98791600D02*
X146116000Y-98791600D01*
X146116000Y-98791600D02*
X146116000Y-96941600D01*
G04 #@! TO.C,R1*
X147451320Y-102941991D02*
X147209111Y-103184200D01*
X148172569Y-103663240D02*
X147930360Y-103905449D01*
D13*
G04 #@! TO.C,U1*
X152450800Y-104626876D02*
X152609899Y-104785975D01*
X147324276Y-109753400D02*
X147554086Y-109983210D01*
X152450800Y-114879924D02*
X152220990Y-114650114D01*
X157577324Y-109753400D02*
X157347514Y-109523590D01*
X152450800Y-104626876D02*
X152220990Y-104856686D01*
X157577324Y-109753400D02*
X157347514Y-109983210D01*
X152450800Y-114879924D02*
X152680610Y-114650114D01*
X147324276Y-109753400D02*
X147554086Y-109523590D01*
X152609899Y-104785975D02*
X153617526Y-103778348D01*
G04 #@! TO.C,C1*
D10*
X160380506Y-109053440D02*
X160413840Y-109086773D01*
X160513840Y-109120106D01*
X160580506Y-109120106D01*
X160680506Y-109086773D01*
X160747173Y-109020106D01*
X160780506Y-108953440D01*
X160813840Y-108820106D01*
X160813840Y-108720106D01*
X160780506Y-108586773D01*
X160747173Y-108520106D01*
X160680506Y-108453440D01*
X160580506Y-108420106D01*
X160513840Y-108420106D01*
X160413840Y-108453440D01*
X160380506Y-108486773D01*
X159713840Y-109120106D02*
X160113840Y-109120106D01*
X159913840Y-109120106D02*
X159913840Y-108420106D01*
X159980506Y-108520106D01*
X160047173Y-108586773D01*
X160113840Y-108620106D01*
G04 #@! TO.C,C2*
X158808119Y-106446512D02*
X158808119Y-106493652D01*
X158855259Y-106587933D01*
X158902400Y-106635074D01*
X158996680Y-106682214D01*
X159090961Y-106682214D01*
X159161672Y-106658644D01*
X159279523Y-106587933D01*
X159350234Y-106517223D01*
X159420944Y-106399372D01*
X159444515Y-106328661D01*
X159444515Y-106234380D01*
X159397374Y-106140099D01*
X159350234Y-106092959D01*
X159255953Y-106045818D01*
X159208812Y-106045818D01*
X159020251Y-105857256D02*
X159020251Y-105810116D01*
X158996680Y-105739405D01*
X158878829Y-105621554D01*
X158808119Y-105597984D01*
X158760978Y-105597984D01*
X158690267Y-105621554D01*
X158643127Y-105668695D01*
X158595987Y-105762975D01*
X158595987Y-106328661D01*
X158289574Y-106022248D01*
G04 #@! TO.C,C3*
X147332399Y-116169631D02*
X147332399Y-116216771D01*
X147379539Y-116311052D01*
X147426680Y-116358193D01*
X147520960Y-116405333D01*
X147615241Y-116405333D01*
X147685952Y-116381763D01*
X147803803Y-116311052D01*
X147874514Y-116240342D01*
X147945224Y-116122491D01*
X147968795Y-116051780D01*
X147968795Y-115957499D01*
X147921654Y-115863218D01*
X147874514Y-115816078D01*
X147780233Y-115768937D01*
X147733092Y-115768937D01*
X147615241Y-115556805D02*
X147308828Y-115250392D01*
X147285258Y-115603946D01*
X147214547Y-115533235D01*
X147143837Y-115509665D01*
X147096696Y-115509665D01*
X147025986Y-115533235D01*
X146908135Y-115651086D01*
X146884564Y-115721797D01*
X146884564Y-115768937D01*
X146908135Y-115839648D01*
X147049556Y-115981069D01*
X147120267Y-116004639D01*
X147167407Y-116004639D01*
G04 #@! TO.C,C4*
X149735239Y-99070351D02*
X149735239Y-99117491D01*
X149782379Y-99211772D01*
X149829520Y-99258913D01*
X149923800Y-99306053D01*
X150018081Y-99306053D01*
X150088792Y-99282483D01*
X150206643Y-99211772D01*
X150277354Y-99141062D01*
X150348064Y-99023211D01*
X150371635Y-98952500D01*
X150371635Y-98858219D01*
X150324494Y-98763938D01*
X150277354Y-98716798D01*
X150183073Y-98669657D01*
X150135932Y-98669657D01*
X149593817Y-98363244D02*
X149263834Y-98693227D01*
X149900230Y-98292534D02*
X149664528Y-98763938D01*
X149358115Y-98457525D01*
G04 #@! TO.C,C5*
X149483906Y-118207600D02*
X149517240Y-118240933D01*
X149617240Y-118274266D01*
X149683906Y-118274266D01*
X149783906Y-118240933D01*
X149850573Y-118174266D01*
X149883906Y-118107600D01*
X149917240Y-117974266D01*
X149917240Y-117874266D01*
X149883906Y-117740933D01*
X149850573Y-117674266D01*
X149783906Y-117607600D01*
X149683906Y-117574266D01*
X149617240Y-117574266D01*
X149517240Y-117607600D01*
X149483906Y-117640933D01*
X148850573Y-117574266D02*
X149183906Y-117574266D01*
X149217240Y-117907600D01*
X149183906Y-117874266D01*
X149117240Y-117840933D01*
X148950573Y-117840933D01*
X148883906Y-117874266D01*
X148850573Y-117907600D01*
X148817240Y-117974266D01*
X148817240Y-118140933D01*
X148850573Y-118207600D01*
X148883906Y-118240933D01*
X148950573Y-118274266D01*
X149117240Y-118274266D01*
X149183906Y-118240933D01*
X149217240Y-118207600D01*
G04 #@! TO.C,R1*
X149078498Y-102175652D02*
X149479192Y-102104942D01*
X149361341Y-102458495D02*
X149856316Y-101963520D01*
X149667754Y-101774959D01*
X149597043Y-101751388D01*
X149549903Y-101751388D01*
X149479192Y-101774959D01*
X149408481Y-101845669D01*
X149384911Y-101916380D01*
X149384911Y-101963520D01*
X149408481Y-102034231D01*
X149597043Y-102222793D01*
X148607094Y-101704248D02*
X148889936Y-101987091D01*
X148748515Y-101845669D02*
X149243490Y-101350695D01*
X149219920Y-101468546D01*
X149219920Y-101562827D01*
X149243490Y-101633537D01*
G04 #@! TO.C,U1*
X153505381Y-103524706D02*
X153104687Y-103925399D01*
X153033976Y-103948970D01*
X152986836Y-103948970D01*
X152916125Y-103925399D01*
X152821844Y-103831118D01*
X152798274Y-103760408D01*
X152798274Y-103713267D01*
X152821844Y-103642557D01*
X153222538Y-103241863D01*
X152232589Y-103241863D02*
X152515431Y-103524706D01*
X152374010Y-103383284D02*
X152868985Y-102888309D01*
X152845414Y-103006161D01*
X152845414Y-103100441D01*
X152868985Y-103171152D01*
G04 #@! TD*
M02*
