M48
; DRILL file {KiCad (5.1.4)-1} date 26.01.2020 17:58:26
; FORMAT={2:4/ absolute / inch / suppress leading zeros}
; #@! TF.CreationDate,2020-01-26T17:58:26+01:00
; #@! TF.GenerationSoftware,Kicad,Pcbnew,(5.1.4)-1
FMAT,2
INCH,TZ
T1C0.0157
T2C0.0315
T3C0.0394
T4C0.0630
%
G90
G05
T1
X57825Y-41427
X58012Y-46201
X58417Y-45335
X58602Y-43248
X59045Y-43140
X59213Y-45738
X59557Y-42628
X59567Y-43681
X59646Y-39764
X60106Y-42126
X60118Y-43150
X60118Y-44173
X60640Y-42608
X60650Y-43632
X61026Y-46543
X61211Y-43130
X61555Y-45531
X61614Y-39724
X61949Y-41673
X62303Y-43366
X62667Y-40020
X62953Y-42923
X62992Y-44114
X63160Y-42146
T2
X57467Y-47104
X58254Y-47104
X59041Y-47104
X59829Y-47104
X60616Y-47104
X61404Y-47104
X62191Y-47104
X62978Y-47104
X57992Y-38740
T3
X57815Y-37677
X58815Y-37677
X59815Y-37677
X60815Y-37677
X61815Y-37677
X62815Y-37677
T4
X60630Y-40020
T0
M30
