G04 #@! TF.GenerationSoftware,KiCad,Pcbnew,(5.1.4)-1*
G04 #@! TF.CreationDate,2020-01-26T17:58:18+01:00*
G04 #@! TF.ProjectId,HM-LC-Sw1-Pl-DN-R1_S26,484d2d4c-432d-4537-9731-2d506c2d444e,rev?*
G04 #@! TF.SameCoordinates,Original*
G04 #@! TF.FileFunction,Copper,L2,Bot*
G04 #@! TF.FilePolarity,Positive*
%FSLAX46Y46*%
G04 Gerber Fmt 4.6, Leading zero omitted, Abs format (unit mm)*
G04 Created by KiCad (PCBNEW (5.1.4)-1) date 2020-01-26 17:58:18*
%MOMM*%
%LPD*%
G04 APERTURE LIST*
%ADD10R,1.350000X1.350000*%
%ADD11C,0.150000*%
%ADD12C,1.150000*%
%ADD13O,1.700000X1.700000*%
%ADD14R,1.700000X1.700000*%
%ADD15C,1.350000*%
%ADD16R,2.000000X1.500000*%
%ADD17C,0.550000*%
%ADD18C,0.800000*%
%ADD19C,0.250000*%
%ADD20C,0.500000*%
%ADD21C,0.254000*%
G04 APERTURE END LIST*
D10*
X147300000Y-98400000D03*
D11*
G36*
X147224505Y-102476204D02*
G01*
X147248773Y-102479804D01*
X147272572Y-102485765D01*
X147295671Y-102494030D01*
X147317850Y-102504520D01*
X147338893Y-102517132D01*
X147358599Y-102531747D01*
X147376777Y-102548223D01*
X147393253Y-102566401D01*
X147407868Y-102586107D01*
X147420480Y-102607150D01*
X147430970Y-102629329D01*
X147439235Y-102652428D01*
X147445196Y-102676227D01*
X147448796Y-102700495D01*
X147450000Y-102724999D01*
X147450000Y-103375001D01*
X147448796Y-103399505D01*
X147445196Y-103423773D01*
X147439235Y-103447572D01*
X147430970Y-103470671D01*
X147420480Y-103492850D01*
X147407868Y-103513893D01*
X147393253Y-103533599D01*
X147376777Y-103551777D01*
X147358599Y-103568253D01*
X147338893Y-103582868D01*
X147317850Y-103595480D01*
X147295671Y-103605970D01*
X147272572Y-103614235D01*
X147248773Y-103620196D01*
X147224505Y-103623796D01*
X147200001Y-103625000D01*
X146299999Y-103625000D01*
X146275495Y-103623796D01*
X146251227Y-103620196D01*
X146227428Y-103614235D01*
X146204329Y-103605970D01*
X146182150Y-103595480D01*
X146161107Y-103582868D01*
X146141401Y-103568253D01*
X146123223Y-103551777D01*
X146106747Y-103533599D01*
X146092132Y-103513893D01*
X146079520Y-103492850D01*
X146069030Y-103470671D01*
X146060765Y-103447572D01*
X146054804Y-103423773D01*
X146051204Y-103399505D01*
X146050000Y-103375001D01*
X146050000Y-102724999D01*
X146051204Y-102700495D01*
X146054804Y-102676227D01*
X146060765Y-102652428D01*
X146069030Y-102629329D01*
X146079520Y-102607150D01*
X146092132Y-102586107D01*
X146106747Y-102566401D01*
X146123223Y-102548223D01*
X146141401Y-102531747D01*
X146161107Y-102517132D01*
X146182150Y-102504520D01*
X146204329Y-102494030D01*
X146227428Y-102485765D01*
X146251227Y-102479804D01*
X146275495Y-102476204D01*
X146299999Y-102475000D01*
X147200001Y-102475000D01*
X147224505Y-102476204D01*
X147224505Y-102476204D01*
G37*
D12*
X146750000Y-103050000D03*
D11*
G36*
X147224505Y-104526204D02*
G01*
X147248773Y-104529804D01*
X147272572Y-104535765D01*
X147295671Y-104544030D01*
X147317850Y-104554520D01*
X147338893Y-104567132D01*
X147358599Y-104581747D01*
X147376777Y-104598223D01*
X147393253Y-104616401D01*
X147407868Y-104636107D01*
X147420480Y-104657150D01*
X147430970Y-104679329D01*
X147439235Y-104702428D01*
X147445196Y-104726227D01*
X147448796Y-104750495D01*
X147450000Y-104774999D01*
X147450000Y-105425001D01*
X147448796Y-105449505D01*
X147445196Y-105473773D01*
X147439235Y-105497572D01*
X147430970Y-105520671D01*
X147420480Y-105542850D01*
X147407868Y-105563893D01*
X147393253Y-105583599D01*
X147376777Y-105601777D01*
X147358599Y-105618253D01*
X147338893Y-105632868D01*
X147317850Y-105645480D01*
X147295671Y-105655970D01*
X147272572Y-105664235D01*
X147248773Y-105670196D01*
X147224505Y-105673796D01*
X147200001Y-105675000D01*
X146299999Y-105675000D01*
X146275495Y-105673796D01*
X146251227Y-105670196D01*
X146227428Y-105664235D01*
X146204329Y-105655970D01*
X146182150Y-105645480D01*
X146161107Y-105632868D01*
X146141401Y-105618253D01*
X146123223Y-105601777D01*
X146106747Y-105583599D01*
X146092132Y-105563893D01*
X146079520Y-105542850D01*
X146069030Y-105520671D01*
X146060765Y-105497572D01*
X146054804Y-105473773D01*
X146051204Y-105449505D01*
X146050000Y-105425001D01*
X146050000Y-104774999D01*
X146051204Y-104750495D01*
X146054804Y-104726227D01*
X146060765Y-104702428D01*
X146069030Y-104679329D01*
X146079520Y-104657150D01*
X146092132Y-104636107D01*
X146106747Y-104616401D01*
X146123223Y-104598223D01*
X146141401Y-104581747D01*
X146161107Y-104567132D01*
X146182150Y-104554520D01*
X146204329Y-104544030D01*
X146227428Y-104535765D01*
X146251227Y-104529804D01*
X146275495Y-104526204D01*
X146299999Y-104525000D01*
X147200001Y-104525000D01*
X147224505Y-104526204D01*
X147224505Y-104526204D01*
G37*
D12*
X146750000Y-105100000D03*
D11*
G36*
X160224505Y-109151204D02*
G01*
X160248773Y-109154804D01*
X160272572Y-109160765D01*
X160295671Y-109169030D01*
X160317850Y-109179520D01*
X160338893Y-109192132D01*
X160358599Y-109206747D01*
X160376777Y-109223223D01*
X160393253Y-109241401D01*
X160407868Y-109261107D01*
X160420480Y-109282150D01*
X160430970Y-109304329D01*
X160439235Y-109327428D01*
X160445196Y-109351227D01*
X160448796Y-109375495D01*
X160450000Y-109399999D01*
X160450000Y-110050001D01*
X160448796Y-110074505D01*
X160445196Y-110098773D01*
X160439235Y-110122572D01*
X160430970Y-110145671D01*
X160420480Y-110167850D01*
X160407868Y-110188893D01*
X160393253Y-110208599D01*
X160376777Y-110226777D01*
X160358599Y-110243253D01*
X160338893Y-110257868D01*
X160317850Y-110270480D01*
X160295671Y-110280970D01*
X160272572Y-110289235D01*
X160248773Y-110295196D01*
X160224505Y-110298796D01*
X160200001Y-110300000D01*
X159299999Y-110300000D01*
X159275495Y-110298796D01*
X159251227Y-110295196D01*
X159227428Y-110289235D01*
X159204329Y-110280970D01*
X159182150Y-110270480D01*
X159161107Y-110257868D01*
X159141401Y-110243253D01*
X159123223Y-110226777D01*
X159106747Y-110208599D01*
X159092132Y-110188893D01*
X159079520Y-110167850D01*
X159069030Y-110145671D01*
X159060765Y-110122572D01*
X159054804Y-110098773D01*
X159051204Y-110074505D01*
X159050000Y-110050001D01*
X159050000Y-109399999D01*
X159051204Y-109375495D01*
X159054804Y-109351227D01*
X159060765Y-109327428D01*
X159069030Y-109304329D01*
X159079520Y-109282150D01*
X159092132Y-109261107D01*
X159106747Y-109241401D01*
X159123223Y-109223223D01*
X159141401Y-109206747D01*
X159161107Y-109192132D01*
X159182150Y-109179520D01*
X159204329Y-109169030D01*
X159227428Y-109160765D01*
X159251227Y-109154804D01*
X159275495Y-109151204D01*
X159299999Y-109150000D01*
X160200001Y-109150000D01*
X160224505Y-109151204D01*
X160224505Y-109151204D01*
G37*
D12*
X159750000Y-109725000D03*
D11*
G36*
X160224505Y-111201204D02*
G01*
X160248773Y-111204804D01*
X160272572Y-111210765D01*
X160295671Y-111219030D01*
X160317850Y-111229520D01*
X160338893Y-111242132D01*
X160358599Y-111256747D01*
X160376777Y-111273223D01*
X160393253Y-111291401D01*
X160407868Y-111311107D01*
X160420480Y-111332150D01*
X160430970Y-111354329D01*
X160439235Y-111377428D01*
X160445196Y-111401227D01*
X160448796Y-111425495D01*
X160450000Y-111449999D01*
X160450000Y-112100001D01*
X160448796Y-112124505D01*
X160445196Y-112148773D01*
X160439235Y-112172572D01*
X160430970Y-112195671D01*
X160420480Y-112217850D01*
X160407868Y-112238893D01*
X160393253Y-112258599D01*
X160376777Y-112276777D01*
X160358599Y-112293253D01*
X160338893Y-112307868D01*
X160317850Y-112320480D01*
X160295671Y-112330970D01*
X160272572Y-112339235D01*
X160248773Y-112345196D01*
X160224505Y-112348796D01*
X160200001Y-112350000D01*
X159299999Y-112350000D01*
X159275495Y-112348796D01*
X159251227Y-112345196D01*
X159227428Y-112339235D01*
X159204329Y-112330970D01*
X159182150Y-112320480D01*
X159161107Y-112307868D01*
X159141401Y-112293253D01*
X159123223Y-112276777D01*
X159106747Y-112258599D01*
X159092132Y-112238893D01*
X159079520Y-112217850D01*
X159069030Y-112195671D01*
X159060765Y-112172572D01*
X159054804Y-112148773D01*
X159051204Y-112124505D01*
X159050000Y-112100001D01*
X159050000Y-111449999D01*
X159051204Y-111425495D01*
X159054804Y-111401227D01*
X159060765Y-111377428D01*
X159069030Y-111354329D01*
X159079520Y-111332150D01*
X159092132Y-111311107D01*
X159106747Y-111291401D01*
X159123223Y-111273223D01*
X159141401Y-111256747D01*
X159161107Y-111242132D01*
X159182150Y-111229520D01*
X159204329Y-111219030D01*
X159227428Y-111210765D01*
X159251227Y-111204804D01*
X159275495Y-111201204D01*
X159299999Y-111200000D01*
X160200001Y-111200000D01*
X160224505Y-111201204D01*
X160224505Y-111201204D01*
G37*
D12*
X159750000Y-111775000D03*
D11*
G36*
X156338108Y-103428412D02*
G01*
X156362376Y-103432012D01*
X156386175Y-103437973D01*
X156409274Y-103446238D01*
X156431453Y-103456728D01*
X156452496Y-103469340D01*
X156472202Y-103483955D01*
X156490380Y-103500431D01*
X156950001Y-103960052D01*
X156966477Y-103978230D01*
X156981092Y-103997936D01*
X156993704Y-104018979D01*
X157004194Y-104041158D01*
X157012459Y-104064257D01*
X157018420Y-104088056D01*
X157022020Y-104112324D01*
X157023224Y-104136828D01*
X157022020Y-104161332D01*
X157018420Y-104185600D01*
X157012459Y-104209399D01*
X157004194Y-104232498D01*
X156993704Y-104254677D01*
X156981092Y-104275720D01*
X156966477Y-104295426D01*
X156950001Y-104313604D01*
X156313604Y-104950001D01*
X156295426Y-104966477D01*
X156275720Y-104981092D01*
X156254677Y-104993704D01*
X156232498Y-105004194D01*
X156209399Y-105012459D01*
X156185600Y-105018420D01*
X156161332Y-105022020D01*
X156136828Y-105023224D01*
X156112324Y-105022020D01*
X156088056Y-105018420D01*
X156064257Y-105012459D01*
X156041158Y-105004194D01*
X156018979Y-104993704D01*
X155997936Y-104981092D01*
X155978230Y-104966477D01*
X155960052Y-104950001D01*
X155500431Y-104490380D01*
X155483955Y-104472202D01*
X155469340Y-104452496D01*
X155456728Y-104431453D01*
X155446238Y-104409274D01*
X155437973Y-104386175D01*
X155432012Y-104362376D01*
X155428412Y-104338108D01*
X155427208Y-104313604D01*
X155428412Y-104289100D01*
X155432012Y-104264832D01*
X155437973Y-104241033D01*
X155446238Y-104217934D01*
X155456728Y-104195755D01*
X155469340Y-104174712D01*
X155483955Y-104155006D01*
X155500431Y-104136828D01*
X156136828Y-103500431D01*
X156155006Y-103483955D01*
X156174712Y-103469340D01*
X156195755Y-103456728D01*
X156217934Y-103446238D01*
X156241033Y-103437973D01*
X156264832Y-103432012D01*
X156289100Y-103428412D01*
X156313604Y-103427208D01*
X156338108Y-103428412D01*
X156338108Y-103428412D01*
G37*
D12*
X156225216Y-104225216D03*
D11*
G36*
X157787676Y-104877980D02*
G01*
X157811944Y-104881580D01*
X157835743Y-104887541D01*
X157858842Y-104895806D01*
X157881021Y-104906296D01*
X157902064Y-104918908D01*
X157921770Y-104933523D01*
X157939948Y-104949999D01*
X158399569Y-105409620D01*
X158416045Y-105427798D01*
X158430660Y-105447504D01*
X158443272Y-105468547D01*
X158453762Y-105490726D01*
X158462027Y-105513825D01*
X158467988Y-105537624D01*
X158471588Y-105561892D01*
X158472792Y-105586396D01*
X158471588Y-105610900D01*
X158467988Y-105635168D01*
X158462027Y-105658967D01*
X158453762Y-105682066D01*
X158443272Y-105704245D01*
X158430660Y-105725288D01*
X158416045Y-105744994D01*
X158399569Y-105763172D01*
X157763172Y-106399569D01*
X157744994Y-106416045D01*
X157725288Y-106430660D01*
X157704245Y-106443272D01*
X157682066Y-106453762D01*
X157658967Y-106462027D01*
X157635168Y-106467988D01*
X157610900Y-106471588D01*
X157586396Y-106472792D01*
X157561892Y-106471588D01*
X157537624Y-106467988D01*
X157513825Y-106462027D01*
X157490726Y-106453762D01*
X157468547Y-106443272D01*
X157447504Y-106430660D01*
X157427798Y-106416045D01*
X157409620Y-106399569D01*
X156949999Y-105939948D01*
X156933523Y-105921770D01*
X156918908Y-105902064D01*
X156906296Y-105881021D01*
X156895806Y-105858842D01*
X156887541Y-105835743D01*
X156881580Y-105811944D01*
X156877980Y-105787676D01*
X156876776Y-105763172D01*
X156877980Y-105738668D01*
X156881580Y-105714400D01*
X156887541Y-105690601D01*
X156895806Y-105667502D01*
X156906296Y-105645323D01*
X156918908Y-105624280D01*
X156933523Y-105604574D01*
X156949999Y-105586396D01*
X157586396Y-104949999D01*
X157604574Y-104933523D01*
X157624280Y-104918908D01*
X157645323Y-104906296D01*
X157667502Y-104895806D01*
X157690601Y-104887541D01*
X157714400Y-104881580D01*
X157738668Y-104877980D01*
X157763172Y-104876776D01*
X157787676Y-104877980D01*
X157787676Y-104877980D01*
G37*
D12*
X157674784Y-105674784D03*
D11*
G36*
X147012908Y-112880012D02*
G01*
X147037176Y-112883612D01*
X147060975Y-112889573D01*
X147084074Y-112897838D01*
X147106253Y-112908328D01*
X147127296Y-112920940D01*
X147147002Y-112935555D01*
X147165180Y-112952031D01*
X147624801Y-113411652D01*
X147641277Y-113429830D01*
X147655892Y-113449536D01*
X147668504Y-113470579D01*
X147678994Y-113492758D01*
X147687259Y-113515857D01*
X147693220Y-113539656D01*
X147696820Y-113563924D01*
X147698024Y-113588428D01*
X147696820Y-113612932D01*
X147693220Y-113637200D01*
X147687259Y-113660999D01*
X147678994Y-113684098D01*
X147668504Y-113706277D01*
X147655892Y-113727320D01*
X147641277Y-113747026D01*
X147624801Y-113765204D01*
X146988404Y-114401601D01*
X146970226Y-114418077D01*
X146950520Y-114432692D01*
X146929477Y-114445304D01*
X146907298Y-114455794D01*
X146884199Y-114464059D01*
X146860400Y-114470020D01*
X146836132Y-114473620D01*
X146811628Y-114474824D01*
X146787124Y-114473620D01*
X146762856Y-114470020D01*
X146739057Y-114464059D01*
X146715958Y-114455794D01*
X146693779Y-114445304D01*
X146672736Y-114432692D01*
X146653030Y-114418077D01*
X146634852Y-114401601D01*
X146175231Y-113941980D01*
X146158755Y-113923802D01*
X146144140Y-113904096D01*
X146131528Y-113883053D01*
X146121038Y-113860874D01*
X146112773Y-113837775D01*
X146106812Y-113813976D01*
X146103212Y-113789708D01*
X146102008Y-113765204D01*
X146103212Y-113740700D01*
X146106812Y-113716432D01*
X146112773Y-113692633D01*
X146121038Y-113669534D01*
X146131528Y-113647355D01*
X146144140Y-113626312D01*
X146158755Y-113606606D01*
X146175231Y-113588428D01*
X146811628Y-112952031D01*
X146829806Y-112935555D01*
X146849512Y-112920940D01*
X146870555Y-112908328D01*
X146892734Y-112897838D01*
X146915833Y-112889573D01*
X146939632Y-112883612D01*
X146963900Y-112880012D01*
X146988404Y-112878808D01*
X147012908Y-112880012D01*
X147012908Y-112880012D01*
G37*
D12*
X146900016Y-113676816D03*
D11*
G36*
X148462476Y-114329580D02*
G01*
X148486744Y-114333180D01*
X148510543Y-114339141D01*
X148533642Y-114347406D01*
X148555821Y-114357896D01*
X148576864Y-114370508D01*
X148596570Y-114385123D01*
X148614748Y-114401599D01*
X149074369Y-114861220D01*
X149090845Y-114879398D01*
X149105460Y-114899104D01*
X149118072Y-114920147D01*
X149128562Y-114942326D01*
X149136827Y-114965425D01*
X149142788Y-114989224D01*
X149146388Y-115013492D01*
X149147592Y-115037996D01*
X149146388Y-115062500D01*
X149142788Y-115086768D01*
X149136827Y-115110567D01*
X149128562Y-115133666D01*
X149118072Y-115155845D01*
X149105460Y-115176888D01*
X149090845Y-115196594D01*
X149074369Y-115214772D01*
X148437972Y-115851169D01*
X148419794Y-115867645D01*
X148400088Y-115882260D01*
X148379045Y-115894872D01*
X148356866Y-115905362D01*
X148333767Y-115913627D01*
X148309968Y-115919588D01*
X148285700Y-115923188D01*
X148261196Y-115924392D01*
X148236692Y-115923188D01*
X148212424Y-115919588D01*
X148188625Y-115913627D01*
X148165526Y-115905362D01*
X148143347Y-115894872D01*
X148122304Y-115882260D01*
X148102598Y-115867645D01*
X148084420Y-115851169D01*
X147624799Y-115391548D01*
X147608323Y-115373370D01*
X147593708Y-115353664D01*
X147581096Y-115332621D01*
X147570606Y-115310442D01*
X147562341Y-115287343D01*
X147556380Y-115263544D01*
X147552780Y-115239276D01*
X147551576Y-115214772D01*
X147552780Y-115190268D01*
X147556380Y-115166000D01*
X147562341Y-115142201D01*
X147570606Y-115119102D01*
X147581096Y-115096923D01*
X147593708Y-115075880D01*
X147608323Y-115056174D01*
X147624799Y-115037996D01*
X148261196Y-114401599D01*
X148279374Y-114385123D01*
X148299080Y-114370508D01*
X148320123Y-114357896D01*
X148342302Y-114347406D01*
X148365401Y-114339141D01*
X148389200Y-114333180D01*
X148413468Y-114329580D01*
X148437972Y-114328376D01*
X148462476Y-114329580D01*
X148462476Y-114329580D01*
G37*
D12*
X148349584Y-115126384D03*
D11*
G36*
X149274505Y-102451204D02*
G01*
X149298773Y-102454804D01*
X149322572Y-102460765D01*
X149345671Y-102469030D01*
X149367850Y-102479520D01*
X149388893Y-102492132D01*
X149408599Y-102506747D01*
X149426777Y-102523223D01*
X149443253Y-102541401D01*
X149457868Y-102561107D01*
X149470480Y-102582150D01*
X149480970Y-102604329D01*
X149489235Y-102627428D01*
X149495196Y-102651227D01*
X149498796Y-102675495D01*
X149500000Y-102699999D01*
X149500000Y-103350001D01*
X149498796Y-103374505D01*
X149495196Y-103398773D01*
X149489235Y-103422572D01*
X149480970Y-103445671D01*
X149470480Y-103467850D01*
X149457868Y-103488893D01*
X149443253Y-103508599D01*
X149426777Y-103526777D01*
X149408599Y-103543253D01*
X149388893Y-103557868D01*
X149367850Y-103570480D01*
X149345671Y-103580970D01*
X149322572Y-103589235D01*
X149298773Y-103595196D01*
X149274505Y-103598796D01*
X149250001Y-103600000D01*
X148349999Y-103600000D01*
X148325495Y-103598796D01*
X148301227Y-103595196D01*
X148277428Y-103589235D01*
X148254329Y-103580970D01*
X148232150Y-103570480D01*
X148211107Y-103557868D01*
X148191401Y-103543253D01*
X148173223Y-103526777D01*
X148156747Y-103508599D01*
X148142132Y-103488893D01*
X148129520Y-103467850D01*
X148119030Y-103445671D01*
X148110765Y-103422572D01*
X148104804Y-103398773D01*
X148101204Y-103374505D01*
X148100000Y-103350001D01*
X148100000Y-102699999D01*
X148101204Y-102675495D01*
X148104804Y-102651227D01*
X148110765Y-102627428D01*
X148119030Y-102604329D01*
X148129520Y-102582150D01*
X148142132Y-102561107D01*
X148156747Y-102541401D01*
X148173223Y-102523223D01*
X148191401Y-102506747D01*
X148211107Y-102492132D01*
X148232150Y-102479520D01*
X148254329Y-102469030D01*
X148277428Y-102460765D01*
X148301227Y-102454804D01*
X148325495Y-102451204D01*
X148349999Y-102450000D01*
X149250001Y-102450000D01*
X149274505Y-102451204D01*
X149274505Y-102451204D01*
G37*
D12*
X148800000Y-103025000D03*
D11*
G36*
X149274505Y-100401204D02*
G01*
X149298773Y-100404804D01*
X149322572Y-100410765D01*
X149345671Y-100419030D01*
X149367850Y-100429520D01*
X149388893Y-100442132D01*
X149408599Y-100456747D01*
X149426777Y-100473223D01*
X149443253Y-100491401D01*
X149457868Y-100511107D01*
X149470480Y-100532150D01*
X149480970Y-100554329D01*
X149489235Y-100577428D01*
X149495196Y-100601227D01*
X149498796Y-100625495D01*
X149500000Y-100649999D01*
X149500000Y-101300001D01*
X149498796Y-101324505D01*
X149495196Y-101348773D01*
X149489235Y-101372572D01*
X149480970Y-101395671D01*
X149470480Y-101417850D01*
X149457868Y-101438893D01*
X149443253Y-101458599D01*
X149426777Y-101476777D01*
X149408599Y-101493253D01*
X149388893Y-101507868D01*
X149367850Y-101520480D01*
X149345671Y-101530970D01*
X149322572Y-101539235D01*
X149298773Y-101545196D01*
X149274505Y-101548796D01*
X149250001Y-101550000D01*
X148349999Y-101550000D01*
X148325495Y-101548796D01*
X148301227Y-101545196D01*
X148277428Y-101539235D01*
X148254329Y-101530970D01*
X148232150Y-101520480D01*
X148211107Y-101507868D01*
X148191401Y-101493253D01*
X148173223Y-101476777D01*
X148156747Y-101458599D01*
X148142132Y-101438893D01*
X148129520Y-101417850D01*
X148119030Y-101395671D01*
X148110765Y-101372572D01*
X148104804Y-101348773D01*
X148101204Y-101324505D01*
X148100000Y-101300001D01*
X148100000Y-100649999D01*
X148101204Y-100625495D01*
X148104804Y-100601227D01*
X148110765Y-100577428D01*
X148119030Y-100554329D01*
X148129520Y-100532150D01*
X148142132Y-100511107D01*
X148156747Y-100491401D01*
X148173223Y-100473223D01*
X148191401Y-100456747D01*
X148211107Y-100442132D01*
X148232150Y-100429520D01*
X148254329Y-100419030D01*
X148277428Y-100410765D01*
X148301227Y-100404804D01*
X148325495Y-100401204D01*
X148349999Y-100400000D01*
X149250001Y-100400000D01*
X149274505Y-100401204D01*
X149274505Y-100401204D01*
G37*
D12*
X148800000Y-100975000D03*
D11*
G36*
X149324505Y-116976204D02*
G01*
X149348773Y-116979804D01*
X149372572Y-116985765D01*
X149395671Y-116994030D01*
X149417850Y-117004520D01*
X149438893Y-117017132D01*
X149458599Y-117031747D01*
X149476777Y-117048223D01*
X149493253Y-117066401D01*
X149507868Y-117086107D01*
X149520480Y-117107150D01*
X149530970Y-117129329D01*
X149539235Y-117152428D01*
X149545196Y-117176227D01*
X149548796Y-117200495D01*
X149550000Y-117224999D01*
X149550000Y-118125001D01*
X149548796Y-118149505D01*
X149545196Y-118173773D01*
X149539235Y-118197572D01*
X149530970Y-118220671D01*
X149520480Y-118242850D01*
X149507868Y-118263893D01*
X149493253Y-118283599D01*
X149476777Y-118301777D01*
X149458599Y-118318253D01*
X149438893Y-118332868D01*
X149417850Y-118345480D01*
X149395671Y-118355970D01*
X149372572Y-118364235D01*
X149348773Y-118370196D01*
X149324505Y-118373796D01*
X149300001Y-118375000D01*
X148649999Y-118375000D01*
X148625495Y-118373796D01*
X148601227Y-118370196D01*
X148577428Y-118364235D01*
X148554329Y-118355970D01*
X148532150Y-118345480D01*
X148511107Y-118332868D01*
X148491401Y-118318253D01*
X148473223Y-118301777D01*
X148456747Y-118283599D01*
X148442132Y-118263893D01*
X148429520Y-118242850D01*
X148419030Y-118220671D01*
X148410765Y-118197572D01*
X148404804Y-118173773D01*
X148401204Y-118149505D01*
X148400000Y-118125001D01*
X148400000Y-117224999D01*
X148401204Y-117200495D01*
X148404804Y-117176227D01*
X148410765Y-117152428D01*
X148419030Y-117129329D01*
X148429520Y-117107150D01*
X148442132Y-117086107D01*
X148456747Y-117066401D01*
X148473223Y-117048223D01*
X148491401Y-117031747D01*
X148511107Y-117017132D01*
X148532150Y-117004520D01*
X148554329Y-116994030D01*
X148577428Y-116985765D01*
X148601227Y-116979804D01*
X148625495Y-116976204D01*
X148649999Y-116975000D01*
X149300001Y-116975000D01*
X149324505Y-116976204D01*
X149324505Y-116976204D01*
G37*
D12*
X148975000Y-117675000D03*
D11*
G36*
X147274505Y-116976204D02*
G01*
X147298773Y-116979804D01*
X147322572Y-116985765D01*
X147345671Y-116994030D01*
X147367850Y-117004520D01*
X147388893Y-117017132D01*
X147408599Y-117031747D01*
X147426777Y-117048223D01*
X147443253Y-117066401D01*
X147457868Y-117086107D01*
X147470480Y-117107150D01*
X147480970Y-117129329D01*
X147489235Y-117152428D01*
X147495196Y-117176227D01*
X147498796Y-117200495D01*
X147500000Y-117224999D01*
X147500000Y-118125001D01*
X147498796Y-118149505D01*
X147495196Y-118173773D01*
X147489235Y-118197572D01*
X147480970Y-118220671D01*
X147470480Y-118242850D01*
X147457868Y-118263893D01*
X147443253Y-118283599D01*
X147426777Y-118301777D01*
X147408599Y-118318253D01*
X147388893Y-118332868D01*
X147367850Y-118345480D01*
X147345671Y-118355970D01*
X147322572Y-118364235D01*
X147298773Y-118370196D01*
X147274505Y-118373796D01*
X147250001Y-118375000D01*
X146599999Y-118375000D01*
X146575495Y-118373796D01*
X146551227Y-118370196D01*
X146527428Y-118364235D01*
X146504329Y-118355970D01*
X146482150Y-118345480D01*
X146461107Y-118332868D01*
X146441401Y-118318253D01*
X146423223Y-118301777D01*
X146406747Y-118283599D01*
X146392132Y-118263893D01*
X146379520Y-118242850D01*
X146369030Y-118220671D01*
X146360765Y-118197572D01*
X146354804Y-118173773D01*
X146351204Y-118149505D01*
X146350000Y-118125001D01*
X146350000Y-117224999D01*
X146351204Y-117200495D01*
X146354804Y-117176227D01*
X146360765Y-117152428D01*
X146369030Y-117129329D01*
X146379520Y-117107150D01*
X146392132Y-117086107D01*
X146406747Y-117066401D01*
X146423223Y-117048223D01*
X146441401Y-117031747D01*
X146461107Y-117017132D01*
X146482150Y-117004520D01*
X146504329Y-116994030D01*
X146527428Y-116985765D01*
X146551227Y-116979804D01*
X146575495Y-116976204D01*
X146599999Y-116975000D01*
X147250001Y-116975000D01*
X147274505Y-116976204D01*
X147274505Y-116976204D01*
G37*
D12*
X146925000Y-117675000D03*
D13*
X159550000Y-95700000D03*
X157010000Y-95700000D03*
X154470000Y-95700000D03*
X151930000Y-95700000D03*
X149390000Y-95700000D03*
D14*
X146850000Y-95700000D03*
D15*
X159965040Y-119643520D03*
X145965040Y-119643520D03*
X147965040Y-119643520D03*
X149965040Y-119643520D03*
X151965040Y-119643520D03*
X153965040Y-119643520D03*
X155965040Y-119643520D03*
X157965040Y-119643520D03*
D16*
X163372800Y-112268000D03*
X163372800Y-109702600D03*
X163372800Y-107111800D03*
D17*
X151425495Y-104768297D03*
D11*
G36*
X152185635Y-105139528D02*
G01*
X151796726Y-105528437D01*
X150665355Y-104397066D01*
X151054264Y-104008157D01*
X152185635Y-105139528D01*
X152185635Y-105139528D01*
G37*
D17*
X150859810Y-105333983D03*
D11*
G36*
X151619950Y-105705214D02*
G01*
X151231041Y-106094123D01*
X150099670Y-104962752D01*
X150488579Y-104573843D01*
X151619950Y-105705214D01*
X151619950Y-105705214D01*
G37*
D17*
X150294124Y-105899668D03*
D11*
G36*
X151054264Y-106270899D02*
G01*
X150665355Y-106659808D01*
X149533984Y-105528437D01*
X149922893Y-105139528D01*
X151054264Y-106270899D01*
X151054264Y-106270899D01*
G37*
D17*
X149728439Y-106465353D03*
D11*
G36*
X150488579Y-106836584D02*
G01*
X150099670Y-107225493D01*
X148968299Y-106094122D01*
X149357208Y-105705213D01*
X150488579Y-106836584D01*
X150488579Y-106836584D01*
G37*
D17*
X149162753Y-107031039D03*
D11*
G36*
X149922893Y-107402270D02*
G01*
X149533984Y-107791179D01*
X148402613Y-106659808D01*
X148791522Y-106270899D01*
X149922893Y-107402270D01*
X149922893Y-107402270D01*
G37*
D17*
X148597068Y-107596724D03*
D11*
G36*
X149357208Y-107967955D02*
G01*
X148968299Y-108356864D01*
X147836928Y-107225493D01*
X148225837Y-106836584D01*
X149357208Y-107967955D01*
X149357208Y-107967955D01*
G37*
D17*
X148031383Y-108162410D03*
D11*
G36*
X148791523Y-108533641D02*
G01*
X148402614Y-108922550D01*
X147271243Y-107791179D01*
X147660152Y-107402270D01*
X148791523Y-108533641D01*
X148791523Y-108533641D01*
G37*
D17*
X147465697Y-108728095D03*
D11*
G36*
X148225837Y-109099326D02*
G01*
X147836928Y-109488235D01*
X146705557Y-108356864D01*
X147094466Y-107967955D01*
X148225837Y-109099326D01*
X148225837Y-109099326D01*
G37*
D17*
X147465697Y-110778705D03*
D11*
G36*
X147836928Y-110018565D02*
G01*
X148225837Y-110407474D01*
X147094466Y-111538845D01*
X146705557Y-111149936D01*
X147836928Y-110018565D01*
X147836928Y-110018565D01*
G37*
D17*
X148031383Y-111344390D03*
D11*
G36*
X148402614Y-110584250D02*
G01*
X148791523Y-110973159D01*
X147660152Y-112104530D01*
X147271243Y-111715621D01*
X148402614Y-110584250D01*
X148402614Y-110584250D01*
G37*
D17*
X148597068Y-111910076D03*
D11*
G36*
X148968299Y-111149936D02*
G01*
X149357208Y-111538845D01*
X148225837Y-112670216D01*
X147836928Y-112281307D01*
X148968299Y-111149936D01*
X148968299Y-111149936D01*
G37*
D17*
X149162753Y-112475761D03*
D11*
G36*
X149533984Y-111715621D02*
G01*
X149922893Y-112104530D01*
X148791522Y-113235901D01*
X148402613Y-112846992D01*
X149533984Y-111715621D01*
X149533984Y-111715621D01*
G37*
D17*
X149728439Y-113041447D03*
D11*
G36*
X150099670Y-112281307D02*
G01*
X150488579Y-112670216D01*
X149357208Y-113801587D01*
X148968299Y-113412678D01*
X150099670Y-112281307D01*
X150099670Y-112281307D01*
G37*
D17*
X150294124Y-113607132D03*
D11*
G36*
X150665355Y-112846992D02*
G01*
X151054264Y-113235901D01*
X149922893Y-114367272D01*
X149533984Y-113978363D01*
X150665355Y-112846992D01*
X150665355Y-112846992D01*
G37*
D17*
X150859810Y-114172817D03*
D11*
G36*
X151231041Y-113412677D02*
G01*
X151619950Y-113801586D01*
X150488579Y-114932957D01*
X150099670Y-114544048D01*
X151231041Y-113412677D01*
X151231041Y-113412677D01*
G37*
D17*
X151425495Y-114738503D03*
D11*
G36*
X151796726Y-113978363D02*
G01*
X152185635Y-114367272D01*
X151054264Y-115498643D01*
X150665355Y-115109734D01*
X151796726Y-113978363D01*
X151796726Y-113978363D01*
G37*
D17*
X153476105Y-114738503D03*
D11*
G36*
X154236245Y-115109734D02*
G01*
X153847336Y-115498643D01*
X152715965Y-114367272D01*
X153104874Y-113978363D01*
X154236245Y-115109734D01*
X154236245Y-115109734D01*
G37*
D17*
X154041790Y-114172817D03*
D11*
G36*
X154801930Y-114544048D02*
G01*
X154413021Y-114932957D01*
X153281650Y-113801586D01*
X153670559Y-113412677D01*
X154801930Y-114544048D01*
X154801930Y-114544048D01*
G37*
D17*
X154607476Y-113607132D03*
D11*
G36*
X155367616Y-113978363D02*
G01*
X154978707Y-114367272D01*
X153847336Y-113235901D01*
X154236245Y-112846992D01*
X155367616Y-113978363D01*
X155367616Y-113978363D01*
G37*
D17*
X155173161Y-113041447D03*
D11*
G36*
X155933301Y-113412678D02*
G01*
X155544392Y-113801587D01*
X154413021Y-112670216D01*
X154801930Y-112281307D01*
X155933301Y-113412678D01*
X155933301Y-113412678D01*
G37*
D17*
X155738847Y-112475761D03*
D11*
G36*
X156498987Y-112846992D02*
G01*
X156110078Y-113235901D01*
X154978707Y-112104530D01*
X155367616Y-111715621D01*
X156498987Y-112846992D01*
X156498987Y-112846992D01*
G37*
D17*
X156304532Y-111910076D03*
D11*
G36*
X157064672Y-112281307D02*
G01*
X156675763Y-112670216D01*
X155544392Y-111538845D01*
X155933301Y-111149936D01*
X157064672Y-112281307D01*
X157064672Y-112281307D01*
G37*
D17*
X156870217Y-111344390D03*
D11*
G36*
X157630357Y-111715621D02*
G01*
X157241448Y-112104530D01*
X156110077Y-110973159D01*
X156498986Y-110584250D01*
X157630357Y-111715621D01*
X157630357Y-111715621D01*
G37*
D17*
X157435903Y-110778705D03*
D11*
G36*
X158196043Y-111149936D02*
G01*
X157807134Y-111538845D01*
X156675763Y-110407474D01*
X157064672Y-110018565D01*
X158196043Y-111149936D01*
X158196043Y-111149936D01*
G37*
D17*
X157435903Y-108728095D03*
D11*
G36*
X157807134Y-107967955D02*
G01*
X158196043Y-108356864D01*
X157064672Y-109488235D01*
X156675763Y-109099326D01*
X157807134Y-107967955D01*
X157807134Y-107967955D01*
G37*
D17*
X156870217Y-108162410D03*
D11*
G36*
X157241448Y-107402270D02*
G01*
X157630357Y-107791179D01*
X156498986Y-108922550D01*
X156110077Y-108533641D01*
X157241448Y-107402270D01*
X157241448Y-107402270D01*
G37*
D17*
X156304532Y-107596724D03*
D11*
G36*
X156675763Y-106836584D02*
G01*
X157064672Y-107225493D01*
X155933301Y-108356864D01*
X155544392Y-107967955D01*
X156675763Y-106836584D01*
X156675763Y-106836584D01*
G37*
D17*
X155738847Y-107031039D03*
D11*
G36*
X156110078Y-106270899D02*
G01*
X156498987Y-106659808D01*
X155367616Y-107791179D01*
X154978707Y-107402270D01*
X156110078Y-106270899D01*
X156110078Y-106270899D01*
G37*
D17*
X155173161Y-106465353D03*
D11*
G36*
X155544392Y-105705213D02*
G01*
X155933301Y-106094122D01*
X154801930Y-107225493D01*
X154413021Y-106836584D01*
X155544392Y-105705213D01*
X155544392Y-105705213D01*
G37*
D17*
X154607476Y-105899668D03*
D11*
G36*
X154978707Y-105139528D02*
G01*
X155367616Y-105528437D01*
X154236245Y-106659808D01*
X153847336Y-106270899D01*
X154978707Y-105139528D01*
X154978707Y-105139528D01*
G37*
D17*
X154041790Y-105333983D03*
D11*
G36*
X154413021Y-104573843D02*
G01*
X154801930Y-104962752D01*
X153670559Y-106094123D01*
X153281650Y-105705214D01*
X154413021Y-104573843D01*
X154413021Y-104573843D01*
G37*
D17*
X153476105Y-104768297D03*
D11*
G36*
X153847336Y-104008157D02*
G01*
X154236245Y-104397066D01*
X153104874Y-105528437D01*
X152715965Y-105139528D01*
X153847336Y-104008157D01*
X153847336Y-104008157D01*
G37*
D18*
X156500000Y-100900000D03*
X151500000Y-101000000D03*
X152670000Y-107000000D03*
X152700000Y-109600000D03*
X152700000Y-112200000D03*
X154025000Y-108225000D03*
X155475000Y-109550000D03*
X154050000Y-110825000D03*
X151300000Y-110950000D03*
X149975000Y-109575000D03*
X151275000Y-108275000D03*
X159900000Y-109025000D03*
X150400000Y-116175000D03*
X146875000Y-105225000D03*
X160000000Y-112050000D03*
X147350000Y-117350000D03*
X148380000Y-115150000D03*
X157350000Y-105850000D03*
X155005000Y-118220000D03*
X148850000Y-109850000D03*
X156350000Y-115650000D03*
X158250000Y-110150000D03*
X159175000Y-101650000D03*
X160426400Y-107050840D03*
D19*
X147915600Y-119571000D02*
X147994600Y-119650000D01*
X147006082Y-113782882D02*
X147412668Y-113376296D01*
X155102452Y-107667434D02*
X155738847Y-107031039D01*
X154784236Y-107667434D02*
X155102452Y-107667434D01*
X153971081Y-106536063D02*
X153971081Y-106854279D01*
X154607476Y-105899668D02*
X153971081Y-106536063D01*
X153971081Y-106854279D02*
X154305000Y-107188198D01*
X154305000Y-107188198D02*
X154784236Y-107667434D01*
X161523680Y-109702600D02*
X161452560Y-109702600D01*
X163372800Y-109702600D02*
X161523680Y-109702600D01*
X161452560Y-109702600D02*
X161234120Y-109921040D01*
X161234120Y-109921040D02*
X161254440Y-109941360D01*
X162133280Y-109829600D02*
X162021520Y-109941360D01*
X162229800Y-109829600D02*
X162133280Y-109829600D01*
X161787840Y-109941360D02*
X162021520Y-109941360D01*
X161254440Y-109941360D02*
X161787840Y-109941360D01*
X161523680Y-109702600D02*
X161686240Y-109540040D01*
X161848800Y-109702600D02*
X162112960Y-109702600D01*
X161686240Y-109540040D02*
X161848800Y-109702600D01*
X162112960Y-109702600D02*
X162331400Y-109484160D01*
X162072320Y-109540040D02*
X161686240Y-109540040D01*
X160386999Y-109702600D02*
X161269680Y-109702600D01*
X161269680Y-109702600D02*
X161269680Y-109651800D01*
X161269680Y-109651800D02*
X161589720Y-109331760D01*
X160350200Y-109665801D02*
X160386999Y-109702600D01*
X162280600Y-109331760D02*
X162072320Y-109540040D01*
X163001960Y-109331760D02*
X163372800Y-109702600D01*
X162280600Y-109331760D02*
X163001960Y-109331760D01*
X162062160Y-109331760D02*
X162062160Y-109306360D01*
X162062160Y-109331760D02*
X162280600Y-109331760D01*
X161589720Y-109331760D02*
X162062160Y-109331760D01*
X162062160Y-109306360D02*
X161792920Y-109037120D01*
X162179000Y-109941360D02*
X162052000Y-109941360D01*
X162179000Y-109941360D02*
X162366960Y-109941360D01*
X161787840Y-109941360D02*
X162179000Y-109941360D01*
X163372800Y-109702600D02*
X162971480Y-109702600D01*
X162971480Y-109702600D02*
X162163760Y-108894880D01*
X162163760Y-108894880D02*
X162163760Y-108884720D01*
X162163760Y-108884720D02*
X161970720Y-108691680D01*
X161970720Y-108691680D02*
X161985960Y-108706920D01*
X161985960Y-108706920D02*
X161985960Y-108966000D01*
X161985960Y-108966000D02*
X162199320Y-109179360D01*
X163372800Y-109702600D02*
X163149280Y-109702600D01*
X163149280Y-109702600D02*
X161945320Y-108498640D01*
X161945320Y-108498640D02*
X161925000Y-108498640D01*
X156589622Y-103917522D02*
X156632682Y-103917522D01*
X147961698Y-113676816D02*
X149162753Y-112475761D01*
X146900016Y-113676816D02*
X147961698Y-113676816D01*
X145994600Y-119613960D02*
X145965040Y-119643520D01*
X148243518Y-115020318D02*
X148263838Y-115020318D01*
X155173161Y-106465353D02*
X155809556Y-105828958D01*
X156304532Y-107596724D02*
X156940927Y-106960329D01*
X149092044Y-113677842D02*
X149728439Y-113041447D01*
X148650104Y-114119782D02*
X149092044Y-113677842D01*
X148650104Y-114613732D02*
X148650104Y-114119782D01*
X148243518Y-115020318D02*
X148650104Y-114613732D01*
X148243518Y-115020318D02*
X148649918Y-115020318D01*
X160021239Y-112003840D02*
X160274000Y-111751079D01*
X149882627Y-115150000D02*
X150859810Y-114172817D01*
X148380000Y-115150000D02*
X149882627Y-115150000D01*
X155963730Y-105674784D02*
X157674784Y-105674784D01*
X155173161Y-106465353D02*
X155963730Y-105674784D01*
X157674784Y-106226472D02*
X157674784Y-105674784D01*
X156304532Y-107596724D02*
X157674784Y-106226472D01*
D20*
X145965040Y-118484960D02*
X147250000Y-117200000D01*
X145965040Y-119643520D02*
X145965040Y-118484960D01*
D19*
X148575000Y-97425000D02*
X148575000Y-100750000D01*
X146850000Y-95700000D02*
X148575000Y-97425000D01*
X149092044Y-105828958D02*
X149728439Y-106465353D01*
X148800000Y-105536914D02*
X148800000Y-103025000D01*
X149728439Y-106465353D02*
X148800000Y-105536914D01*
X146750000Y-98770000D02*
X147170000Y-98350000D01*
X148775000Y-103050000D02*
X148800000Y-103025000D01*
X146750000Y-103050000D02*
X148775000Y-103050000D01*
X146750000Y-103050000D02*
X146750000Y-101450000D01*
X147300000Y-100900000D02*
X147300000Y-98400000D01*
X146750000Y-101450000D02*
X147300000Y-100900000D01*
X148939478Y-96195922D02*
X149301200Y-95834200D01*
X150565001Y-94524999D02*
X150239999Y-94850001D01*
X153220000Y-94830000D02*
X152914999Y-94524999D01*
X150859810Y-105333983D02*
X150223415Y-104697588D01*
X150223415Y-103976585D02*
X150562500Y-103637500D01*
X152914999Y-94524999D02*
X150565001Y-94524999D01*
X150562500Y-103637500D02*
X150562500Y-100437500D01*
X150239999Y-94850001D02*
X149390000Y-95700000D01*
X150562500Y-100437500D02*
X153220000Y-97780000D01*
X150223415Y-104697588D02*
X150223415Y-103976585D01*
X153220000Y-97780000D02*
X153220000Y-94830000D01*
X151930000Y-98370000D02*
X151930000Y-95700000D01*
X150112490Y-100187510D02*
X151930000Y-98370000D01*
X150112490Y-103451100D02*
X150112490Y-100187510D01*
X149773406Y-103790184D02*
X150112490Y-103451100D01*
X149773405Y-105378949D02*
X149773406Y-103790184D01*
X150294124Y-105899668D02*
X149773405Y-105378949D01*
X153994600Y-115256998D02*
X153476105Y-114738503D01*
X153965040Y-118464680D02*
X153965040Y-119643520D01*
X153994600Y-118435120D02*
X153965040Y-118464680D01*
X153994600Y-118435120D02*
X153994600Y-115256998D01*
X153994600Y-119650000D02*
X153994600Y-118435120D01*
X153965040Y-115227438D02*
X153476105Y-114738503D01*
X153965040Y-119643520D02*
X153965040Y-115227438D01*
X154996986Y-117646301D02*
X154996986Y-115128014D01*
X155005000Y-117654315D02*
X154996986Y-117646301D01*
X155005000Y-118220000D02*
X155005000Y-117654315D01*
X154996986Y-115128014D02*
X154041790Y-114172817D01*
X155243871Y-114243527D02*
X154607476Y-113607132D01*
X159965040Y-118688926D02*
X159975000Y-118678966D01*
X159965040Y-119643520D02*
X159965040Y-118688926D01*
X159975000Y-118678966D02*
X159975000Y-116675000D01*
X159975000Y-116675000D02*
X158200000Y-114900000D01*
X155900344Y-114900000D02*
X154607476Y-113607132D01*
X158200000Y-114900000D02*
X155900344Y-114900000D01*
X151425495Y-104768297D02*
X152061890Y-105404692D01*
X152061890Y-105404692D02*
X152061890Y-106118110D01*
X157965040Y-118688926D02*
X156350000Y-117073886D01*
X157965040Y-119643520D02*
X157965040Y-118688926D01*
X156350000Y-115975000D02*
X156350000Y-115600000D01*
X156350000Y-115650000D02*
X156350000Y-116800000D01*
X156350000Y-117073886D02*
X156350000Y-116800000D01*
X156350000Y-116800000D02*
X156350000Y-115975000D01*
X149249999Y-108930001D02*
X152061890Y-106118110D01*
X149249999Y-109450001D02*
X149249999Y-108930001D01*
X148850000Y-109850000D02*
X149249999Y-109450001D01*
X157435903Y-110778705D02*
X157435903Y-110764097D01*
X157621295Y-110778705D02*
X158250000Y-110150000D01*
X157435903Y-110778705D02*
X157621295Y-110778705D01*
X161664101Y-112268000D02*
X160185821Y-113746280D01*
X163372800Y-112268000D02*
X161664101Y-112268000D01*
X157009366Y-113746280D02*
X155738847Y-112475761D01*
X160185821Y-113746280D02*
X157009366Y-113746280D01*
X163372800Y-107111800D02*
X161325560Y-107111800D01*
X160487360Y-107111800D02*
X160426400Y-107050840D01*
X163372800Y-107111800D02*
X160487360Y-107111800D01*
X158609315Y-101650000D02*
X159175000Y-101650000D01*
X157415264Y-101650000D02*
X158609315Y-101650000D01*
X154678185Y-104387079D02*
X157415264Y-101650000D01*
X154678185Y-104697588D02*
X154678185Y-104387079D01*
X154041790Y-105333983D02*
X154678185Y-104697588D01*
X151965040Y-118332600D02*
X151965040Y-119643520D01*
X151965040Y-118332600D02*
X151965040Y-115278048D01*
X151965040Y-115278048D02*
X151425495Y-114738503D01*
X151965040Y-119643520D02*
X151965040Y-115278048D01*
D21*
G36*
X160713401Y-93260837D02*
G01*
X160713401Y-95181363D01*
X160699933Y-95144664D01*
X160569497Y-94930994D01*
X160399882Y-94746876D01*
X160197606Y-94599386D01*
X159970443Y-94494192D01*
X159870324Y-94463827D01*
X159673000Y-94536232D01*
X159673000Y-95577000D01*
X159693000Y-95577000D01*
X159693000Y-95823000D01*
X159673000Y-95823000D01*
X159673000Y-96863768D01*
X159870324Y-96936173D01*
X159970443Y-96905808D01*
X160197606Y-96800614D01*
X160399882Y-96653124D01*
X160569497Y-96469006D01*
X160699933Y-96255336D01*
X160713401Y-96218637D01*
X160713400Y-106166342D01*
X160696796Y-106159464D01*
X160517701Y-106123840D01*
X160335099Y-106123840D01*
X160156004Y-106159464D01*
X159987301Y-106229344D01*
X159835472Y-106330792D01*
X159706352Y-106459912D01*
X159604904Y-106611741D01*
X159535024Y-106780444D01*
X159499400Y-106959539D01*
X159499400Y-107142141D01*
X159535024Y-107321236D01*
X159604904Y-107489939D01*
X159706352Y-107641768D01*
X159835472Y-107770888D01*
X159987301Y-107872336D01*
X160156004Y-107942216D01*
X160335099Y-107977840D01*
X160517701Y-107977840D01*
X160696796Y-107942216D01*
X160865499Y-107872336D01*
X161017328Y-107770888D01*
X161024416Y-107763800D01*
X161153492Y-107763800D01*
X162088426Y-108633595D01*
X162069405Y-108649205D01*
X162016045Y-108714224D01*
X161976395Y-108788404D01*
X161951978Y-108868893D01*
X161943734Y-108952600D01*
X161945800Y-109472850D01*
X162052550Y-109579600D01*
X163249800Y-109579600D01*
X163249800Y-109559600D01*
X163495800Y-109559600D01*
X163495800Y-109579600D01*
X163515800Y-109579600D01*
X163515800Y-109825600D01*
X163495800Y-109825600D01*
X163495800Y-109845600D01*
X163249800Y-109845600D01*
X163249800Y-109825600D01*
X162052550Y-109825600D01*
X161945800Y-109932350D01*
X161943734Y-110452600D01*
X161951978Y-110536307D01*
X161960417Y-110564124D01*
X160779183Y-110571973D01*
X160806755Y-110538376D01*
X160846405Y-110464196D01*
X160870822Y-110383707D01*
X160879066Y-110300000D01*
X160877000Y-109954750D01*
X160770250Y-109848000D01*
X159873000Y-109848000D01*
X159873000Y-109868000D01*
X159627000Y-109868000D01*
X159627000Y-109848000D01*
X159607000Y-109848000D01*
X159607000Y-109602000D01*
X159627000Y-109602000D01*
X159627000Y-108829750D01*
X159873000Y-108829750D01*
X159873000Y-109602000D01*
X160770250Y-109602000D01*
X160877000Y-109495250D01*
X160879066Y-109150000D01*
X160870822Y-109066293D01*
X160846405Y-108985804D01*
X160806755Y-108911624D01*
X160753395Y-108846605D01*
X160688376Y-108793245D01*
X160614196Y-108753595D01*
X160533707Y-108729178D01*
X160450000Y-108720934D01*
X159979750Y-108723000D01*
X159873000Y-108829750D01*
X159627000Y-108829750D01*
X159520250Y-108723000D01*
X159050000Y-108720934D01*
X158966293Y-108729178D01*
X158885804Y-108753595D01*
X158811624Y-108793245D01*
X158746605Y-108846605D01*
X158693245Y-108911624D01*
X158653595Y-108985804D01*
X158629178Y-109066293D01*
X158620934Y-109150000D01*
X158621835Y-109300642D01*
X158520396Y-109258624D01*
X158341301Y-109223000D01*
X158158699Y-109223000D01*
X158058965Y-109242838D01*
X158570491Y-108731312D01*
X158636347Y-108651066D01*
X158685282Y-108559514D01*
X158715417Y-108460174D01*
X158725592Y-108356864D01*
X158715417Y-108253554D01*
X158685282Y-108154214D01*
X158636347Y-108062662D01*
X158570491Y-107982416D01*
X158181582Y-107593507D01*
X158101336Y-107527651D01*
X158081345Y-107516966D01*
X158070661Y-107496977D01*
X158004805Y-107416731D01*
X157705698Y-107117624D01*
X157878408Y-106944914D01*
X157884716Y-106943001D01*
X158019490Y-106870963D01*
X158137620Y-106774017D01*
X158774017Y-106137620D01*
X158870963Y-106019490D01*
X158943001Y-105884716D01*
X158987362Y-105738478D01*
X159002341Y-105586396D01*
X158987362Y-105434314D01*
X158943001Y-105288076D01*
X158870963Y-105153302D01*
X158774017Y-105035172D01*
X158314396Y-104575551D01*
X158196266Y-104478605D01*
X158061492Y-104406567D01*
X157915254Y-104362206D01*
X157763172Y-104347227D01*
X157611090Y-104362206D01*
X157464852Y-104406567D01*
X157452278Y-104413288D01*
X157483533Y-104375204D01*
X157523182Y-104301024D01*
X157547598Y-104220534D01*
X157555842Y-104136828D01*
X157547598Y-104053121D01*
X157523182Y-103972631D01*
X157483533Y-103898451D01*
X157430173Y-103833432D01*
X157184583Y-103590764D01*
X157033616Y-103590764D01*
X156399164Y-104225216D01*
X156413307Y-104239359D01*
X156239359Y-104413307D01*
X156225216Y-104399164D01*
X155590764Y-105033616D01*
X155590764Y-105137414D01*
X155544125Y-105175690D01*
X155441082Y-105185839D01*
X155341742Y-105215974D01*
X155250190Y-105264909D01*
X155205826Y-105301318D01*
X155242234Y-105256954D01*
X155291169Y-105165402D01*
X155321304Y-105066062D01*
X155331479Y-104962752D01*
X155321326Y-104859668D01*
X155416816Y-104859668D01*
X156051268Y-104225216D01*
X156037126Y-104211074D01*
X156211074Y-104037126D01*
X156225216Y-104051268D01*
X156859668Y-103416816D01*
X156859668Y-103265849D01*
X156790988Y-103196342D01*
X157685331Y-102302000D01*
X158516024Y-102302000D01*
X158584072Y-102370048D01*
X158735901Y-102471496D01*
X158904604Y-102541376D01*
X159083699Y-102577000D01*
X159266301Y-102577000D01*
X159445396Y-102541376D01*
X159614099Y-102471496D01*
X159765928Y-102370048D01*
X159895048Y-102240928D01*
X159996496Y-102089099D01*
X160066376Y-101920396D01*
X160102000Y-101741301D01*
X160102000Y-101558699D01*
X160066376Y-101379604D01*
X159996496Y-101210901D01*
X159895048Y-101059072D01*
X159765928Y-100929952D01*
X159614099Y-100828504D01*
X159445396Y-100758624D01*
X159266301Y-100723000D01*
X159083699Y-100723000D01*
X158904604Y-100758624D01*
X158735901Y-100828504D01*
X158584072Y-100929952D01*
X158516024Y-100998000D01*
X157447285Y-100998000D01*
X157415263Y-100994846D01*
X157287449Y-101007435D01*
X157170923Y-101042783D01*
X157164547Y-101044717D01*
X157051280Y-101105259D01*
X156952000Y-101186736D01*
X156931584Y-101211613D01*
X154365636Y-103777561D01*
X154221784Y-103633709D01*
X154141538Y-103567853D01*
X154049986Y-103518918D01*
X153950646Y-103488783D01*
X153847336Y-103478608D01*
X153744026Y-103488783D01*
X153644686Y-103518918D01*
X153553134Y-103567853D01*
X153472888Y-103633709D01*
X152450800Y-104655797D01*
X151428712Y-103633709D01*
X151348466Y-103567853D01*
X151256914Y-103518918D01*
X151214500Y-103506052D01*
X151214500Y-101520102D01*
X152673200Y-101520102D01*
X152673200Y-101781498D01*
X152724196Y-102037872D01*
X152824228Y-102279370D01*
X152969452Y-102496713D01*
X153154287Y-102681548D01*
X153371630Y-102826772D01*
X153613128Y-102926804D01*
X153869502Y-102977800D01*
X154130898Y-102977800D01*
X154387272Y-102926804D01*
X154628770Y-102826772D01*
X154846113Y-102681548D01*
X155030948Y-102496713D01*
X155176172Y-102279370D01*
X155276204Y-102037872D01*
X155327200Y-101781498D01*
X155327200Y-101520102D01*
X155276204Y-101263728D01*
X155176172Y-101022230D01*
X155030948Y-100804887D01*
X154846113Y-100620052D01*
X154628770Y-100474828D01*
X154387272Y-100374796D01*
X154130898Y-100323800D01*
X153869502Y-100323800D01*
X153613128Y-100374796D01*
X153371630Y-100474828D01*
X153154287Y-100620052D01*
X152969452Y-100804887D01*
X152824228Y-101022230D01*
X152724196Y-101263728D01*
X152673200Y-101520102D01*
X151214500Y-101520102D01*
X151214500Y-100707566D01*
X153658388Y-98263679D01*
X153683264Y-98243264D01*
X153764741Y-98143984D01*
X153825283Y-98030717D01*
X153862565Y-97907814D01*
X153872000Y-97812022D01*
X153872000Y-97812021D01*
X153875154Y-97780000D01*
X153872000Y-97747978D01*
X153872000Y-96941726D01*
X153940495Y-96978337D01*
X154200061Y-97057075D01*
X154402360Y-97077000D01*
X154537640Y-97077000D01*
X154739939Y-97057075D01*
X154999505Y-96978337D01*
X155238721Y-96850473D01*
X155448397Y-96678397D01*
X155620473Y-96468721D01*
X155748337Y-96229505D01*
X155794609Y-96076967D01*
X155860067Y-96255336D01*
X155990503Y-96469006D01*
X156160118Y-96653124D01*
X156362394Y-96800614D01*
X156589557Y-96905808D01*
X156689676Y-96936173D01*
X156887000Y-96863768D01*
X156887000Y-95823000D01*
X157133000Y-95823000D01*
X157133000Y-96863768D01*
X157330324Y-96936173D01*
X157430443Y-96905808D01*
X157657606Y-96800614D01*
X157859882Y-96653124D01*
X158029497Y-96469006D01*
X158159933Y-96255336D01*
X158246178Y-96020325D01*
X158313822Y-96020325D01*
X158400067Y-96255336D01*
X158530503Y-96469006D01*
X158700118Y-96653124D01*
X158902394Y-96800614D01*
X159129557Y-96905808D01*
X159229676Y-96936173D01*
X159427000Y-96863768D01*
X159427000Y-95823000D01*
X158385682Y-95823000D01*
X158313822Y-96020325D01*
X158246178Y-96020325D01*
X158174318Y-95823000D01*
X157133000Y-95823000D01*
X156887000Y-95823000D01*
X156867000Y-95823000D01*
X156867000Y-95577000D01*
X156887000Y-95577000D01*
X156887000Y-94536232D01*
X157133000Y-94536232D01*
X157133000Y-95577000D01*
X158174318Y-95577000D01*
X158246178Y-95379675D01*
X158313822Y-95379675D01*
X158385682Y-95577000D01*
X159427000Y-95577000D01*
X159427000Y-94536232D01*
X159229676Y-94463827D01*
X159129557Y-94494192D01*
X158902394Y-94599386D01*
X158700118Y-94746876D01*
X158530503Y-94930994D01*
X158400067Y-95144664D01*
X158313822Y-95379675D01*
X158246178Y-95379675D01*
X158159933Y-95144664D01*
X158029497Y-94930994D01*
X157859882Y-94746876D01*
X157657606Y-94599386D01*
X157430443Y-94494192D01*
X157330324Y-94463827D01*
X157133000Y-94536232D01*
X156887000Y-94536232D01*
X156689676Y-94463827D01*
X156589557Y-94494192D01*
X156362394Y-94599386D01*
X156160118Y-94746876D01*
X155990503Y-94930994D01*
X155860067Y-95144664D01*
X155794609Y-95323033D01*
X155748337Y-95170495D01*
X155620473Y-94931279D01*
X155448397Y-94721603D01*
X155238721Y-94549527D01*
X154999505Y-94421663D01*
X154739939Y-94342925D01*
X154537640Y-94323000D01*
X154402360Y-94323000D01*
X154200061Y-94342925D01*
X153940495Y-94421663D01*
X153785357Y-94504586D01*
X153764741Y-94466016D01*
X153683264Y-94366736D01*
X153658381Y-94346315D01*
X153398684Y-94086618D01*
X153378263Y-94061735D01*
X153278983Y-93980258D01*
X153165716Y-93919716D01*
X153042813Y-93882434D01*
X152947021Y-93872999D01*
X152914999Y-93869845D01*
X152882977Y-93872999D01*
X150597022Y-93872999D01*
X150565000Y-93869845D01*
X150437186Y-93882434D01*
X150314284Y-93919716D01*
X150201017Y-93980258D01*
X150101737Y-94061735D01*
X150081316Y-94086618D01*
X149801614Y-94366320D01*
X149801608Y-94366325D01*
X149786589Y-94381344D01*
X149659939Y-94342925D01*
X149457640Y-94323000D01*
X149322360Y-94323000D01*
X149120061Y-94342925D01*
X148860495Y-94421663D01*
X148621279Y-94549527D01*
X148411603Y-94721603D01*
X148239527Y-94931279D01*
X148229549Y-94949946D01*
X148229549Y-94850000D01*
X148219374Y-94746690D01*
X148189239Y-94647350D01*
X148140304Y-94555798D01*
X148074448Y-94475552D01*
X147994202Y-94409696D01*
X147902650Y-94360761D01*
X147803310Y-94330626D01*
X147700000Y-94320451D01*
X146000000Y-94320451D01*
X145896690Y-94330626D01*
X145797350Y-94360761D01*
X145705798Y-94409696D01*
X145625552Y-94475552D01*
X145559696Y-94555798D01*
X145510761Y-94647350D01*
X145480626Y-94746690D01*
X145470451Y-94850000D01*
X145470451Y-96550000D01*
X145480626Y-96653310D01*
X145510761Y-96752650D01*
X145559696Y-96844202D01*
X145625552Y-96924448D01*
X145705798Y-96990304D01*
X145797350Y-97039239D01*
X145896690Y-97069374D01*
X146000000Y-97079549D01*
X147307482Y-97079549D01*
X147423384Y-97195451D01*
X146625000Y-97195451D01*
X146521690Y-97205626D01*
X146422350Y-97235761D01*
X146330798Y-97284696D01*
X146250552Y-97350552D01*
X146184696Y-97430798D01*
X146135761Y-97522350D01*
X146105626Y-97621690D01*
X146095451Y-97725000D01*
X146095451Y-98763858D01*
X146094846Y-98770000D01*
X146095451Y-98776142D01*
X146095451Y-99075000D01*
X146105626Y-99178310D01*
X146135761Y-99277650D01*
X146184696Y-99369202D01*
X146250552Y-99449448D01*
X146330798Y-99515304D01*
X146422350Y-99564239D01*
X146521690Y-99594374D01*
X146625000Y-99604549D01*
X146648001Y-99604549D01*
X146648000Y-100629933D01*
X146311614Y-100966320D01*
X146286737Y-100986736D01*
X146205260Y-101086016D01*
X146194974Y-101105260D01*
X146144717Y-101199284D01*
X146107435Y-101322186D01*
X146094846Y-101450000D01*
X146098001Y-101482032D01*
X146098001Y-101975572D01*
X146001679Y-102004791D01*
X145866905Y-102076829D01*
X145748775Y-102173775D01*
X145651829Y-102291905D01*
X145579791Y-102426679D01*
X145535430Y-102572917D01*
X145520451Y-102724999D01*
X145520451Y-103375001D01*
X145535430Y-103527083D01*
X145579791Y-103673321D01*
X145651829Y-103808095D01*
X145748775Y-103926225D01*
X145866905Y-104023171D01*
X145963871Y-104075000D01*
X145866905Y-104126829D01*
X145748775Y-104223775D01*
X145651829Y-104341905D01*
X145579791Y-104476679D01*
X145535430Y-104622917D01*
X145520451Y-104774999D01*
X145520451Y-105425001D01*
X145535430Y-105577083D01*
X145579791Y-105723321D01*
X145651829Y-105858095D01*
X145748775Y-105976225D01*
X145866905Y-106073171D01*
X146001679Y-106145209D01*
X146147917Y-106189570D01*
X146299999Y-106204549D01*
X147200001Y-106204549D01*
X147352083Y-106189570D01*
X147498321Y-106145209D01*
X147633095Y-106073171D01*
X147751225Y-105976225D01*
X147848171Y-105858095D01*
X147920209Y-105723321D01*
X147964570Y-105577083D01*
X147979549Y-105425001D01*
X147979549Y-104774999D01*
X147964570Y-104622917D01*
X147920209Y-104476679D01*
X147848171Y-104341905D01*
X147751225Y-104223775D01*
X147633095Y-104126829D01*
X147536129Y-104075000D01*
X147633095Y-104023171D01*
X147751225Y-103926225D01*
X147785258Y-103884755D01*
X147798775Y-103901225D01*
X147916905Y-103998171D01*
X148051679Y-104070209D01*
X148148001Y-104099428D01*
X148148000Y-105504892D01*
X148144846Y-105536914D01*
X148157435Y-105664728D01*
X148174103Y-105719674D01*
X148194717Y-105787630D01*
X148255259Y-105900897D01*
X148326193Y-105987332D01*
X148028165Y-106285360D01*
X147962309Y-106365606D01*
X147951625Y-106385596D01*
X147931635Y-106396280D01*
X147851389Y-106462136D01*
X147462480Y-106851045D01*
X147396624Y-106931291D01*
X147385939Y-106951282D01*
X147365950Y-106961966D01*
X147285704Y-107027822D01*
X146896795Y-107416731D01*
X146830939Y-107496977D01*
X146820255Y-107516966D01*
X146800264Y-107527651D01*
X146720018Y-107593507D01*
X146331109Y-107982416D01*
X146265253Y-108062662D01*
X146216318Y-108154214D01*
X146186183Y-108253554D01*
X146176008Y-108356864D01*
X146186183Y-108460174D01*
X146216318Y-108559514D01*
X146265253Y-108651066D01*
X146331109Y-108731312D01*
X147353197Y-109753400D01*
X146331109Y-110775488D01*
X146265253Y-110855734D01*
X146216318Y-110947286D01*
X146186183Y-111046626D01*
X146176008Y-111149936D01*
X146186183Y-111253246D01*
X146216318Y-111352586D01*
X146265253Y-111444138D01*
X146331109Y-111524384D01*
X146720018Y-111913293D01*
X146800264Y-111979149D01*
X146820255Y-111989834D01*
X146830939Y-112009823D01*
X146896795Y-112090069D01*
X147223438Y-112416712D01*
X147152601Y-112378850D01*
X147072111Y-112354434D01*
X146988404Y-112346190D01*
X146904698Y-112354434D01*
X146824208Y-112378850D01*
X146750028Y-112418499D01*
X146685009Y-112471859D01*
X146353953Y-112805837D01*
X146353953Y-112956805D01*
X146900016Y-113502868D01*
X146914159Y-113488726D01*
X147088107Y-113662674D01*
X147073964Y-113676816D01*
X147088107Y-113690959D01*
X146914159Y-113864907D01*
X146900016Y-113850764D01*
X146265564Y-114485216D01*
X146265564Y-114636183D01*
X146508232Y-114881773D01*
X146573251Y-114935133D01*
X146647431Y-114974782D01*
X146727921Y-114999198D01*
X146811628Y-115007442D01*
X146895334Y-114999198D01*
X146975824Y-114974782D01*
X147050004Y-114935133D01*
X147088088Y-114903878D01*
X147081367Y-114916452D01*
X147037006Y-115062690D01*
X147022027Y-115214772D01*
X147037006Y-115366854D01*
X147081367Y-115513092D01*
X147153405Y-115647866D01*
X147250351Y-115765996D01*
X147709972Y-116225617D01*
X147828102Y-116322563D01*
X147962876Y-116394601D01*
X148109114Y-116438962D01*
X148261196Y-116453941D01*
X148413278Y-116438962D01*
X148559516Y-116394601D01*
X148694290Y-116322563D01*
X148812420Y-116225617D01*
X149236037Y-115802000D01*
X149850605Y-115802000D01*
X149882627Y-115805154D01*
X149914649Y-115802000D01*
X150010441Y-115792565D01*
X150133344Y-115755283D01*
X150246611Y-115694741D01*
X150345891Y-115613264D01*
X150366312Y-115588382D01*
X150380709Y-115573984D01*
X150679816Y-115873091D01*
X150760062Y-115938947D01*
X150851614Y-115987882D01*
X150950954Y-116018017D01*
X151054264Y-116028192D01*
X151157574Y-116018017D01*
X151256914Y-115987882D01*
X151313041Y-115957882D01*
X151313041Y-117455154D01*
X151313040Y-118633539D01*
X151198810Y-118709866D01*
X151031386Y-118877290D01*
X150965040Y-118976583D01*
X150898694Y-118877290D01*
X150731270Y-118709866D01*
X150534401Y-118578321D01*
X150315650Y-118487712D01*
X150083427Y-118441520D01*
X149972515Y-118441520D01*
X149979066Y-118375000D01*
X149977000Y-117904750D01*
X149870250Y-117798000D01*
X149098000Y-117798000D01*
X149098000Y-118695250D01*
X149155713Y-118752963D01*
X149031386Y-118877290D01*
X148899841Y-119074159D01*
X148895866Y-119083755D01*
X148754166Y-119028342D01*
X148138988Y-119643520D01*
X148754166Y-120258698D01*
X148895866Y-120203285D01*
X148899841Y-120212881D01*
X149031386Y-120409750D01*
X149198810Y-120577174D01*
X149395679Y-120708719D01*
X149614430Y-120799328D01*
X149846653Y-120845520D01*
X150083427Y-120845520D01*
X150315650Y-120799328D01*
X150534401Y-120708719D01*
X150731270Y-120577174D01*
X150898694Y-120409750D01*
X150965040Y-120310457D01*
X151031386Y-120409750D01*
X151198810Y-120577174D01*
X151395679Y-120708719D01*
X151614430Y-120799328D01*
X151846653Y-120845520D01*
X152083427Y-120845520D01*
X152315650Y-120799328D01*
X152534401Y-120708719D01*
X152731270Y-120577174D01*
X152898694Y-120409750D01*
X152965040Y-120310457D01*
X153031386Y-120409750D01*
X153198810Y-120577174D01*
X153395679Y-120708719D01*
X153614430Y-120799328D01*
X153846653Y-120845520D01*
X154083427Y-120845520D01*
X154315650Y-120799328D01*
X154534401Y-120708719D01*
X154731270Y-120577174D01*
X154898694Y-120409750D01*
X154965040Y-120310457D01*
X155031386Y-120409750D01*
X155198810Y-120577174D01*
X155395679Y-120708719D01*
X155614430Y-120799328D01*
X155846653Y-120845520D01*
X156083427Y-120845520D01*
X156315650Y-120799328D01*
X156534401Y-120708719D01*
X156731270Y-120577174D01*
X156898694Y-120409750D01*
X156965040Y-120310457D01*
X157031386Y-120409750D01*
X157198810Y-120577174D01*
X157395679Y-120708719D01*
X157614430Y-120799328D01*
X157846653Y-120845520D01*
X158083427Y-120845520D01*
X158315650Y-120799328D01*
X158534401Y-120708719D01*
X158731270Y-120577174D01*
X158898694Y-120409750D01*
X158965040Y-120310457D01*
X159031386Y-120409750D01*
X159198810Y-120577174D01*
X159395679Y-120708719D01*
X159614430Y-120799328D01*
X159846653Y-120845520D01*
X160083427Y-120845520D01*
X160315650Y-120799328D01*
X160534401Y-120708719D01*
X160713400Y-120589114D01*
X160713401Y-121749659D01*
X146216776Y-121746254D01*
X145964747Y-121732212D01*
X145761284Y-121680012D01*
X145571832Y-121589287D01*
X145403609Y-121463489D01*
X145263027Y-121307417D01*
X145155433Y-121127005D01*
X145084933Y-120929134D01*
X145051999Y-120706404D01*
X145051998Y-120430362D01*
X145198810Y-120577174D01*
X145395679Y-120708719D01*
X145614430Y-120799328D01*
X145846653Y-120845520D01*
X146083427Y-120845520D01*
X146315650Y-120799328D01*
X146534401Y-120708719D01*
X146731270Y-120577174D01*
X146875798Y-120432646D01*
X147349862Y-120432646D01*
X147417703Y-120606125D01*
X147616015Y-120694409D01*
X147827740Y-120742309D01*
X148044742Y-120747982D01*
X148258680Y-120711211D01*
X148461334Y-120633409D01*
X148512377Y-120606125D01*
X148580218Y-120432646D01*
X147965040Y-119817468D01*
X147349862Y-120432646D01*
X146875798Y-120432646D01*
X146898694Y-120409750D01*
X147030239Y-120212881D01*
X147034214Y-120203285D01*
X147175914Y-120258698D01*
X147791092Y-119643520D01*
X147776950Y-119629378D01*
X147950898Y-119455430D01*
X147965040Y-119469572D01*
X148580218Y-118854394D01*
X148560162Y-118803108D01*
X148745250Y-118802000D01*
X148852000Y-118695250D01*
X148852000Y-117798000D01*
X148832000Y-117798000D01*
X148832000Y-117552000D01*
X148852000Y-117552000D01*
X148852000Y-116654750D01*
X149098000Y-116654750D01*
X149098000Y-117552000D01*
X149870250Y-117552000D01*
X149977000Y-117445250D01*
X149979066Y-116975000D01*
X149970822Y-116891293D01*
X149946405Y-116810804D01*
X149906755Y-116736624D01*
X149853395Y-116671605D01*
X149788376Y-116618245D01*
X149714196Y-116578595D01*
X149633707Y-116554178D01*
X149550000Y-116545934D01*
X149204750Y-116548000D01*
X149098000Y-116654750D01*
X148852000Y-116654750D01*
X148745250Y-116548000D01*
X148400000Y-116545934D01*
X148316293Y-116554178D01*
X148235804Y-116578595D01*
X148161624Y-116618245D01*
X148096605Y-116671605D01*
X148045208Y-116734232D01*
X147940928Y-116629952D01*
X147789099Y-116528504D01*
X147620396Y-116458624D01*
X147441301Y-116423000D01*
X147288163Y-116423000D01*
X147250000Y-116419241D01*
X147097681Y-116434244D01*
X147060736Y-116445451D01*
X146599999Y-116445451D01*
X146447917Y-116460430D01*
X146301679Y-116504791D01*
X146166905Y-116576829D01*
X146048775Y-116673775D01*
X145951829Y-116791905D01*
X145879791Y-116926679D01*
X145835430Y-117072917D01*
X145820451Y-117224999D01*
X145820451Y-117530706D01*
X145442605Y-117908552D01*
X145412961Y-117932880D01*
X145388633Y-117962524D01*
X145388631Y-117962526D01*
X145315863Y-118051194D01*
X145243713Y-118186177D01*
X145216163Y-118277000D01*
X145201620Y-118324942D01*
X145199284Y-118332642D01*
X145184281Y-118484960D01*
X145188041Y-118523133D01*
X145188041Y-118720635D01*
X145051986Y-118856690D01*
X145051950Y-113765204D01*
X145569390Y-113765204D01*
X145577634Y-113848911D01*
X145602050Y-113929401D01*
X145641699Y-114003581D01*
X145695059Y-114068600D01*
X145940649Y-114311268D01*
X146091616Y-114311268D01*
X146726068Y-113676816D01*
X146180005Y-113130753D01*
X146029037Y-113130753D01*
X145695059Y-113461809D01*
X145641699Y-113526828D01*
X145602050Y-113601008D01*
X145577634Y-113681498D01*
X145569390Y-113765204D01*
X145051950Y-113765204D01*
X145051804Y-93251403D01*
X160713401Y-93260837D01*
X160713401Y-93260837D01*
G37*
X160713401Y-93260837D02*
X160713401Y-95181363D01*
X160699933Y-95144664D01*
X160569497Y-94930994D01*
X160399882Y-94746876D01*
X160197606Y-94599386D01*
X159970443Y-94494192D01*
X159870324Y-94463827D01*
X159673000Y-94536232D01*
X159673000Y-95577000D01*
X159693000Y-95577000D01*
X159693000Y-95823000D01*
X159673000Y-95823000D01*
X159673000Y-96863768D01*
X159870324Y-96936173D01*
X159970443Y-96905808D01*
X160197606Y-96800614D01*
X160399882Y-96653124D01*
X160569497Y-96469006D01*
X160699933Y-96255336D01*
X160713401Y-96218637D01*
X160713400Y-106166342D01*
X160696796Y-106159464D01*
X160517701Y-106123840D01*
X160335099Y-106123840D01*
X160156004Y-106159464D01*
X159987301Y-106229344D01*
X159835472Y-106330792D01*
X159706352Y-106459912D01*
X159604904Y-106611741D01*
X159535024Y-106780444D01*
X159499400Y-106959539D01*
X159499400Y-107142141D01*
X159535024Y-107321236D01*
X159604904Y-107489939D01*
X159706352Y-107641768D01*
X159835472Y-107770888D01*
X159987301Y-107872336D01*
X160156004Y-107942216D01*
X160335099Y-107977840D01*
X160517701Y-107977840D01*
X160696796Y-107942216D01*
X160865499Y-107872336D01*
X161017328Y-107770888D01*
X161024416Y-107763800D01*
X161153492Y-107763800D01*
X162088426Y-108633595D01*
X162069405Y-108649205D01*
X162016045Y-108714224D01*
X161976395Y-108788404D01*
X161951978Y-108868893D01*
X161943734Y-108952600D01*
X161945800Y-109472850D01*
X162052550Y-109579600D01*
X163249800Y-109579600D01*
X163249800Y-109559600D01*
X163495800Y-109559600D01*
X163495800Y-109579600D01*
X163515800Y-109579600D01*
X163515800Y-109825600D01*
X163495800Y-109825600D01*
X163495800Y-109845600D01*
X163249800Y-109845600D01*
X163249800Y-109825600D01*
X162052550Y-109825600D01*
X161945800Y-109932350D01*
X161943734Y-110452600D01*
X161951978Y-110536307D01*
X161960417Y-110564124D01*
X160779183Y-110571973D01*
X160806755Y-110538376D01*
X160846405Y-110464196D01*
X160870822Y-110383707D01*
X160879066Y-110300000D01*
X160877000Y-109954750D01*
X160770250Y-109848000D01*
X159873000Y-109848000D01*
X159873000Y-109868000D01*
X159627000Y-109868000D01*
X159627000Y-109848000D01*
X159607000Y-109848000D01*
X159607000Y-109602000D01*
X159627000Y-109602000D01*
X159627000Y-108829750D01*
X159873000Y-108829750D01*
X159873000Y-109602000D01*
X160770250Y-109602000D01*
X160877000Y-109495250D01*
X160879066Y-109150000D01*
X160870822Y-109066293D01*
X160846405Y-108985804D01*
X160806755Y-108911624D01*
X160753395Y-108846605D01*
X160688376Y-108793245D01*
X160614196Y-108753595D01*
X160533707Y-108729178D01*
X160450000Y-108720934D01*
X159979750Y-108723000D01*
X159873000Y-108829750D01*
X159627000Y-108829750D01*
X159520250Y-108723000D01*
X159050000Y-108720934D01*
X158966293Y-108729178D01*
X158885804Y-108753595D01*
X158811624Y-108793245D01*
X158746605Y-108846605D01*
X158693245Y-108911624D01*
X158653595Y-108985804D01*
X158629178Y-109066293D01*
X158620934Y-109150000D01*
X158621835Y-109300642D01*
X158520396Y-109258624D01*
X158341301Y-109223000D01*
X158158699Y-109223000D01*
X158058965Y-109242838D01*
X158570491Y-108731312D01*
X158636347Y-108651066D01*
X158685282Y-108559514D01*
X158715417Y-108460174D01*
X158725592Y-108356864D01*
X158715417Y-108253554D01*
X158685282Y-108154214D01*
X158636347Y-108062662D01*
X158570491Y-107982416D01*
X158181582Y-107593507D01*
X158101336Y-107527651D01*
X158081345Y-107516966D01*
X158070661Y-107496977D01*
X158004805Y-107416731D01*
X157705698Y-107117624D01*
X157878408Y-106944914D01*
X157884716Y-106943001D01*
X158019490Y-106870963D01*
X158137620Y-106774017D01*
X158774017Y-106137620D01*
X158870963Y-106019490D01*
X158943001Y-105884716D01*
X158987362Y-105738478D01*
X159002341Y-105586396D01*
X158987362Y-105434314D01*
X158943001Y-105288076D01*
X158870963Y-105153302D01*
X158774017Y-105035172D01*
X158314396Y-104575551D01*
X158196266Y-104478605D01*
X158061492Y-104406567D01*
X157915254Y-104362206D01*
X157763172Y-104347227D01*
X157611090Y-104362206D01*
X157464852Y-104406567D01*
X157452278Y-104413288D01*
X157483533Y-104375204D01*
X157523182Y-104301024D01*
X157547598Y-104220534D01*
X157555842Y-104136828D01*
X157547598Y-104053121D01*
X157523182Y-103972631D01*
X157483533Y-103898451D01*
X157430173Y-103833432D01*
X157184583Y-103590764D01*
X157033616Y-103590764D01*
X156399164Y-104225216D01*
X156413307Y-104239359D01*
X156239359Y-104413307D01*
X156225216Y-104399164D01*
X155590764Y-105033616D01*
X155590764Y-105137414D01*
X155544125Y-105175690D01*
X155441082Y-105185839D01*
X155341742Y-105215974D01*
X155250190Y-105264909D01*
X155205826Y-105301318D01*
X155242234Y-105256954D01*
X155291169Y-105165402D01*
X155321304Y-105066062D01*
X155331479Y-104962752D01*
X155321326Y-104859668D01*
X155416816Y-104859668D01*
X156051268Y-104225216D01*
X156037126Y-104211074D01*
X156211074Y-104037126D01*
X156225216Y-104051268D01*
X156859668Y-103416816D01*
X156859668Y-103265849D01*
X156790988Y-103196342D01*
X157685331Y-102302000D01*
X158516024Y-102302000D01*
X158584072Y-102370048D01*
X158735901Y-102471496D01*
X158904604Y-102541376D01*
X159083699Y-102577000D01*
X159266301Y-102577000D01*
X159445396Y-102541376D01*
X159614099Y-102471496D01*
X159765928Y-102370048D01*
X159895048Y-102240928D01*
X159996496Y-102089099D01*
X160066376Y-101920396D01*
X160102000Y-101741301D01*
X160102000Y-101558699D01*
X160066376Y-101379604D01*
X159996496Y-101210901D01*
X159895048Y-101059072D01*
X159765928Y-100929952D01*
X159614099Y-100828504D01*
X159445396Y-100758624D01*
X159266301Y-100723000D01*
X159083699Y-100723000D01*
X158904604Y-100758624D01*
X158735901Y-100828504D01*
X158584072Y-100929952D01*
X158516024Y-100998000D01*
X157447285Y-100998000D01*
X157415263Y-100994846D01*
X157287449Y-101007435D01*
X157170923Y-101042783D01*
X157164547Y-101044717D01*
X157051280Y-101105259D01*
X156952000Y-101186736D01*
X156931584Y-101211613D01*
X154365636Y-103777561D01*
X154221784Y-103633709D01*
X154141538Y-103567853D01*
X154049986Y-103518918D01*
X153950646Y-103488783D01*
X153847336Y-103478608D01*
X153744026Y-103488783D01*
X153644686Y-103518918D01*
X153553134Y-103567853D01*
X153472888Y-103633709D01*
X152450800Y-104655797D01*
X151428712Y-103633709D01*
X151348466Y-103567853D01*
X151256914Y-103518918D01*
X151214500Y-103506052D01*
X151214500Y-101520102D01*
X152673200Y-101520102D01*
X152673200Y-101781498D01*
X152724196Y-102037872D01*
X152824228Y-102279370D01*
X152969452Y-102496713D01*
X153154287Y-102681548D01*
X153371630Y-102826772D01*
X153613128Y-102926804D01*
X153869502Y-102977800D01*
X154130898Y-102977800D01*
X154387272Y-102926804D01*
X154628770Y-102826772D01*
X154846113Y-102681548D01*
X155030948Y-102496713D01*
X155176172Y-102279370D01*
X155276204Y-102037872D01*
X155327200Y-101781498D01*
X155327200Y-101520102D01*
X155276204Y-101263728D01*
X155176172Y-101022230D01*
X155030948Y-100804887D01*
X154846113Y-100620052D01*
X154628770Y-100474828D01*
X154387272Y-100374796D01*
X154130898Y-100323800D01*
X153869502Y-100323800D01*
X153613128Y-100374796D01*
X153371630Y-100474828D01*
X153154287Y-100620052D01*
X152969452Y-100804887D01*
X152824228Y-101022230D01*
X152724196Y-101263728D01*
X152673200Y-101520102D01*
X151214500Y-101520102D01*
X151214500Y-100707566D01*
X153658388Y-98263679D01*
X153683264Y-98243264D01*
X153764741Y-98143984D01*
X153825283Y-98030717D01*
X153862565Y-97907814D01*
X153872000Y-97812022D01*
X153872000Y-97812021D01*
X153875154Y-97780000D01*
X153872000Y-97747978D01*
X153872000Y-96941726D01*
X153940495Y-96978337D01*
X154200061Y-97057075D01*
X154402360Y-97077000D01*
X154537640Y-97077000D01*
X154739939Y-97057075D01*
X154999505Y-96978337D01*
X155238721Y-96850473D01*
X155448397Y-96678397D01*
X155620473Y-96468721D01*
X155748337Y-96229505D01*
X155794609Y-96076967D01*
X155860067Y-96255336D01*
X155990503Y-96469006D01*
X156160118Y-96653124D01*
X156362394Y-96800614D01*
X156589557Y-96905808D01*
X156689676Y-96936173D01*
X156887000Y-96863768D01*
X156887000Y-95823000D01*
X157133000Y-95823000D01*
X157133000Y-96863768D01*
X157330324Y-96936173D01*
X157430443Y-96905808D01*
X157657606Y-96800614D01*
X157859882Y-96653124D01*
X158029497Y-96469006D01*
X158159933Y-96255336D01*
X158246178Y-96020325D01*
X158313822Y-96020325D01*
X158400067Y-96255336D01*
X158530503Y-96469006D01*
X158700118Y-96653124D01*
X158902394Y-96800614D01*
X159129557Y-96905808D01*
X159229676Y-96936173D01*
X159427000Y-96863768D01*
X159427000Y-95823000D01*
X158385682Y-95823000D01*
X158313822Y-96020325D01*
X158246178Y-96020325D01*
X158174318Y-95823000D01*
X157133000Y-95823000D01*
X156887000Y-95823000D01*
X156867000Y-95823000D01*
X156867000Y-95577000D01*
X156887000Y-95577000D01*
X156887000Y-94536232D01*
X157133000Y-94536232D01*
X157133000Y-95577000D01*
X158174318Y-95577000D01*
X158246178Y-95379675D01*
X158313822Y-95379675D01*
X158385682Y-95577000D01*
X159427000Y-95577000D01*
X159427000Y-94536232D01*
X159229676Y-94463827D01*
X159129557Y-94494192D01*
X158902394Y-94599386D01*
X158700118Y-94746876D01*
X158530503Y-94930994D01*
X158400067Y-95144664D01*
X158313822Y-95379675D01*
X158246178Y-95379675D01*
X158159933Y-95144664D01*
X158029497Y-94930994D01*
X157859882Y-94746876D01*
X157657606Y-94599386D01*
X157430443Y-94494192D01*
X157330324Y-94463827D01*
X157133000Y-94536232D01*
X156887000Y-94536232D01*
X156689676Y-94463827D01*
X156589557Y-94494192D01*
X156362394Y-94599386D01*
X156160118Y-94746876D01*
X155990503Y-94930994D01*
X155860067Y-95144664D01*
X155794609Y-95323033D01*
X155748337Y-95170495D01*
X155620473Y-94931279D01*
X155448397Y-94721603D01*
X155238721Y-94549527D01*
X154999505Y-94421663D01*
X154739939Y-94342925D01*
X154537640Y-94323000D01*
X154402360Y-94323000D01*
X154200061Y-94342925D01*
X153940495Y-94421663D01*
X153785357Y-94504586D01*
X153764741Y-94466016D01*
X153683264Y-94366736D01*
X153658381Y-94346315D01*
X153398684Y-94086618D01*
X153378263Y-94061735D01*
X153278983Y-93980258D01*
X153165716Y-93919716D01*
X153042813Y-93882434D01*
X152947021Y-93872999D01*
X152914999Y-93869845D01*
X152882977Y-93872999D01*
X150597022Y-93872999D01*
X150565000Y-93869845D01*
X150437186Y-93882434D01*
X150314284Y-93919716D01*
X150201017Y-93980258D01*
X150101737Y-94061735D01*
X150081316Y-94086618D01*
X149801614Y-94366320D01*
X149801608Y-94366325D01*
X149786589Y-94381344D01*
X149659939Y-94342925D01*
X149457640Y-94323000D01*
X149322360Y-94323000D01*
X149120061Y-94342925D01*
X148860495Y-94421663D01*
X148621279Y-94549527D01*
X148411603Y-94721603D01*
X148239527Y-94931279D01*
X148229549Y-94949946D01*
X148229549Y-94850000D01*
X148219374Y-94746690D01*
X148189239Y-94647350D01*
X148140304Y-94555798D01*
X148074448Y-94475552D01*
X147994202Y-94409696D01*
X147902650Y-94360761D01*
X147803310Y-94330626D01*
X147700000Y-94320451D01*
X146000000Y-94320451D01*
X145896690Y-94330626D01*
X145797350Y-94360761D01*
X145705798Y-94409696D01*
X145625552Y-94475552D01*
X145559696Y-94555798D01*
X145510761Y-94647350D01*
X145480626Y-94746690D01*
X145470451Y-94850000D01*
X145470451Y-96550000D01*
X145480626Y-96653310D01*
X145510761Y-96752650D01*
X145559696Y-96844202D01*
X145625552Y-96924448D01*
X145705798Y-96990304D01*
X145797350Y-97039239D01*
X145896690Y-97069374D01*
X146000000Y-97079549D01*
X147307482Y-97079549D01*
X147423384Y-97195451D01*
X146625000Y-97195451D01*
X146521690Y-97205626D01*
X146422350Y-97235761D01*
X146330798Y-97284696D01*
X146250552Y-97350552D01*
X146184696Y-97430798D01*
X146135761Y-97522350D01*
X146105626Y-97621690D01*
X146095451Y-97725000D01*
X146095451Y-98763858D01*
X146094846Y-98770000D01*
X146095451Y-98776142D01*
X146095451Y-99075000D01*
X146105626Y-99178310D01*
X146135761Y-99277650D01*
X146184696Y-99369202D01*
X146250552Y-99449448D01*
X146330798Y-99515304D01*
X146422350Y-99564239D01*
X146521690Y-99594374D01*
X146625000Y-99604549D01*
X146648001Y-99604549D01*
X146648000Y-100629933D01*
X146311614Y-100966320D01*
X146286737Y-100986736D01*
X146205260Y-101086016D01*
X146194974Y-101105260D01*
X146144717Y-101199284D01*
X146107435Y-101322186D01*
X146094846Y-101450000D01*
X146098001Y-101482032D01*
X146098001Y-101975572D01*
X146001679Y-102004791D01*
X145866905Y-102076829D01*
X145748775Y-102173775D01*
X145651829Y-102291905D01*
X145579791Y-102426679D01*
X145535430Y-102572917D01*
X145520451Y-102724999D01*
X145520451Y-103375001D01*
X145535430Y-103527083D01*
X145579791Y-103673321D01*
X145651829Y-103808095D01*
X145748775Y-103926225D01*
X145866905Y-104023171D01*
X145963871Y-104075000D01*
X145866905Y-104126829D01*
X145748775Y-104223775D01*
X145651829Y-104341905D01*
X145579791Y-104476679D01*
X145535430Y-104622917D01*
X145520451Y-104774999D01*
X145520451Y-105425001D01*
X145535430Y-105577083D01*
X145579791Y-105723321D01*
X145651829Y-105858095D01*
X145748775Y-105976225D01*
X145866905Y-106073171D01*
X146001679Y-106145209D01*
X146147917Y-106189570D01*
X146299999Y-106204549D01*
X147200001Y-106204549D01*
X147352083Y-106189570D01*
X147498321Y-106145209D01*
X147633095Y-106073171D01*
X147751225Y-105976225D01*
X147848171Y-105858095D01*
X147920209Y-105723321D01*
X147964570Y-105577083D01*
X147979549Y-105425001D01*
X147979549Y-104774999D01*
X147964570Y-104622917D01*
X147920209Y-104476679D01*
X147848171Y-104341905D01*
X147751225Y-104223775D01*
X147633095Y-104126829D01*
X147536129Y-104075000D01*
X147633095Y-104023171D01*
X147751225Y-103926225D01*
X147785258Y-103884755D01*
X147798775Y-103901225D01*
X147916905Y-103998171D01*
X148051679Y-104070209D01*
X148148001Y-104099428D01*
X148148000Y-105504892D01*
X148144846Y-105536914D01*
X148157435Y-105664728D01*
X148174103Y-105719674D01*
X148194717Y-105787630D01*
X148255259Y-105900897D01*
X148326193Y-105987332D01*
X148028165Y-106285360D01*
X147962309Y-106365606D01*
X147951625Y-106385596D01*
X147931635Y-106396280D01*
X147851389Y-106462136D01*
X147462480Y-106851045D01*
X147396624Y-106931291D01*
X147385939Y-106951282D01*
X147365950Y-106961966D01*
X147285704Y-107027822D01*
X146896795Y-107416731D01*
X146830939Y-107496977D01*
X146820255Y-107516966D01*
X146800264Y-107527651D01*
X146720018Y-107593507D01*
X146331109Y-107982416D01*
X146265253Y-108062662D01*
X146216318Y-108154214D01*
X146186183Y-108253554D01*
X146176008Y-108356864D01*
X146186183Y-108460174D01*
X146216318Y-108559514D01*
X146265253Y-108651066D01*
X146331109Y-108731312D01*
X147353197Y-109753400D01*
X146331109Y-110775488D01*
X146265253Y-110855734D01*
X146216318Y-110947286D01*
X146186183Y-111046626D01*
X146176008Y-111149936D01*
X146186183Y-111253246D01*
X146216318Y-111352586D01*
X146265253Y-111444138D01*
X146331109Y-111524384D01*
X146720018Y-111913293D01*
X146800264Y-111979149D01*
X146820255Y-111989834D01*
X146830939Y-112009823D01*
X146896795Y-112090069D01*
X147223438Y-112416712D01*
X147152601Y-112378850D01*
X147072111Y-112354434D01*
X146988404Y-112346190D01*
X146904698Y-112354434D01*
X146824208Y-112378850D01*
X146750028Y-112418499D01*
X146685009Y-112471859D01*
X146353953Y-112805837D01*
X146353953Y-112956805D01*
X146900016Y-113502868D01*
X146914159Y-113488726D01*
X147088107Y-113662674D01*
X147073964Y-113676816D01*
X147088107Y-113690959D01*
X146914159Y-113864907D01*
X146900016Y-113850764D01*
X146265564Y-114485216D01*
X146265564Y-114636183D01*
X146508232Y-114881773D01*
X146573251Y-114935133D01*
X146647431Y-114974782D01*
X146727921Y-114999198D01*
X146811628Y-115007442D01*
X146895334Y-114999198D01*
X146975824Y-114974782D01*
X147050004Y-114935133D01*
X147088088Y-114903878D01*
X147081367Y-114916452D01*
X147037006Y-115062690D01*
X147022027Y-115214772D01*
X147037006Y-115366854D01*
X147081367Y-115513092D01*
X147153405Y-115647866D01*
X147250351Y-115765996D01*
X147709972Y-116225617D01*
X147828102Y-116322563D01*
X147962876Y-116394601D01*
X148109114Y-116438962D01*
X148261196Y-116453941D01*
X148413278Y-116438962D01*
X148559516Y-116394601D01*
X148694290Y-116322563D01*
X148812420Y-116225617D01*
X149236037Y-115802000D01*
X149850605Y-115802000D01*
X149882627Y-115805154D01*
X149914649Y-115802000D01*
X150010441Y-115792565D01*
X150133344Y-115755283D01*
X150246611Y-115694741D01*
X150345891Y-115613264D01*
X150366312Y-115588382D01*
X150380709Y-115573984D01*
X150679816Y-115873091D01*
X150760062Y-115938947D01*
X150851614Y-115987882D01*
X150950954Y-116018017D01*
X151054264Y-116028192D01*
X151157574Y-116018017D01*
X151256914Y-115987882D01*
X151313041Y-115957882D01*
X151313041Y-117455154D01*
X151313040Y-118633539D01*
X151198810Y-118709866D01*
X151031386Y-118877290D01*
X150965040Y-118976583D01*
X150898694Y-118877290D01*
X150731270Y-118709866D01*
X150534401Y-118578321D01*
X150315650Y-118487712D01*
X150083427Y-118441520D01*
X149972515Y-118441520D01*
X149979066Y-118375000D01*
X149977000Y-117904750D01*
X149870250Y-117798000D01*
X149098000Y-117798000D01*
X149098000Y-118695250D01*
X149155713Y-118752963D01*
X149031386Y-118877290D01*
X148899841Y-119074159D01*
X148895866Y-119083755D01*
X148754166Y-119028342D01*
X148138988Y-119643520D01*
X148754166Y-120258698D01*
X148895866Y-120203285D01*
X148899841Y-120212881D01*
X149031386Y-120409750D01*
X149198810Y-120577174D01*
X149395679Y-120708719D01*
X149614430Y-120799328D01*
X149846653Y-120845520D01*
X150083427Y-120845520D01*
X150315650Y-120799328D01*
X150534401Y-120708719D01*
X150731270Y-120577174D01*
X150898694Y-120409750D01*
X150965040Y-120310457D01*
X151031386Y-120409750D01*
X151198810Y-120577174D01*
X151395679Y-120708719D01*
X151614430Y-120799328D01*
X151846653Y-120845520D01*
X152083427Y-120845520D01*
X152315650Y-120799328D01*
X152534401Y-120708719D01*
X152731270Y-120577174D01*
X152898694Y-120409750D01*
X152965040Y-120310457D01*
X153031386Y-120409750D01*
X153198810Y-120577174D01*
X153395679Y-120708719D01*
X153614430Y-120799328D01*
X153846653Y-120845520D01*
X154083427Y-120845520D01*
X154315650Y-120799328D01*
X154534401Y-120708719D01*
X154731270Y-120577174D01*
X154898694Y-120409750D01*
X154965040Y-120310457D01*
X155031386Y-120409750D01*
X155198810Y-120577174D01*
X155395679Y-120708719D01*
X155614430Y-120799328D01*
X155846653Y-120845520D01*
X156083427Y-120845520D01*
X156315650Y-120799328D01*
X156534401Y-120708719D01*
X156731270Y-120577174D01*
X156898694Y-120409750D01*
X156965040Y-120310457D01*
X157031386Y-120409750D01*
X157198810Y-120577174D01*
X157395679Y-120708719D01*
X157614430Y-120799328D01*
X157846653Y-120845520D01*
X158083427Y-120845520D01*
X158315650Y-120799328D01*
X158534401Y-120708719D01*
X158731270Y-120577174D01*
X158898694Y-120409750D01*
X158965040Y-120310457D01*
X159031386Y-120409750D01*
X159198810Y-120577174D01*
X159395679Y-120708719D01*
X159614430Y-120799328D01*
X159846653Y-120845520D01*
X160083427Y-120845520D01*
X160315650Y-120799328D01*
X160534401Y-120708719D01*
X160713400Y-120589114D01*
X160713401Y-121749659D01*
X146216776Y-121746254D01*
X145964747Y-121732212D01*
X145761284Y-121680012D01*
X145571832Y-121589287D01*
X145403609Y-121463489D01*
X145263027Y-121307417D01*
X145155433Y-121127005D01*
X145084933Y-120929134D01*
X145051999Y-120706404D01*
X145051998Y-120430362D01*
X145198810Y-120577174D01*
X145395679Y-120708719D01*
X145614430Y-120799328D01*
X145846653Y-120845520D01*
X146083427Y-120845520D01*
X146315650Y-120799328D01*
X146534401Y-120708719D01*
X146731270Y-120577174D01*
X146875798Y-120432646D01*
X147349862Y-120432646D01*
X147417703Y-120606125D01*
X147616015Y-120694409D01*
X147827740Y-120742309D01*
X148044742Y-120747982D01*
X148258680Y-120711211D01*
X148461334Y-120633409D01*
X148512377Y-120606125D01*
X148580218Y-120432646D01*
X147965040Y-119817468D01*
X147349862Y-120432646D01*
X146875798Y-120432646D01*
X146898694Y-120409750D01*
X147030239Y-120212881D01*
X147034214Y-120203285D01*
X147175914Y-120258698D01*
X147791092Y-119643520D01*
X147776950Y-119629378D01*
X147950898Y-119455430D01*
X147965040Y-119469572D01*
X148580218Y-118854394D01*
X148560162Y-118803108D01*
X148745250Y-118802000D01*
X148852000Y-118695250D01*
X148852000Y-117798000D01*
X148832000Y-117798000D01*
X148832000Y-117552000D01*
X148852000Y-117552000D01*
X148852000Y-116654750D01*
X149098000Y-116654750D01*
X149098000Y-117552000D01*
X149870250Y-117552000D01*
X149977000Y-117445250D01*
X149979066Y-116975000D01*
X149970822Y-116891293D01*
X149946405Y-116810804D01*
X149906755Y-116736624D01*
X149853395Y-116671605D01*
X149788376Y-116618245D01*
X149714196Y-116578595D01*
X149633707Y-116554178D01*
X149550000Y-116545934D01*
X149204750Y-116548000D01*
X149098000Y-116654750D01*
X148852000Y-116654750D01*
X148745250Y-116548000D01*
X148400000Y-116545934D01*
X148316293Y-116554178D01*
X148235804Y-116578595D01*
X148161624Y-116618245D01*
X148096605Y-116671605D01*
X148045208Y-116734232D01*
X147940928Y-116629952D01*
X147789099Y-116528504D01*
X147620396Y-116458624D01*
X147441301Y-116423000D01*
X147288163Y-116423000D01*
X147250000Y-116419241D01*
X147097681Y-116434244D01*
X147060736Y-116445451D01*
X146599999Y-116445451D01*
X146447917Y-116460430D01*
X146301679Y-116504791D01*
X146166905Y-116576829D01*
X146048775Y-116673775D01*
X145951829Y-116791905D01*
X145879791Y-116926679D01*
X145835430Y-117072917D01*
X145820451Y-117224999D01*
X145820451Y-117530706D01*
X145442605Y-117908552D01*
X145412961Y-117932880D01*
X145388633Y-117962524D01*
X145388631Y-117962526D01*
X145315863Y-118051194D01*
X145243713Y-118186177D01*
X145216163Y-118277000D01*
X145201620Y-118324942D01*
X145199284Y-118332642D01*
X145184281Y-118484960D01*
X145188041Y-118523133D01*
X145188041Y-118720635D01*
X145051986Y-118856690D01*
X145051950Y-113765204D01*
X145569390Y-113765204D01*
X145577634Y-113848911D01*
X145602050Y-113929401D01*
X145641699Y-114003581D01*
X145695059Y-114068600D01*
X145940649Y-114311268D01*
X146091616Y-114311268D01*
X146726068Y-113676816D01*
X146180005Y-113130753D01*
X146029037Y-113130753D01*
X145695059Y-113461809D01*
X145641699Y-113526828D01*
X145602050Y-113601008D01*
X145577634Y-113681498D01*
X145569390Y-113765204D01*
X145051950Y-113765204D01*
X145051804Y-93251403D01*
X160713401Y-93260837D01*
G36*
X152730426Y-105902885D02*
G01*
X152810672Y-105968741D01*
X152830661Y-105979425D01*
X152841346Y-105999416D01*
X152907202Y-106079662D01*
X153296111Y-106468571D01*
X153376357Y-106534427D01*
X153467909Y-106583362D01*
X153567249Y-106613497D01*
X153670559Y-106623672D01*
X153773869Y-106613497D01*
X153873209Y-106583362D01*
X153964761Y-106534427D01*
X154009125Y-106498018D01*
X153972717Y-106542382D01*
X153923782Y-106633934D01*
X153893647Y-106733274D01*
X153883472Y-106836584D01*
X153893647Y-106939894D01*
X153923782Y-107039234D01*
X153972717Y-107130786D01*
X154038573Y-107211032D01*
X154427482Y-107599941D01*
X154507728Y-107665797D01*
X154599280Y-107714732D01*
X154698620Y-107744867D01*
X154801930Y-107755042D01*
X154905240Y-107744867D01*
X155004580Y-107714732D01*
X155096132Y-107665797D01*
X155140499Y-107629386D01*
X155104088Y-107673753D01*
X155055153Y-107765305D01*
X155025018Y-107864645D01*
X155014843Y-107967955D01*
X155025018Y-108071265D01*
X155055153Y-108170605D01*
X155104088Y-108262157D01*
X155169944Y-108342403D01*
X155558853Y-108731312D01*
X155639099Y-108797168D01*
X155659088Y-108807852D01*
X155669773Y-108827843D01*
X155735629Y-108908089D01*
X156124538Y-109296998D01*
X156204784Y-109362854D01*
X156224775Y-109373539D01*
X156235459Y-109393528D01*
X156301315Y-109473774D01*
X156580941Y-109753400D01*
X156301315Y-110033026D01*
X156235459Y-110113272D01*
X156224775Y-110133261D01*
X156204784Y-110143946D01*
X156124538Y-110209802D01*
X155735629Y-110598711D01*
X155669773Y-110678957D01*
X155659088Y-110698948D01*
X155639099Y-110709632D01*
X155558853Y-110775488D01*
X155169944Y-111164397D01*
X155104088Y-111244643D01*
X155093404Y-111264633D01*
X155073414Y-111275317D01*
X154993168Y-111341173D01*
X154604259Y-111730082D01*
X154538403Y-111810328D01*
X154527718Y-111830318D01*
X154507728Y-111841003D01*
X154427482Y-111906859D01*
X154038573Y-112295768D01*
X153972717Y-112376014D01*
X153962033Y-112396004D01*
X153942043Y-112406688D01*
X153861797Y-112472544D01*
X153472888Y-112861453D01*
X153407032Y-112941699D01*
X153396348Y-112961688D01*
X153376357Y-112972373D01*
X153296111Y-113038229D01*
X152907202Y-113427138D01*
X152841346Y-113507384D01*
X152830661Y-113527375D01*
X152810672Y-113538059D01*
X152730426Y-113603915D01*
X152450800Y-113883541D01*
X152171174Y-113603915D01*
X152090928Y-113538059D01*
X152070939Y-113527375D01*
X152060254Y-113507384D01*
X151994398Y-113427138D01*
X151605489Y-113038229D01*
X151525243Y-112972373D01*
X151505252Y-112961688D01*
X151494568Y-112941699D01*
X151428712Y-112861453D01*
X151039803Y-112472544D01*
X150959557Y-112406688D01*
X150939567Y-112396004D01*
X150928883Y-112376014D01*
X150863027Y-112295768D01*
X150474118Y-111906859D01*
X150393872Y-111841003D01*
X150302320Y-111792068D01*
X150202980Y-111761933D01*
X150099670Y-111751758D01*
X149996360Y-111761933D01*
X149897020Y-111792068D01*
X149805468Y-111841003D01*
X149761101Y-111877414D01*
X149797512Y-111833047D01*
X149846447Y-111741495D01*
X149876582Y-111642155D01*
X149886757Y-111538845D01*
X149876582Y-111435535D01*
X149846447Y-111336195D01*
X149797512Y-111244643D01*
X149731656Y-111164397D01*
X149342747Y-110775488D01*
X149262501Y-110709632D01*
X149242512Y-110698948D01*
X149238944Y-110692271D01*
X149289099Y-110671496D01*
X149440928Y-110570048D01*
X149570048Y-110440928D01*
X149671496Y-110289099D01*
X149741376Y-110120396D01*
X149777000Y-109941301D01*
X149777000Y-109835601D01*
X149794740Y-109813985D01*
X149855282Y-109700718D01*
X149885228Y-109602000D01*
X149892564Y-109577816D01*
X149905153Y-109450002D01*
X149901999Y-109417980D01*
X149901999Y-109200067D01*
X152500277Y-106601790D01*
X152525154Y-106581374D01*
X152606631Y-106482094D01*
X152667173Y-106368827D01*
X152671584Y-106354285D01*
X152704455Y-106245925D01*
X152707055Y-106219525D01*
X152713890Y-106150132D01*
X152713890Y-106150125D01*
X152717043Y-106118111D01*
X152713890Y-106086096D01*
X152713890Y-105886349D01*
X152730426Y-105902885D01*
X152730426Y-105902885D01*
G37*
X152730426Y-105902885D02*
X152810672Y-105968741D01*
X152830661Y-105979425D01*
X152841346Y-105999416D01*
X152907202Y-106079662D01*
X153296111Y-106468571D01*
X153376357Y-106534427D01*
X153467909Y-106583362D01*
X153567249Y-106613497D01*
X153670559Y-106623672D01*
X153773869Y-106613497D01*
X153873209Y-106583362D01*
X153964761Y-106534427D01*
X154009125Y-106498018D01*
X153972717Y-106542382D01*
X153923782Y-106633934D01*
X153893647Y-106733274D01*
X153883472Y-106836584D01*
X153893647Y-106939894D01*
X153923782Y-107039234D01*
X153972717Y-107130786D01*
X154038573Y-107211032D01*
X154427482Y-107599941D01*
X154507728Y-107665797D01*
X154599280Y-107714732D01*
X154698620Y-107744867D01*
X154801930Y-107755042D01*
X154905240Y-107744867D01*
X155004580Y-107714732D01*
X155096132Y-107665797D01*
X155140499Y-107629386D01*
X155104088Y-107673753D01*
X155055153Y-107765305D01*
X155025018Y-107864645D01*
X155014843Y-107967955D01*
X155025018Y-108071265D01*
X155055153Y-108170605D01*
X155104088Y-108262157D01*
X155169944Y-108342403D01*
X155558853Y-108731312D01*
X155639099Y-108797168D01*
X155659088Y-108807852D01*
X155669773Y-108827843D01*
X155735629Y-108908089D01*
X156124538Y-109296998D01*
X156204784Y-109362854D01*
X156224775Y-109373539D01*
X156235459Y-109393528D01*
X156301315Y-109473774D01*
X156580941Y-109753400D01*
X156301315Y-110033026D01*
X156235459Y-110113272D01*
X156224775Y-110133261D01*
X156204784Y-110143946D01*
X156124538Y-110209802D01*
X155735629Y-110598711D01*
X155669773Y-110678957D01*
X155659088Y-110698948D01*
X155639099Y-110709632D01*
X155558853Y-110775488D01*
X155169944Y-111164397D01*
X155104088Y-111244643D01*
X155093404Y-111264633D01*
X155073414Y-111275317D01*
X154993168Y-111341173D01*
X154604259Y-111730082D01*
X154538403Y-111810328D01*
X154527718Y-111830318D01*
X154507728Y-111841003D01*
X154427482Y-111906859D01*
X154038573Y-112295768D01*
X153972717Y-112376014D01*
X153962033Y-112396004D01*
X153942043Y-112406688D01*
X153861797Y-112472544D01*
X153472888Y-112861453D01*
X153407032Y-112941699D01*
X153396348Y-112961688D01*
X153376357Y-112972373D01*
X153296111Y-113038229D01*
X152907202Y-113427138D01*
X152841346Y-113507384D01*
X152830661Y-113527375D01*
X152810672Y-113538059D01*
X152730426Y-113603915D01*
X152450800Y-113883541D01*
X152171174Y-113603915D01*
X152090928Y-113538059D01*
X152070939Y-113527375D01*
X152060254Y-113507384D01*
X151994398Y-113427138D01*
X151605489Y-113038229D01*
X151525243Y-112972373D01*
X151505252Y-112961688D01*
X151494568Y-112941699D01*
X151428712Y-112861453D01*
X151039803Y-112472544D01*
X150959557Y-112406688D01*
X150939567Y-112396004D01*
X150928883Y-112376014D01*
X150863027Y-112295768D01*
X150474118Y-111906859D01*
X150393872Y-111841003D01*
X150302320Y-111792068D01*
X150202980Y-111761933D01*
X150099670Y-111751758D01*
X149996360Y-111761933D01*
X149897020Y-111792068D01*
X149805468Y-111841003D01*
X149761101Y-111877414D01*
X149797512Y-111833047D01*
X149846447Y-111741495D01*
X149876582Y-111642155D01*
X149886757Y-111538845D01*
X149876582Y-111435535D01*
X149846447Y-111336195D01*
X149797512Y-111244643D01*
X149731656Y-111164397D01*
X149342747Y-110775488D01*
X149262501Y-110709632D01*
X149242512Y-110698948D01*
X149238944Y-110692271D01*
X149289099Y-110671496D01*
X149440928Y-110570048D01*
X149570048Y-110440928D01*
X149671496Y-110289099D01*
X149741376Y-110120396D01*
X149777000Y-109941301D01*
X149777000Y-109835601D01*
X149794740Y-109813985D01*
X149855282Y-109700718D01*
X149885228Y-109602000D01*
X149892564Y-109577816D01*
X149905153Y-109450002D01*
X149901999Y-109417980D01*
X149901999Y-109200067D01*
X152500277Y-106601790D01*
X152525154Y-106581374D01*
X152606631Y-106482094D01*
X152667173Y-106368827D01*
X152671584Y-106354285D01*
X152704455Y-106245925D01*
X152707055Y-106219525D01*
X152713890Y-106150132D01*
X152713890Y-106150125D01*
X152717043Y-106118111D01*
X152713890Y-106086096D01*
X152713890Y-105886349D01*
X152730426Y-105902885D01*
M02*
