G04 #@! TF.GenerationSoftware,KiCad,Pcbnew,(5.0.2)-1*
G04 #@! TF.CreationDate,2019-01-20T16:15:56+01:00*
G04 #@! TF.ProjectId,HM-LC-Sw1-Pl-DN-R1_S26,484d2d4c-432d-4537-9731-2d506c2d444e,rev?*
G04 #@! TF.SameCoordinates,Original*
G04 #@! TF.FileFunction,Copper,L1,Top*
G04 #@! TF.FilePolarity,Positive*
%FSLAX46Y46*%
G04 Gerber Fmt 4.6, Leading zero omitted, Abs format (unit mm)*
G04 Created by KiCad (PCBNEW (5.0.2)-1) date 20.01.2019 16:15:56*
%MOMM*%
%LPD*%
G01*
G04 APERTURE LIST*
G04 #@! TA.AperFunction,ConnectorPad*
%ADD10R,1.350000X1.800000*%
G04 #@! TD*
G04 #@! TA.AperFunction,ComponentPad*
%ADD11C,1.350000*%
G04 #@! TD*
G04 #@! TA.AperFunction,SMDPad,CuDef*
%ADD12R,1.000000X2.750000*%
G04 #@! TD*
G04 #@! TA.AperFunction,SMDPad,CuDef*
%ADD13R,2.000000X1.500000*%
G04 #@! TD*
G04 #@! TA.AperFunction,ComponentPad*
%ADD14R,1.700000X1.700000*%
G04 #@! TD*
G04 #@! TA.AperFunction,ComponentPad*
%ADD15O,1.700000X1.700000*%
G04 #@! TD*
G04 #@! TA.AperFunction,ComponentPad*
%ADD16C,1.400000*%
G04 #@! TD*
G04 #@! TA.AperFunction,ViaPad*
%ADD17C,0.800000*%
G04 #@! TD*
G04 #@! TA.AperFunction,Conductor*
%ADD18C,0.250000*%
G04 #@! TD*
G04 #@! TA.AperFunction,Conductor*
%ADD19C,0.300000*%
G04 #@! TD*
G04 #@! TA.AperFunction,Conductor*
%ADD20C,0.254000*%
G04 #@! TD*
G04 APERTURE END LIST*
D10*
G04 #@! TO.P,CC1101,7*
G04 #@! TO.N,/GDO0*
X157965040Y-120643520D03*
G04 #@! TO.P,CC1101,6*
G04 #@! TO.N,Net-(CC1101-Pad6)*
X155965040Y-120643520D03*
G04 #@! TO.P,CC1101,5*
G04 #@! TO.N,/MISO*
X153965040Y-120643520D03*
G04 #@! TO.P,CC1101,4*
G04 #@! TO.N,/SCK*
X151965040Y-120643520D03*
G04 #@! TO.P,CC1101,3*
G04 #@! TO.N,/MOSI*
X149965040Y-120643520D03*
G04 #@! TO.P,CC1101,2*
G04 #@! TO.N,GND*
X147965040Y-120643520D03*
G04 #@! TO.P,CC1101,1*
G04 #@! TO.N,VCC*
X145965040Y-120643520D03*
D11*
G04 #@! TO.P,CC1101,7*
G04 #@! TO.N,/GDO0*
X157965040Y-119643520D03*
G04 #@! TO.P,CC1101,6*
G04 #@! TO.N,Net-(CC1101-Pad6)*
X155965040Y-119643520D03*
G04 #@! TO.P,CC1101,5*
G04 #@! TO.N,/MISO*
X153965040Y-119643520D03*
G04 #@! TO.P,CC1101,4*
G04 #@! TO.N,/SCK*
X151965040Y-119643520D03*
G04 #@! TO.P,CC1101,3*
G04 #@! TO.N,/MOSI*
X149965040Y-119643520D03*
G04 #@! TO.P,CC1101,2*
G04 #@! TO.N,GND*
X147965040Y-119643520D03*
G04 #@! TO.P,CC1101,1*
G04 #@! TO.N,VCC*
X145965040Y-119643520D03*
D10*
G04 #@! TO.P,CC1101,8*
G04 #@! TO.N,/CSN*
X159965040Y-120643520D03*
D11*
X159965040Y-119643520D03*
G04 #@! TD*
D12*
G04 #@! TO.P,U2,11*
G04 #@! TO.N,GND*
X156418280Y-100939600D03*
G04 #@! TO.P,U2,10*
X151518280Y-100939600D03*
G04 #@! TD*
D13*
G04 #@! TO.P,J4,1*
G04 #@! TO.N,VCC*
X163372800Y-112268000D03*
G04 #@! TO.P,J4,3*
G04 #@! TO.N,/J10*
X163372800Y-107111800D03*
G04 #@! TO.P,J4,2*
G04 #@! TO.N,/LED(J5)*
X163372800Y-109702600D03*
G04 #@! TD*
D14*
G04 #@! TO.P,J1,1*
G04 #@! TO.N,/DTR*
X149301200Y-95834200D03*
D15*
G04 #@! TO.P,J1,2*
G04 #@! TO.N,/RXD*
X151841200Y-95834200D03*
G04 #@! TO.P,J1,3*
G04 #@! TO.N,/TXD*
X154381200Y-95834200D03*
G04 #@! TO.P,J1,4*
G04 #@! TO.N,VCC*
X156921200Y-95834200D03*
G04 #@! TO.P,J1,5*
G04 #@! TO.N,GND*
X159461200Y-95834200D03*
G04 #@! TD*
D16*
G04 #@! TO.P,J3,1*
G04 #@! TO.N,/Reset*
X147066000Y-97891600D03*
G04 #@! TD*
D17*
G04 #@! TO.N,VCC*
X158993840Y-112003840D03*
X145968720Y-116545360D03*
X149316440Y-115686840D03*
X156773880Y-105699560D03*
X148793200Y-104333040D03*
G04 #@! TO.N,/MOSI*
X155503880Y-115727480D03*
G04 #@! TO.N,/GDO0*
X152298400Y-106984800D03*
G04 #@! TO.N,/LED(J5)*
X155956000Y-109524800D03*
G04 #@! TO.N,/BUTTON(J4)*
X157977840Y-101417120D03*
X160426400Y-107050840D03*
G04 #@! TD*
D18*
G04 #@! TO.N,GND*
X147965040Y-119643520D02*
X147965040Y-120643520D01*
X155668280Y-100939600D02*
X155002800Y-100274120D01*
X156418280Y-100939600D02*
X155668280Y-100939600D01*
X152268280Y-100939600D02*
X151518280Y-100939600D01*
X152933760Y-100274120D02*
X152268280Y-100939600D01*
X155002800Y-100274120D02*
X152933760Y-100274120D01*
X159461200Y-97036281D02*
X159461200Y-95834200D01*
X159461200Y-98646680D02*
X159461200Y-97036281D01*
X157168280Y-100939600D02*
X159461200Y-98646680D01*
X156418280Y-100939600D02*
X157168280Y-100939600D01*
G04 #@! TO.N,VCC*
X160655000Y-112268000D02*
X163372800Y-112268000D01*
X162331400Y-112268000D02*
X162204400Y-112141000D01*
X162331400Y-112268000D02*
X163372800Y-112268000D01*
X163372800Y-112268000D02*
X162356800Y-112268000D01*
X162356800Y-112268000D02*
X162229800Y-112395000D01*
X160578800Y-112420400D02*
X162052000Y-112420400D01*
X160578800Y-112649000D02*
X160578800Y-112420400D01*
X162326320Y-112476280D02*
X162153600Y-112649000D01*
X162326320Y-111861600D02*
X162326320Y-112476280D01*
X162122800Y-112268000D02*
X162026600Y-112171800D01*
X162026600Y-112171800D02*
X162026600Y-112064800D01*
X162026600Y-112064800D02*
X161010600Y-112064800D01*
X160807400Y-111861600D02*
X162326320Y-111861600D01*
X162026600Y-112171800D02*
X162026600Y-112146080D01*
X162026600Y-112146080D02*
X162148520Y-112024160D01*
X161899600Y-112649000D02*
X162331400Y-112649000D01*
X161899600Y-112649000D02*
X160578800Y-112649000D01*
X162153600Y-112649000D02*
X161899600Y-112649000D01*
X145965040Y-119643520D02*
X145965040Y-120643520D01*
X163372800Y-112268000D02*
X163093400Y-112268000D01*
D19*
X163093400Y-112268000D02*
X161945320Y-111119920D01*
D18*
X161945320Y-111119920D02*
X161945320Y-111490760D01*
X162123120Y-111668560D02*
X162133280Y-111668560D01*
X161945320Y-111490760D02*
X161950400Y-111495840D01*
X161950400Y-111495840D02*
X162123120Y-111668560D01*
X162133280Y-111668560D02*
X162275520Y-111810800D01*
X162275520Y-111810800D02*
X162326320Y-111861600D01*
X162732720Y-112268000D02*
X162275520Y-111810800D01*
X162732720Y-112268000D02*
X162326320Y-111861600D01*
X163372800Y-112268000D02*
X162732720Y-112268000D01*
X161950400Y-112095600D02*
X161950400Y-111495840D01*
X162122800Y-112268000D02*
X161950400Y-112095600D01*
X163372800Y-112268000D02*
X162122800Y-112268000D01*
X145965040Y-119643520D02*
X146137000Y-119643520D01*
X146137000Y-119643520D02*
X146700240Y-119080280D01*
G04 #@! TO.N,/MISO*
X153965040Y-119643520D02*
X153965040Y-120643520D01*
G04 #@! TO.N,/MOSI*
X149994600Y-119650000D02*
X150669599Y-118975001D01*
X150640039Y-118561200D02*
X150669599Y-118531640D01*
X150640039Y-118968521D02*
X150640039Y-118561200D01*
X149965040Y-119643520D02*
X150640039Y-118968521D01*
X150669599Y-118975001D02*
X150669599Y-118531640D01*
X150669599Y-118531640D02*
X150669599Y-117706801D01*
X150669599Y-117706801D02*
X150674679Y-117706801D01*
X150674679Y-117706801D02*
X151638000Y-116743480D01*
X151638000Y-116743480D02*
X154487880Y-116743480D01*
X154487880Y-116743480D02*
X155503880Y-115727480D01*
X155503880Y-115727480D02*
X155503880Y-115727480D01*
X149965040Y-119643520D02*
X149965040Y-120643520D01*
G04 #@! TO.N,/SCK*
X151965040Y-119643520D02*
X151965040Y-120643520D01*
G04 #@! TO.N,/CSN*
X159965040Y-119643520D02*
X159965040Y-120643520D01*
G04 #@! TO.N,/GDO0*
X157994600Y-119650000D02*
X157319601Y-118975001D01*
X152298400Y-106984800D02*
X152298400Y-106984800D01*
X157965040Y-119620440D02*
X157319601Y-118975001D01*
X157965040Y-119643520D02*
X157965040Y-119620440D01*
X157965040Y-119643520D02*
X157965040Y-120643520D01*
X157965040Y-119493520D02*
X156982160Y-118510640D01*
X157965040Y-120643520D02*
X157965040Y-119493520D01*
X156982160Y-118510640D02*
X156982160Y-115595400D01*
X156982160Y-115595400D02*
X151292560Y-109905800D01*
X151292560Y-107990640D02*
X152298400Y-106984800D01*
X151292560Y-109905800D02*
X151292560Y-107990640D01*
G04 #@! TO.N,Net-(CC1101-Pad6)*
X155965040Y-119643520D02*
X155965040Y-120643520D01*
G04 #@! TO.N,/LED(J5)*
X163372800Y-109702600D02*
X163122800Y-109702600D01*
X160832800Y-110363000D02*
X160832800Y-110363000D01*
X156794200Y-110363000D02*
X155956000Y-109524800D01*
X161462400Y-110363000D02*
X156794200Y-110363000D01*
X163372800Y-109702600D02*
X162122800Y-109702600D01*
X162122800Y-109702600D02*
X161462400Y-110363000D01*
G04 #@! TO.N,/BUTTON(J4)*
X159075120Y-103210360D02*
X159075120Y-103210360D01*
X159075120Y-103210360D02*
X159075120Y-103068120D01*
X159075120Y-102514400D02*
X157977840Y-101417120D01*
X159075120Y-103210360D02*
X159075120Y-102514400D01*
X160426400Y-104561640D02*
X159075120Y-103210360D01*
X160426400Y-107050840D02*
X160426400Y-104561640D01*
G04 #@! TD*
D20*
G04 #@! TO.N,VCC*
G36*
X160605401Y-93368131D02*
X160605401Y-94873689D01*
X160531825Y-94763575D01*
X160040618Y-94435361D01*
X159607456Y-94349200D01*
X159314944Y-94349200D01*
X158881782Y-94435361D01*
X158390575Y-94763575D01*
X158177357Y-95082678D01*
X158116383Y-94952842D01*
X157688124Y-94562555D01*
X157278090Y-94392724D01*
X157048200Y-94514045D01*
X157048200Y-95707200D01*
X157068200Y-95707200D01*
X157068200Y-95961200D01*
X157048200Y-95961200D01*
X157048200Y-97154355D01*
X157278090Y-97275676D01*
X157688124Y-97105845D01*
X158116383Y-96715558D01*
X158177357Y-96585722D01*
X158390575Y-96904825D01*
X158701201Y-97112379D01*
X158701200Y-98331878D01*
X157549587Y-99483492D01*
X157516437Y-99316835D01*
X157376089Y-99106791D01*
X157166045Y-98966443D01*
X156918280Y-98917160D01*
X155918280Y-98917160D01*
X155670515Y-98966443D01*
X155460471Y-99106791D01*
X155320123Y-99316835D01*
X155273146Y-99553006D01*
X155077652Y-99514120D01*
X155077647Y-99514120D01*
X155002800Y-99499232D01*
X154927953Y-99514120D01*
X153008608Y-99514120D01*
X152933760Y-99499232D01*
X152858912Y-99514120D01*
X152858908Y-99514120D01*
X152685365Y-99548640D01*
X152663414Y-99553006D01*
X152616437Y-99316835D01*
X152476089Y-99106791D01*
X152266045Y-98966443D01*
X152018280Y-98917160D01*
X151018280Y-98917160D01*
X150770515Y-98966443D01*
X150560471Y-99106791D01*
X150420123Y-99316835D01*
X150370840Y-99564600D01*
X150370840Y-102314600D01*
X150420123Y-102562365D01*
X150560471Y-102772409D01*
X150770515Y-102912757D01*
X151018280Y-102962040D01*
X152018280Y-102962040D01*
X152266045Y-102912757D01*
X152476089Y-102772409D01*
X152616437Y-102562365D01*
X152665720Y-102314600D01*
X152665720Y-102178915D01*
X152783666Y-102463662D01*
X153187338Y-102867334D01*
X153714761Y-103085800D01*
X154285639Y-103085800D01*
X154813062Y-102867334D01*
X155216734Y-102463662D01*
X155273318Y-102327057D01*
X155320123Y-102562365D01*
X155460471Y-102772409D01*
X155670515Y-102912757D01*
X155918280Y-102962040D01*
X156918280Y-102962040D01*
X157166045Y-102912757D01*
X157376089Y-102772409D01*
X157516437Y-102562365D01*
X157556147Y-102362725D01*
X157771966Y-102452120D01*
X157938039Y-102452120D01*
X158315120Y-102829202D01*
X158315120Y-103135508D01*
X158300231Y-103210360D01*
X158359216Y-103506897D01*
X158484790Y-103694832D01*
X158527191Y-103758289D01*
X158590650Y-103800691D01*
X159652662Y-104862703D01*
X155333571Y-108667503D01*
X155300552Y-108713327D01*
X155299716Y-108717373D01*
X155078569Y-108938520D01*
X154921000Y-109318926D01*
X154921000Y-109730674D01*
X155078569Y-110111080D01*
X155369720Y-110402231D01*
X155750126Y-110559800D01*
X155916198Y-110559800D01*
X156203871Y-110847473D01*
X156246271Y-110910929D01*
X156309727Y-110953329D01*
X156497662Y-111078904D01*
X156545805Y-111088480D01*
X156719348Y-111123000D01*
X156719352Y-111123000D01*
X156794200Y-111137888D01*
X156869048Y-111123000D01*
X161229145Y-111123000D01*
X161239200Y-111125000D01*
X161397608Y-111125000D01*
X161462400Y-111137888D01*
X161527192Y-111125000D01*
X161867775Y-111125000D01*
X161834473Y-111158302D01*
X161737800Y-111391691D01*
X161737800Y-111982250D01*
X161896550Y-112141000D01*
X163245800Y-112141000D01*
X163245800Y-112121000D01*
X163499800Y-112121000D01*
X163499800Y-112141000D01*
X163519800Y-112141000D01*
X163519800Y-112395000D01*
X163499800Y-112395000D01*
X163499800Y-112415000D01*
X163245800Y-112415000D01*
X163245800Y-112395000D01*
X161896550Y-112395000D01*
X161819150Y-112472400D01*
X161385325Y-112472400D01*
X161315400Y-112458491D01*
X161245474Y-112472400D01*
X161038372Y-112513595D01*
X160803519Y-112670519D01*
X160646595Y-112905372D01*
X160591491Y-113182400D01*
X160605400Y-113252325D01*
X160605400Y-113518242D01*
X155860117Y-113398554D01*
X152052560Y-109590999D01*
X152052560Y-108305441D01*
X152338202Y-108019800D01*
X152504274Y-108019800D01*
X152884680Y-107862231D01*
X153175831Y-107571080D01*
X153333400Y-107190674D01*
X153333400Y-106778926D01*
X153175831Y-106398520D01*
X152884680Y-106107369D01*
X152504274Y-105949800D01*
X152092526Y-105949800D01*
X151712120Y-106107369D01*
X151420969Y-106398520D01*
X151263400Y-106778926D01*
X151263400Y-106944998D01*
X150808088Y-107400311D01*
X150744632Y-107442711D01*
X150702232Y-107506167D01*
X150702231Y-107506168D01*
X150576657Y-107694103D01*
X150517672Y-107990640D01*
X150532561Y-108065492D01*
X150532560Y-109830953D01*
X150517672Y-109905800D01*
X150532560Y-109980647D01*
X150532560Y-109980651D01*
X150536634Y-110001131D01*
X150550438Y-116756240D01*
X150200438Y-117106241D01*
X150121670Y-117158872D01*
X149953695Y-117410264D01*
X149894710Y-117706801D01*
X149909599Y-117781653D01*
X149909599Y-118333520D01*
X149704465Y-118333520D01*
X149222985Y-118532956D01*
X148965040Y-118790901D01*
X148707095Y-118532956D01*
X148225615Y-118333520D01*
X147704465Y-118333520D01*
X147222985Y-118532956D01*
X146854476Y-118901465D01*
X146831690Y-118956475D01*
X146679645Y-119108520D01*
X146320435Y-119108520D01*
X146702582Y-118726373D01*
X146643821Y-118493192D01*
X146151940Y-118320998D01*
X145631606Y-118350145D01*
X145286259Y-118493192D01*
X145227499Y-118726371D01*
X145136809Y-118635681D01*
X145155385Y-97626052D01*
X145731000Y-97626052D01*
X145731000Y-98157148D01*
X145934242Y-98647817D01*
X146309783Y-99023358D01*
X146800452Y-99226600D01*
X147331548Y-99226600D01*
X147641491Y-99098217D01*
X147675228Y-99098149D01*
X147720970Y-99079094D01*
X147774682Y-99043048D01*
X147822217Y-99023358D01*
X147859344Y-98986231D01*
X150393050Y-97285854D01*
X150395545Y-97283037D01*
X150398965Y-97282357D01*
X150609009Y-97142009D01*
X150749357Y-96931965D01*
X150758384Y-96886581D01*
X150770575Y-96904825D01*
X151261782Y-97233039D01*
X151694944Y-97319200D01*
X151987456Y-97319200D01*
X152420618Y-97233039D01*
X152911825Y-96904825D01*
X153111200Y-96606439D01*
X153310575Y-96904825D01*
X153801782Y-97233039D01*
X154234944Y-97319200D01*
X154527456Y-97319200D01*
X154960618Y-97233039D01*
X155451825Y-96904825D01*
X155665043Y-96585722D01*
X155726017Y-96715558D01*
X156154276Y-97105845D01*
X156564310Y-97275676D01*
X156794200Y-97154355D01*
X156794200Y-95961200D01*
X156774200Y-95961200D01*
X156774200Y-95707200D01*
X156794200Y-95707200D01*
X156794200Y-94514045D01*
X156564310Y-94392724D01*
X156154276Y-94562555D01*
X155726017Y-94952842D01*
X155665043Y-95082678D01*
X155451825Y-94763575D01*
X154960618Y-94435361D01*
X154527456Y-94349200D01*
X154234944Y-94349200D01*
X153801782Y-94435361D01*
X153310575Y-94763575D01*
X153111200Y-95061961D01*
X152911825Y-94763575D01*
X152420618Y-94435361D01*
X151987456Y-94349200D01*
X151694944Y-94349200D01*
X151261782Y-94435361D01*
X150770575Y-94763575D01*
X150758384Y-94781819D01*
X150749357Y-94736435D01*
X150609009Y-94526391D01*
X150398965Y-94386043D01*
X150151200Y-94336760D01*
X148451200Y-94336760D01*
X148203435Y-94386043D01*
X147993391Y-94526391D01*
X147853043Y-94736435D01*
X147803760Y-94984200D01*
X147803760Y-95687589D01*
X147763944Y-95705742D01*
X146275504Y-96777622D01*
X146246514Y-96806670D01*
X146232870Y-96836755D01*
X145934242Y-97135383D01*
X145731000Y-97626052D01*
X145155385Y-97626052D01*
X145159171Y-93344868D01*
X160605401Y-93368131D01*
X160605401Y-93368131D01*
G37*
X160605401Y-93368131D02*
X160605401Y-94873689D01*
X160531825Y-94763575D01*
X160040618Y-94435361D01*
X159607456Y-94349200D01*
X159314944Y-94349200D01*
X158881782Y-94435361D01*
X158390575Y-94763575D01*
X158177357Y-95082678D01*
X158116383Y-94952842D01*
X157688124Y-94562555D01*
X157278090Y-94392724D01*
X157048200Y-94514045D01*
X157048200Y-95707200D01*
X157068200Y-95707200D01*
X157068200Y-95961200D01*
X157048200Y-95961200D01*
X157048200Y-97154355D01*
X157278090Y-97275676D01*
X157688124Y-97105845D01*
X158116383Y-96715558D01*
X158177357Y-96585722D01*
X158390575Y-96904825D01*
X158701201Y-97112379D01*
X158701200Y-98331878D01*
X157549587Y-99483492D01*
X157516437Y-99316835D01*
X157376089Y-99106791D01*
X157166045Y-98966443D01*
X156918280Y-98917160D01*
X155918280Y-98917160D01*
X155670515Y-98966443D01*
X155460471Y-99106791D01*
X155320123Y-99316835D01*
X155273146Y-99553006D01*
X155077652Y-99514120D01*
X155077647Y-99514120D01*
X155002800Y-99499232D01*
X154927953Y-99514120D01*
X153008608Y-99514120D01*
X152933760Y-99499232D01*
X152858912Y-99514120D01*
X152858908Y-99514120D01*
X152685365Y-99548640D01*
X152663414Y-99553006D01*
X152616437Y-99316835D01*
X152476089Y-99106791D01*
X152266045Y-98966443D01*
X152018280Y-98917160D01*
X151018280Y-98917160D01*
X150770515Y-98966443D01*
X150560471Y-99106791D01*
X150420123Y-99316835D01*
X150370840Y-99564600D01*
X150370840Y-102314600D01*
X150420123Y-102562365D01*
X150560471Y-102772409D01*
X150770515Y-102912757D01*
X151018280Y-102962040D01*
X152018280Y-102962040D01*
X152266045Y-102912757D01*
X152476089Y-102772409D01*
X152616437Y-102562365D01*
X152665720Y-102314600D01*
X152665720Y-102178915D01*
X152783666Y-102463662D01*
X153187338Y-102867334D01*
X153714761Y-103085800D01*
X154285639Y-103085800D01*
X154813062Y-102867334D01*
X155216734Y-102463662D01*
X155273318Y-102327057D01*
X155320123Y-102562365D01*
X155460471Y-102772409D01*
X155670515Y-102912757D01*
X155918280Y-102962040D01*
X156918280Y-102962040D01*
X157166045Y-102912757D01*
X157376089Y-102772409D01*
X157516437Y-102562365D01*
X157556147Y-102362725D01*
X157771966Y-102452120D01*
X157938039Y-102452120D01*
X158315120Y-102829202D01*
X158315120Y-103135508D01*
X158300231Y-103210360D01*
X158359216Y-103506897D01*
X158484790Y-103694832D01*
X158527191Y-103758289D01*
X158590650Y-103800691D01*
X159652662Y-104862703D01*
X155333571Y-108667503D01*
X155300552Y-108713327D01*
X155299716Y-108717373D01*
X155078569Y-108938520D01*
X154921000Y-109318926D01*
X154921000Y-109730674D01*
X155078569Y-110111080D01*
X155369720Y-110402231D01*
X155750126Y-110559800D01*
X155916198Y-110559800D01*
X156203871Y-110847473D01*
X156246271Y-110910929D01*
X156309727Y-110953329D01*
X156497662Y-111078904D01*
X156545805Y-111088480D01*
X156719348Y-111123000D01*
X156719352Y-111123000D01*
X156794200Y-111137888D01*
X156869048Y-111123000D01*
X161229145Y-111123000D01*
X161239200Y-111125000D01*
X161397608Y-111125000D01*
X161462400Y-111137888D01*
X161527192Y-111125000D01*
X161867775Y-111125000D01*
X161834473Y-111158302D01*
X161737800Y-111391691D01*
X161737800Y-111982250D01*
X161896550Y-112141000D01*
X163245800Y-112141000D01*
X163245800Y-112121000D01*
X163499800Y-112121000D01*
X163499800Y-112141000D01*
X163519800Y-112141000D01*
X163519800Y-112395000D01*
X163499800Y-112395000D01*
X163499800Y-112415000D01*
X163245800Y-112415000D01*
X163245800Y-112395000D01*
X161896550Y-112395000D01*
X161819150Y-112472400D01*
X161385325Y-112472400D01*
X161315400Y-112458491D01*
X161245474Y-112472400D01*
X161038372Y-112513595D01*
X160803519Y-112670519D01*
X160646595Y-112905372D01*
X160591491Y-113182400D01*
X160605400Y-113252325D01*
X160605400Y-113518242D01*
X155860117Y-113398554D01*
X152052560Y-109590999D01*
X152052560Y-108305441D01*
X152338202Y-108019800D01*
X152504274Y-108019800D01*
X152884680Y-107862231D01*
X153175831Y-107571080D01*
X153333400Y-107190674D01*
X153333400Y-106778926D01*
X153175831Y-106398520D01*
X152884680Y-106107369D01*
X152504274Y-105949800D01*
X152092526Y-105949800D01*
X151712120Y-106107369D01*
X151420969Y-106398520D01*
X151263400Y-106778926D01*
X151263400Y-106944998D01*
X150808088Y-107400311D01*
X150744632Y-107442711D01*
X150702232Y-107506167D01*
X150702231Y-107506168D01*
X150576657Y-107694103D01*
X150517672Y-107990640D01*
X150532561Y-108065492D01*
X150532560Y-109830953D01*
X150517672Y-109905800D01*
X150532560Y-109980647D01*
X150532560Y-109980651D01*
X150536634Y-110001131D01*
X150550438Y-116756240D01*
X150200438Y-117106241D01*
X150121670Y-117158872D01*
X149953695Y-117410264D01*
X149894710Y-117706801D01*
X149909599Y-117781653D01*
X149909599Y-118333520D01*
X149704465Y-118333520D01*
X149222985Y-118532956D01*
X148965040Y-118790901D01*
X148707095Y-118532956D01*
X148225615Y-118333520D01*
X147704465Y-118333520D01*
X147222985Y-118532956D01*
X146854476Y-118901465D01*
X146831690Y-118956475D01*
X146679645Y-119108520D01*
X146320435Y-119108520D01*
X146702582Y-118726373D01*
X146643821Y-118493192D01*
X146151940Y-118320998D01*
X145631606Y-118350145D01*
X145286259Y-118493192D01*
X145227499Y-118726371D01*
X145136809Y-118635681D01*
X145155385Y-97626052D01*
X145731000Y-97626052D01*
X145731000Y-98157148D01*
X145934242Y-98647817D01*
X146309783Y-99023358D01*
X146800452Y-99226600D01*
X147331548Y-99226600D01*
X147641491Y-99098217D01*
X147675228Y-99098149D01*
X147720970Y-99079094D01*
X147774682Y-99043048D01*
X147822217Y-99023358D01*
X147859344Y-98986231D01*
X150393050Y-97285854D01*
X150395545Y-97283037D01*
X150398965Y-97282357D01*
X150609009Y-97142009D01*
X150749357Y-96931965D01*
X150758384Y-96886581D01*
X150770575Y-96904825D01*
X151261782Y-97233039D01*
X151694944Y-97319200D01*
X151987456Y-97319200D01*
X152420618Y-97233039D01*
X152911825Y-96904825D01*
X153111200Y-96606439D01*
X153310575Y-96904825D01*
X153801782Y-97233039D01*
X154234944Y-97319200D01*
X154527456Y-97319200D01*
X154960618Y-97233039D01*
X155451825Y-96904825D01*
X155665043Y-96585722D01*
X155726017Y-96715558D01*
X156154276Y-97105845D01*
X156564310Y-97275676D01*
X156794200Y-97154355D01*
X156794200Y-95961200D01*
X156774200Y-95961200D01*
X156774200Y-95707200D01*
X156794200Y-95707200D01*
X156794200Y-94514045D01*
X156564310Y-94392724D01*
X156154276Y-94562555D01*
X155726017Y-94952842D01*
X155665043Y-95082678D01*
X155451825Y-94763575D01*
X154960618Y-94435361D01*
X154527456Y-94349200D01*
X154234944Y-94349200D01*
X153801782Y-94435361D01*
X153310575Y-94763575D01*
X153111200Y-95061961D01*
X152911825Y-94763575D01*
X152420618Y-94435361D01*
X151987456Y-94349200D01*
X151694944Y-94349200D01*
X151261782Y-94435361D01*
X150770575Y-94763575D01*
X150758384Y-94781819D01*
X150749357Y-94736435D01*
X150609009Y-94526391D01*
X150398965Y-94386043D01*
X150151200Y-94336760D01*
X148451200Y-94336760D01*
X148203435Y-94386043D01*
X147993391Y-94526391D01*
X147853043Y-94736435D01*
X147803760Y-94984200D01*
X147803760Y-95687589D01*
X147763944Y-95705742D01*
X146275504Y-96777622D01*
X146246514Y-96806670D01*
X146232870Y-96836755D01*
X145934242Y-97135383D01*
X145731000Y-97626052D01*
X145155385Y-97626052D01*
X145159171Y-93344868D01*
X160605401Y-93368131D01*
G04 #@! TD*
M02*
