G04 #@! TF.GenerationSoftware,KiCad,Pcbnew,(5.1.4)-1*
G04 #@! TF.CreationDate,2020-01-26T17:58:18+01:00*
G04 #@! TF.ProjectId,HM-LC-Sw1-Pl-DN-R1_S26,484d2d4c-432d-4537-9731-2d506c2d444e,rev?*
G04 #@! TF.SameCoordinates,Original*
G04 #@! TF.FileFunction,Legend,Top*
G04 #@! TF.FilePolarity,Positive*
%FSLAX46Y46*%
G04 Gerber Fmt 4.6, Leading zero omitted, Abs format (unit mm)*
G04 Created by KiCad (PCBNEW (5.1.4)-1) date 2020-01-26 17:58:18*
%MOMM*%
%LPD*%
G04 APERTURE LIST*
%ADD10C,0.100000*%
%ADD11C,0.150000*%
G04 APERTURE END LIST*
D10*
X151642857Y-98700000D02*
X151928571Y-98700000D01*
X151585714Y-98871428D02*
X151785714Y-98271428D01*
X151985714Y-98871428D01*
X152185714Y-98471428D02*
X152185714Y-98871428D01*
X152185714Y-98528571D02*
X152214285Y-98500000D01*
X152271428Y-98471428D01*
X152357142Y-98471428D01*
X152414285Y-98500000D01*
X152442857Y-98557142D01*
X152442857Y-98871428D01*
X152642857Y-98471428D02*
X152871428Y-98471428D01*
X152728571Y-98271428D02*
X152728571Y-98785714D01*
X152757142Y-98842857D01*
X152814285Y-98871428D01*
X152871428Y-98871428D01*
X153071428Y-98814285D02*
X153100000Y-98842857D01*
X153071428Y-98871428D01*
X153042857Y-98842857D01*
X153071428Y-98814285D01*
X153071428Y-98871428D01*
X153071428Y-98500000D02*
X153100000Y-98528571D01*
X153071428Y-98557142D01*
X153042857Y-98528571D01*
X153071428Y-98500000D01*
X153071428Y-98557142D01*
X153900000Y-98528571D02*
X153842857Y-98500000D01*
X153814285Y-98471428D01*
X153785714Y-98414285D01*
X153785714Y-98385714D01*
X153814285Y-98328571D01*
X153842857Y-98300000D01*
X153900000Y-98271428D01*
X154014285Y-98271428D01*
X154071428Y-98300000D01*
X154100000Y-98328571D01*
X154128571Y-98385714D01*
X154128571Y-98414285D01*
X154100000Y-98471428D01*
X154071428Y-98500000D01*
X154014285Y-98528571D01*
X153900000Y-98528571D01*
X153842857Y-98557142D01*
X153814285Y-98585714D01*
X153785714Y-98642857D01*
X153785714Y-98757142D01*
X153814285Y-98814285D01*
X153842857Y-98842857D01*
X153900000Y-98871428D01*
X154014285Y-98871428D01*
X154071428Y-98842857D01*
X154100000Y-98814285D01*
X154128571Y-98757142D01*
X154128571Y-98642857D01*
X154100000Y-98585714D01*
X154071428Y-98557142D01*
X154014285Y-98528571D01*
X154328571Y-98271428D02*
X154700000Y-98271428D01*
X154500000Y-98500000D01*
X154585714Y-98500000D01*
X154642857Y-98528571D01*
X154671428Y-98557142D01*
X154700000Y-98614285D01*
X154700000Y-98757142D01*
X154671428Y-98814285D01*
X154642857Y-98842857D01*
X154585714Y-98871428D01*
X154414285Y-98871428D01*
X154357142Y-98842857D01*
X154328571Y-98814285D01*
X154957142Y-98871428D02*
X154957142Y-98471428D01*
X154957142Y-98528571D02*
X154985714Y-98500000D01*
X155042857Y-98471428D01*
X155128571Y-98471428D01*
X155185714Y-98500000D01*
X155214285Y-98557142D01*
X155214285Y-98871428D01*
X155214285Y-98557142D02*
X155242857Y-98500000D01*
X155300000Y-98471428D01*
X155385714Y-98471428D01*
X155442857Y-98500000D01*
X155471428Y-98557142D01*
X155471428Y-98871428D01*
X155757142Y-98871428D02*
X155757142Y-98471428D01*
X155757142Y-98528571D02*
X155785714Y-98500000D01*
X155842857Y-98471428D01*
X155928571Y-98471428D01*
X155985714Y-98500000D01*
X156014285Y-98557142D01*
X156014285Y-98871428D01*
X156014285Y-98557142D02*
X156042857Y-98500000D01*
X156100000Y-98471428D01*
X156185714Y-98471428D01*
X156242857Y-98500000D01*
X156271428Y-98557142D01*
X156271428Y-98871428D01*
X156738883Y-93264619D02*
X156718680Y-93204009D01*
X156658071Y-93143400D01*
X156577258Y-93102994D01*
X156496446Y-93102994D01*
X156435837Y-93123197D01*
X156334822Y-93183806D01*
X156274213Y-93244416D01*
X156213603Y-93345431D01*
X156193400Y-93406040D01*
X156193400Y-93486852D01*
X156233806Y-93567664D01*
X156274213Y-93608071D01*
X156355025Y-93648477D01*
X156395431Y-93648477D01*
X156536852Y-93507055D01*
X156456040Y-93426243D01*
X156536852Y-93870710D02*
X156961116Y-93446446D01*
X156779289Y-94113147D01*
X157203553Y-93688883D01*
X156981319Y-94315177D02*
X157405583Y-93890913D01*
X157506599Y-93991928D01*
X157547005Y-94072741D01*
X157547005Y-94153553D01*
X157526802Y-94214162D01*
X157466193Y-94315177D01*
X157405583Y-94375786D01*
X157304568Y-94436396D01*
X157243959Y-94456599D01*
X157163147Y-94456599D01*
X157082335Y-94416193D01*
X156981319Y-94315177D01*
X161802569Y-111514973D02*
X161302569Y-111681640D01*
X161802569Y-111848306D01*
X161350188Y-112300687D02*
X161326379Y-112276878D01*
X161302569Y-112205449D01*
X161302569Y-112157830D01*
X161326379Y-112086401D01*
X161373998Y-112038782D01*
X161421617Y-112014973D01*
X161516855Y-111991163D01*
X161588283Y-111991163D01*
X161683521Y-112014973D01*
X161731140Y-112038782D01*
X161778760Y-112086401D01*
X161802569Y-112157830D01*
X161802569Y-112205449D01*
X161778760Y-112276878D01*
X161754950Y-112300687D01*
X161350188Y-112800687D02*
X161326379Y-112776878D01*
X161302569Y-112705449D01*
X161302569Y-112657830D01*
X161326379Y-112586401D01*
X161373998Y-112538782D01*
X161421617Y-112514973D01*
X161516855Y-112491163D01*
X161588283Y-112491163D01*
X161683521Y-112514973D01*
X161731140Y-112538782D01*
X161778760Y-112586401D01*
X161802569Y-112657830D01*
X161802569Y-112705449D01*
X161778760Y-112776878D01*
X161754950Y-112800687D01*
X161307649Y-109386251D02*
X161307649Y-109148156D01*
X161807649Y-109148156D01*
X161569554Y-109552918D02*
X161569554Y-109719584D01*
X161307649Y-109791013D02*
X161307649Y-109552918D01*
X161807649Y-109552918D01*
X161807649Y-109791013D01*
X161307649Y-110005299D02*
X161807649Y-110005299D01*
X161807649Y-110124346D01*
X161783840Y-110195775D01*
X161736220Y-110243394D01*
X161688601Y-110267203D01*
X161593363Y-110291013D01*
X161521935Y-110291013D01*
X161426697Y-110267203D01*
X161379078Y-110243394D01*
X161331459Y-110195775D01*
X161307649Y-110124346D01*
X161307649Y-110005299D01*
X161312729Y-106790062D02*
X161812729Y-106790062D01*
X161312729Y-107075777D01*
X161812729Y-107075777D01*
X161360348Y-107599586D02*
X161336539Y-107575777D01*
X161312729Y-107504348D01*
X161312729Y-107456729D01*
X161336539Y-107385300D01*
X161384158Y-107337681D01*
X161431777Y-107313872D01*
X161527015Y-107290062D01*
X161598443Y-107290062D01*
X161693681Y-107313872D01*
X161741300Y-107337681D01*
X161788920Y-107385300D01*
X161812729Y-107456729D01*
X161812729Y-107504348D01*
X161788920Y-107575777D01*
X161765110Y-107599586D01*
X146241428Y-98688571D02*
X145955714Y-98888571D01*
X146241428Y-99031428D02*
X145641428Y-99031428D01*
X145641428Y-98802857D01*
X145670000Y-98745714D01*
X145698571Y-98717142D01*
X145755714Y-98688571D01*
X145841428Y-98688571D01*
X145898571Y-98717142D01*
X145927142Y-98745714D01*
X145955714Y-98802857D01*
X145955714Y-99031428D01*
X146212857Y-98460000D02*
X146241428Y-98374285D01*
X146241428Y-98231428D01*
X146212857Y-98174285D01*
X146184285Y-98145714D01*
X146127142Y-98117142D01*
X146070000Y-98117142D01*
X146012857Y-98145714D01*
X145984285Y-98174285D01*
X145955714Y-98231428D01*
X145927142Y-98345714D01*
X145898571Y-98402857D01*
X145870000Y-98431428D01*
X145812857Y-98460000D01*
X145755714Y-98460000D01*
X145698571Y-98431428D01*
X145670000Y-98402857D01*
X145641428Y-98345714D01*
X145641428Y-98202857D01*
X145670000Y-98117142D01*
X145641428Y-97945714D02*
X145641428Y-97602857D01*
X146241428Y-97774285D02*
X145641428Y-97774285D01*
X150825228Y-93709086D02*
X150885837Y-93365634D01*
X150582791Y-93466649D02*
X151007055Y-93042385D01*
X151168680Y-93204009D01*
X151188883Y-93264619D01*
X151188883Y-93305025D01*
X151168680Y-93365634D01*
X151108071Y-93426243D01*
X151047461Y-93446446D01*
X151007055Y-93446446D01*
X150946446Y-93426243D01*
X150784822Y-93264619D01*
X151390913Y-93426243D02*
X151249492Y-94133350D01*
X151673756Y-93709086D02*
X150966649Y-93850507D01*
X151411116Y-94294974D02*
X151835380Y-93870710D01*
X151936396Y-93971725D01*
X151976802Y-94052538D01*
X151976802Y-94133350D01*
X151956599Y-94193959D01*
X151895990Y-94294974D01*
X151835380Y-94355583D01*
X151734365Y-94416193D01*
X151673756Y-94436396D01*
X151592944Y-94436396D01*
X151512132Y-94395990D01*
X151411116Y-94294974D01*
X145733197Y-93487055D02*
X146157461Y-93062791D01*
X146258477Y-93163806D01*
X146298883Y-93244619D01*
X146298883Y-93325431D01*
X146278680Y-93386040D01*
X146218071Y-93487055D01*
X146157461Y-93547664D01*
X146056446Y-93608274D01*
X145995837Y-93628477D01*
X145915025Y-93628477D01*
X145834213Y-93588071D01*
X145733197Y-93487055D01*
X146521116Y-93426446D02*
X146763553Y-93668883D01*
X146218071Y-93971928D02*
X146642335Y-93547664D01*
X146723147Y-94477005D02*
X146783756Y-94133553D01*
X146480710Y-94234568D02*
X146904974Y-93810304D01*
X147066599Y-93971928D01*
X147086802Y-94032538D01*
X147086802Y-94072944D01*
X147066599Y-94133553D01*
X147005990Y-94194162D01*
X146945380Y-94214365D01*
X146904974Y-94214365D01*
X146844365Y-94194162D01*
X146682741Y-94032538D01*
X153916649Y-93001979D02*
X153633806Y-93567664D01*
X154199492Y-93284822D01*
X154199492Y-94052538D02*
X154159086Y-94052538D01*
X154078274Y-94012132D01*
X154037867Y-93971725D01*
X153997461Y-93890913D01*
X153997461Y-93810101D01*
X154017664Y-93749492D01*
X154078274Y-93648477D01*
X154138883Y-93587867D01*
X154239898Y-93527258D01*
X154300507Y-93507055D01*
X154381319Y-93507055D01*
X154462132Y-93547461D01*
X154502538Y-93587867D01*
X154542944Y-93668680D01*
X154542944Y-93709086D01*
X154623756Y-94476802D02*
X154583350Y-94476802D01*
X154502538Y-94436396D01*
X154462132Y-94395990D01*
X154421725Y-94315177D01*
X154421725Y-94234365D01*
X154441928Y-94173756D01*
X154502538Y-94072741D01*
X154563147Y-94012132D01*
X154664162Y-93951522D01*
X154724771Y-93931319D01*
X154805583Y-93931319D01*
X154886396Y-93971725D01*
X154926802Y-94012132D01*
X154967208Y-94092944D01*
X154967208Y-94133350D01*
X148596954Y-93132284D02*
X148839390Y-93374720D01*
X148293908Y-93677766D02*
X148718172Y-93253502D01*
X148940406Y-93475735D02*
X148798984Y-94182842D01*
X149223248Y-93758578D02*
X148516142Y-93900000D01*
X148960609Y-94344467D02*
X149384873Y-93920203D01*
X149485888Y-94021218D01*
X149526294Y-94102030D01*
X149526294Y-94182842D01*
X149506091Y-94243451D01*
X149445482Y-94344467D01*
X149384873Y-94405076D01*
X149283857Y-94465685D01*
X149223248Y-94485888D01*
X149142436Y-94485888D01*
X149061624Y-94445482D01*
X148960609Y-94344467D01*
X158888883Y-93264619D02*
X158868680Y-93204009D01*
X158808071Y-93143400D01*
X158727258Y-93102994D01*
X158646446Y-93102994D01*
X158585837Y-93123197D01*
X158484822Y-93183806D01*
X158424213Y-93244416D01*
X158363603Y-93345431D01*
X158343400Y-93406040D01*
X158343400Y-93486852D01*
X158383806Y-93567664D01*
X158424213Y-93608071D01*
X158505025Y-93648477D01*
X158545431Y-93648477D01*
X158686852Y-93507055D01*
X158606040Y-93426243D01*
X158686852Y-93870710D02*
X159111116Y-93446446D01*
X158929289Y-94113147D01*
X159353553Y-93688883D01*
X159131319Y-94315177D02*
X159555583Y-93890913D01*
X159656599Y-93991928D01*
X159697005Y-94072741D01*
X159697005Y-94153553D01*
X159676802Y-94214162D01*
X159616193Y-94315177D01*
X159555583Y-94375786D01*
X159454568Y-94436396D01*
X159393959Y-94456599D01*
X159313147Y-94456599D01*
X159232335Y-94416193D01*
X159131319Y-94315177D01*
D11*
X158917640Y-100629720D02*
X160670240Y-100629720D01*
X145227040Y-100604320D02*
X146293840Y-100604320D01*
X150580001Y-114782142D02*
X150532382Y-114829761D01*
X150389525Y-114877380D01*
X150294287Y-114877380D01*
X150151430Y-114829761D01*
X150056192Y-114734523D01*
X150008573Y-114639285D01*
X149960954Y-114448809D01*
X149960954Y-114305952D01*
X150008573Y-114115476D01*
X150056192Y-114020238D01*
X150151430Y-113925000D01*
X150294287Y-113877380D01*
X150389525Y-113877380D01*
X150532382Y-113925000D01*
X150580001Y-113972619D01*
X151580001Y-114782142D02*
X151532382Y-114829761D01*
X151389525Y-114877380D01*
X151294287Y-114877380D01*
X151151430Y-114829761D01*
X151056192Y-114734523D01*
X151008573Y-114639285D01*
X150960954Y-114448809D01*
X150960954Y-114305952D01*
X151008573Y-114115476D01*
X151056192Y-114020238D01*
X151151430Y-113925000D01*
X151294287Y-113877380D01*
X151389525Y-113877380D01*
X151532382Y-113925000D01*
X151580001Y-113972619D01*
X152532382Y-114877380D02*
X151960954Y-114877380D01*
X152246668Y-114877380D02*
X152246668Y-113877380D01*
X152151430Y-114020238D01*
X152056192Y-114115476D01*
X151960954Y-114163095D01*
X153484763Y-114877380D02*
X152913335Y-114877380D01*
X153199049Y-114877380D02*
X153199049Y-113877380D01*
X153103811Y-114020238D01*
X153008573Y-114115476D01*
X152913335Y-114163095D01*
X154103811Y-113877380D02*
X154199049Y-113877380D01*
X154294287Y-113925000D01*
X154341906Y-113972619D01*
X154389525Y-114067857D01*
X154437144Y-114258333D01*
X154437144Y-114496428D01*
X154389525Y-114686904D01*
X154341906Y-114782142D01*
X154294287Y-114829761D01*
X154199049Y-114877380D01*
X154103811Y-114877380D01*
X154008573Y-114829761D01*
X153960954Y-114782142D01*
X153913335Y-114686904D01*
X153865716Y-114496428D01*
X153865716Y-114258333D01*
X153913335Y-114067857D01*
X153960954Y-113972619D01*
X154008573Y-113925000D01*
X154103811Y-113877380D01*
X155389525Y-114877380D02*
X154818097Y-114877380D01*
X155103811Y-114877380D02*
X155103811Y-113877380D01*
X155008573Y-114020238D01*
X154913335Y-114115476D01*
X154818097Y-114163095D01*
M02*
